<svg xmlns="http://www.w3.org/2000/svg" xmlns:xlink="http://www.w3.org/1999/xlink" width="28.44" height="36.76" viewBox="0 0 28.44 36.76">
  <defs>
    <linearGradient id="linear-gradient" x1="0.007" y1="0.502" x2="1.007" y2="0.502" gradientUnits="objectBoundingBox">
      <stop offset="0" stop-color="#c38a00"/>
      <stop offset="0.195" stop-color="#ffc400"/>
      <stop offset="0.411" stop-color="#ffb400"/>
      <stop offset="0.621" stop-color="#d69e00"/>
      <stop offset="0.839" stop-color="#fb0"/>
      <stop offset="1" stop-color="#b67b00"/>
    </linearGradient>
    <linearGradient id="linear-gradient-2" x1="0.001" y1="0.502" x2="0.998" y2="0.502" xlink:href="#linear-gradient"/>
    <linearGradient id="linear-gradient-3" x1="-0.003" y1="0.499" x2="1.003" y2="0.499" xlink:href="#linear-gradient"/>
    <linearGradient id="linear-gradient-4" x1="-0.002" y1="0.499" x2="0.994" y2="0.499" xlink:href="#linear-gradient"/>
    <linearGradient id="linear-gradient-5" x1="0" y1="0.5" x2="1" y2="0.5" xlink:href="#linear-gradient"/>
    <linearGradient id="linear-gradient-6" x1="0" y1="0.5" x2="1" y2="0.5" xlink:href="#linear-gradient"/>
    <linearGradient id="linear-gradient-9" x1="-0.005" y1="0.498" x2="1.006" y2="0.498" xlink:href="#linear-gradient"/>
    <linearGradient id="linear-gradient-10" x1="0.011" y1="0.5" x2="0.997" y2="0.5" xlink:href="#linear-gradient"/>
    <linearGradient id="linear-gradient-15" x1="-0.005" y1="0.498" x2="0.998" y2="0.498" xlink:href="#linear-gradient"/>
    <linearGradient id="linear-gradient-16" x1="0.006" y1="0.501" x2="0.994" y2="0.501" xlink:href="#linear-gradient"/>
    <linearGradient id="linear-gradient-20" x1="0" y1="0.5" x2="1" y2="0.5" xlink:href="#linear-gradient"/>
    <linearGradient id="linear-gradient-24" x1="-0.003" y1="0.5" x2="0.997" y2="0.5" xlink:href="#linear-gradient"/>
    <linearGradient id="linear-gradient-25" x1="0.02" y1="0.491" x2="1.006" y2="0.491" xlink:href="#linear-gradient"/>
    <linearGradient id="linear-gradient-27" x1="0" y1="0.5" x2="1" y2="0.5" xlink:href="#linear-gradient"/>
    <linearGradient id="linear-gradient-28" x1="-0.009" y1="0.502" x2="1.002" y2="0.502" xlink:href="#linear-gradient"/>
    <linearGradient id="linear-gradient-31" x1="-0.001" y1="0.5" x2="1.001" y2="0.5" xlink:href="#linear-gradient"/>
    <linearGradient id="linear-gradient-32" x1="0" y1="0.501" x2="1.002" y2="0.501" xlink:href="#linear-gradient"/>
    <linearGradient id="linear-gradient-39" x1="0" y1="0.5" x2="1" y2="0.5" xlink:href="#linear-gradient"/>
    <linearGradient id="linear-gradient-40" x1="0.002" y1="0.499" x2="0.992" y2="0.499" xlink:href="#linear-gradient"/>
    <linearGradient id="linear-gradient-41" x1="-0.005" y1="0.497" x2="1.005" y2="0.497" xlink:href="#linear-gradient"/>
    <linearGradient id="linear-gradient-43" x1="-0.009" y1="0.499" x2="0.996" y2="0.499" xlink:href="#linear-gradient"/>
    <linearGradient id="linear-gradient-45" x1="0" y1="0.5" x2="1" y2="0.5" xlink:href="#linear-gradient"/>
    <linearGradient id="linear-gradient-46" x1="-0.004" y1="0.501" x2="1.005" y2="0.501" xlink:href="#linear-gradient"/>
    <linearGradient id="linear-gradient-47" x1="0" y1="0.5" x2="1" y2="0.5" xlink:href="#linear-gradient"/>
    <linearGradient id="linear-gradient-48" x1="0" y1="0.5" x2="1" y2="0.5" xlink:href="#linear-gradient"/>
    <linearGradient id="linear-gradient-49" x1="0" y1="0.5" x2="1" y2="0.5" xlink:href="#linear-gradient"/>
    <linearGradient id="linear-gradient-50" x1="0.001" y1="0.5" x2="1" y2="0.5" xlink:href="#linear-gradient"/>
    <linearGradient id="linear-gradient-51" x1="0" y1="0.5" x2="1" y2="0.5" xlink:href="#linear-gradient"/>
    <linearGradient id="linear-gradient-52" x1="-0.004" y1="0.5" x2="0.996" y2="0.5" xlink:href="#linear-gradient"/>
    <linearGradient id="linear-gradient-53" x1="0" y1="0.5" x2="1" y2="0.5" xlink:href="#linear-gradient"/>
    <linearGradient id="linear-gradient-54" x1="0" y1="0.5" x2="1" y2="0.5" xlink:href="#linear-gradient"/>
    <linearGradient id="linear-gradient-55" x1="0" y1="0.502" x2="0.996" y2="0.502" xlink:href="#linear-gradient"/>
    <linearGradient id="linear-gradient-56" x1="-0.001" y1="0.5" x2="1" y2="0.5" xlink:href="#linear-gradient"/>
    <linearGradient id="linear-gradient-58" x1="0" y1="0.5" x2="1" y2="0.5" xlink:href="#linear-gradient"/>
    <linearGradient id="linear-gradient-61" x1="0" y1="0.5" x2="1" y2="0.5" xlink:href="#linear-gradient"/>
    <linearGradient id="linear-gradient-62" x1="0.005" y1="0.497" x2="1.005" y2="0.497" xlink:href="#linear-gradient"/>
    <linearGradient id="linear-gradient-63" x1="0" y1="0.5" x2="1" y2="0.5" xlink:href="#linear-gradient"/>
    <linearGradient id="linear-gradient-65" x1="0" y1="0.5" x2="1" y2="0.5" xlink:href="#linear-gradient"/>
    <linearGradient id="linear-gradient-66" x1="-0.001" y1="0.501" x2="1.002" y2="0.501" xlink:href="#linear-gradient"/>
    <linearGradient id="linear-gradient-67" x1="0" y1="0.501" x2="0.999" y2="0.501" xlink:href="#linear-gradient"/>
    <linearGradient id="linear-gradient-68" x1="-0.011" y1="0.504" x2="0.999" y2="0.504" xlink:href="#linear-gradient"/>
    <linearGradient id="linear-gradient-69" x1="0" y1="0.5" x2="0.999" y2="0.5" xlink:href="#linear-gradient"/>
    <linearGradient id="linear-gradient-70" x1="-0.001" y1="0.5" x2="0.999" y2="0.5" xlink:href="#linear-gradient"/>
    <linearGradient id="linear-gradient-71" x1="0" y1="0.499" x2="1.001" y2="0.499" xlink:href="#linear-gradient"/>
    <linearGradient id="linear-gradient-72" x1="0.002" y1="0.498" x2="1.001" y2="0.498" xlink:href="#linear-gradient"/>
    <linearGradient id="linear-gradient-73" x1="0.005" y1="0.5" x2="0.997" y2="0.5" xlink:href="#linear-gradient"/>
    <linearGradient id="linear-gradient-74" x1="-0.001" y1="0.499" x2="1" y2="0.499" xlink:href="#linear-gradient"/>
    <linearGradient id="linear-gradient-77" x1="0.001" y1="0.498" x2="1.007" y2="0.498" xlink:href="#linear-gradient"/>
    <linearGradient id="linear-gradient-79" x1="0" y1="0.5" x2="0.999" y2="0.5" xlink:href="#linear-gradient"/>
    <linearGradient id="linear-gradient-80" x1="-0.001" y1="0.5" x2="1.001" y2="0.5" xlink:href="#linear-gradient"/>
    <linearGradient id="linear-gradient-81" x1="0.002" y1="0.501" x2="1.002" y2="0.501" xlink:href="#linear-gradient"/>
  </defs>
  <g id="banyanLogoSwitch" transform="translate(-1155.78 -365.621)">
    <g id="Group_432" data-name="Group 432" transform="translate(1155.78 365.621)">
      <g id="Group_118" data-name="Group 118">
        <path id="Path_588" data-name="Path 588" d="M517.419,528.752h0v0Z" transform="translate(-501.375 -514.569)" fill="url(#linear-gradient)"/>
        <path id="Path_589" data-name="Path 589" d="M475.9,640.091l.016-.005-.019,0h0l0,0,0,0Z" transform="translate(-463.811 -615.282)" fill="url(#linear-gradient-2)"/>
        <path id="Path_590" data-name="Path 590" d="M616.711,582.6l0,.005.006,0Z" transform="translate(-591.192 -563.281)" fill="url(#linear-gradient-3)"/>
        <path id="Path_591" data-name="Path 591" d="M520.11,721.417l0,0,0,0a.016.016,0,0,0,0,0h0s0,0,0,0Z" transform="translate(-503.809 -688.849)" fill="url(#linear-gradient-4)"/>
        <path id="Path_592" data-name="Path 592" d="M469.745,719.912c.167.175.336.074.543.082-.247-.317-.636-.058-.92-.323.707-.269,1.048.181,1.383.65.039-.144-.043-.19-.073-.259s-.092-.138-.04-.225c.35.2.406.208.631.085-.017-.183-.574.1-.293-.346a.849.849,0,0,1-.087-.012c-.073-.017-.2.124-.215-.044-.014-.126.118-.116.2-.126a1.431,1.431,0,0,1,.651.053.575.575,0,0,0-.758-.21c-.1.042-.191.145-.288,0-.034-.049-.1-.109-.093-.147.037-.139.192-.04.27-.112-.374-.083-.368-.1-.134-.392a5.53,5.53,0,0,0,.387-.639c.007-.012-.008-.038-.013-.062-.1,0-.089.16-.219.13,0-.032-.013-.076,0-.107a3.505,3.505,0,0,1,.7-.911.7.7,0,0,1,.355-.166c.077-.018.112.028.1.106a.99.99,0,0,0,.094-.064,1.03,1.03,0,0,1-.094.064c-.106.059-.258.071-.251.244.213,0,.033.262.206.3l.325-.665h0a.85.85,0,0,0-.957.208c-.144.14-.242.342-.463.394a.344.344,0,0,1,.057-.352c.065-.115-.032-.1-.086-.126,0,.1-.152.125-.126.239-.09-.009-.117.045-.12.123-.106.049-.173.118-.122.245-.2.058-.138.307-.315.419-.028-.21.127-.349.159-.519l-.065-.062a1,1,0,0,0-.2.429.4.4,0,0,1-.34.328c-.209.055-.158-.183-.252-.265h0a3.8,3.8,0,0,0-.711-1.415,1.825,1.825,0,0,1-.371.677,1.915,1.915,0,0,0-.331.67c-.03.069-.006.194-.112.185-.131-.013-.068-.145-.074-.219a1.372,1.372,0,0,0-1.111-1.072,4.663,4.663,0,0,0,.9,1.253c.163.134.269.221.451.072.154-.126.072.113.15.1.1-.044.048-.349.279-.157l-.048.089.039.034-.039-.034-.056.129.043.034-.043-.034a.456.456,0,0,0-.094.329l.021.014-.021-.014c-.065.05-.056.118-.046.187-.03.053.011.151-.13.16v-.554c-.088.118-.04.207-.068.277-.04.1.121.36-.138.3-.281-.071-.113.218-.242.231-.033,0-.072-.029-.1-.052-.073-.052-.142-.109-.215-.165-.112.354-.454.356-.7.494l-.166-.121c.2-.243-.107-.253-.16-.427-.1.393-.1.4-.434.519a.612.612,0,0,0-.305.3c.326-.125.616-.445,1-.146l.055.114h0c-.267.014-.564-.106-.772.169.1.014.191-.082.277-.064.151.032.443-.123.392.233a.687.687,0,0,0,.118-.294.071.071,0,0,0-.015-.044.066.066,0,0,1,.015.043c.306-.15.579-.4.963-.315.091.02.174.024.076.138v.174a.083.083,0,0,0,.053.01l.126,0c.039-.146.073-.293.117-.436.066-.214.107-.033.156.012.067,0,.1.026.089.1a.385.385,0,0,0-.041.292c.182-.043.064-.215.139-.3a.366.366,0,0,1,.263.525.278.278,0,0,0-.043.136c.066.359-.027.459-.388.412-.049-.006-.1-.009-.15-.013h0a1.521,1.521,0,0,1-.142-.724l-.126,0c.134.265-.179.313-.236.485h.178c.066-.047.106-.025.123.05.024.105.047.211.069.316h0a.828.828,0,0,0,.791.59c.333-.034.642-.134.732-.522a1.039,1.039,0,0,0,.186-.535A.184.184,0,0,1,469.745,719.912Zm2.31-3.094a.275.275,0,0,0-.114.051A.272.272,0,0,1,472.055,716.819Zm-2.509,1.649a1.562,1.562,0,0,1,.168-.21c.066-.068.122-.2.231-.153.144.062-.084.15-.014.235-.055-.016-.073,0-.055.062-.064-.023-.075.006-.062.061-.055-.015-.071.011-.061.061-.1-.017-.119.045-.122.124C469.52,718.629,469.471,718.575,469.547,718.468Zm.087.184c.064-.018.119-.045.124-.122.043,0,.063-.019.061-.061q.065,0,.061-.061c.043,0,.061-.021.061-.062l.237-.181a1.572,1.572,0,0,1,.127-.612c.1-.052.163-.123.123-.244.1.019.112-.047.122-.117.009,0,.022.011.021.013-.17.583.118,1.3-.506,1.749l.226.015c.01.161-.162.142-.219.236.164.118.317.231.473.339a.127.127,0,0,1,.023.015.119.119,0,0,1,.018.167c-.056.07-.107-.005-.148-.039a.935.935,0,0,0-.855-.2c-.088.021-.212.048-.221-.078s.12-.074.191-.081a.778.778,0,0,0,.487-.145.923.923,0,0,1-.724-.065c-.118-.049-.19-.124-.007-.217A2.109,2.109,0,0,0,469.633,718.652Zm-1.171-1.587c.371.252.374.738.752.911h0c.065.158.131.316.194.476.047.12-.017.206-.1.319a1.961,1.961,0,0,1-.216-.6.3.3,0,0,0-.249-.262h0a1.234,1.234,0,0,0-.33-.488C468.4,717.342,468.507,717.215,468.463,717.065Zm.147,1.929a.345.345,0,0,0-.188-.287h0c-.069-.218.38-.311.136-.586a.821.821,0,0,0-.2.59h0c-.058.116.012.258-.073.381-.142-.1-.093-.254-.122-.38h0q.013-.086.026-.172h0a.547.547,0,0,0,.12-.306h0l.062-.121h0l.062-.129h0c.07-.088.155-.2.211,0,.048.175.113.116.2.044h0c.321.26.25.622.269.962-.115-.056-.086-.162-.109-.244-.157.134.06.431-.219.518h0l-.013-.185h0a.457.457,0,0,0-.031-.509v.511h0C468.629,719.146,468.613,719.057,468.609,718.993Zm.658,1.425c-.132,0-.264.008-.394-.005a.239.239,0,0,1-.234-.2c-.024-.137.092-.161.166-.221s.159-.043.2-.149c-.428.019-.147-.3-.226-.455.043-.065.206.142.195-.1,0-.088.156-.133.213.008A1.268,1.268,0,0,1,469.267,720.418Z" transform="translate(-454.368 -684.375)" fill="url(#linear-gradient-5)"/>
        <path id="Path_593" data-name="Path 593" d="M514.969,734.228l0,0h0Z" transform="translate(-499.156 -700.442)" fill="url(#linear-gradient-6)"/>
        <path id="Path_594" data-name="Path 594" d="M374.9,402.4a.307.307,0,0,0,.118-.161c.189-.263.426-.61.515-.73a.619.619,0,0,1,.331-.275l.077.066c.089.067.174.139.267.2a.6.6,0,0,0,.907-.146,3.353,3.353,0,0,0,.528-1.739c-.195.205-.375.408-.689.385a3.14,3.14,0,0,0-.395.021.745.745,0,0,0-.763.908c.008.075.014.15.021.224a3.182,3.182,0,0,0-.86,1.079.458.458,0,0,0-.1.185l0,0-.007,0h0s0,.007,0,.011h0c-.045.048-.089.1-.136.144s-.081.191-.2.148c-.08-.029-.089-.129-.1-.21a1.894,1.894,0,0,1-.035-.633h0a.773.773,0,0,0,.535-1.3,1.057,1.057,0,0,1-.13-1.143,1.386,1.386,0,0,0-1.053,1.152,1.105,1.105,0,0,0,.48,1.3h0a6.613,6.613,0,0,0,.173.984,1.425,1.425,0,0,1,.022.573c-.043.291-.159.332-.392.147a1.874,1.874,0,0,1-.4-.638.444.444,0,0,0-.488-.276.657.657,0,0,0-.09-.008c-.549.1-1.052.343-1.586.487-.141.038-.076.115-.035.18a1.791,1.791,0,0,0,1.3.8c.431.075.663-.211.888-.5.179-.134.3-.058.4.131a2.022,2.022,0,0,1,.239.776.985.985,0,0,1-.231.754c-.214-.524-.3-.581-.756-.534.478.127.581.254.605.777a3.531,3.531,0,0,1-.031.422.242.242,0,0,0,.047-.037.241.241,0,0,1-.047.038c-.123.255-.242.512-.37.765a2.471,2.471,0,0,1-1.3,1.3c-.3.116-.326.115-.323-.2.09-.24.207-.543.329-.541.505.007.652-.367.582-.79a4.665,4.665,0,0,0-.742-1.714,1.462,1.462,0,0,1-.246.838,3,3,0,0,0-.285.429.738.738,0,0,0,.268,1.139c.1.066.082.425.065.657a.877.877,0,0,1-.36.36,6.846,6.846,0,0,1-1.419.521c-.525.105-1.07.083-1.589.233-.106.137-.232.148-.322.046.089.1.215.09.321-.047-.111-.036-.333.081-.288-.173.074-.436.176-.867.265-1.3.017-.083.056-.13.145-.088.277.131.679.091.728.533h0a.735.735,0,0,0,.953.345c.32-.113.625-.272.992-.436a3.064,3.064,0,0,1-.886-.886.589.589,0,0,0-1.061.222h0c-.066.065-.042.151-.052.229s-.057.11-.145.092a.931.931,0,0,1-.655-.851c0-.237.095-.215.24-.133-.208-.538-.233-.466.353-.623l.014.011.056.025h0a.424.424,0,0,0,.252.24h0a.568.568,0,0,0,.6.057c.716-.278,1-.757,1.005-1.72a.466.466,0,0,1-.657.211,2.6,2.6,0,0,0-.592-.129.609.609,0,0,0-.737.512c-.069.224-.013.455-.067.677h0c-.112.057-.2.188-.355.113s-.1-.229-.107-.353a3.509,3.509,0,0,0-.108-.913.7.7,0,0,0,.467-.425h0a.455.455,0,0,0,.044-.409,3.61,3.61,0,0,0-1.108-1.585,1.366,1.366,0,0,1,.016.928,3.674,3.674,0,0,0-.052.876.54.54,0,0,0,.4.569h0a.345.345,0,0,0,.219.047c0,.287.022.757,0,1-.01.11.144.366-.185.293a.031.031,0,0,0-.022.005,1.109,1.109,0,0,0-.226-.2l-.02.017.019-.017a1.071,1.071,0,0,1-.133-.332c-.048-.73-.24-.844-.929-.574-.028.011-.055.025-.083.037-.372.162-.74.355-1.176.04a3.425,3.425,0,0,0,.7,1.171.833.833,0,0,0,1.4-.193c.05-.089.085-.154.2-.129h0c.016.007.175.145.236.193a.039.039,0,0,0,.005.044c.124.188-.037.343-.078.512-.12.067-.458.346-.588.423l-.016-.029c-.512-.36-.847-.283-1.012.239a2.517,2.517,0,0,0-.083.354,1.5,1.5,0,0,1-.617,1.186,5.667,5.667,0,0,0,1-.049,1.291,1.291,0,0,0,1.058-.851.546.546,0,0,0-.263-.739,1.871,1.871,0,0,1,.218-.207c.108-.007.158-.1.214-.174l-.019,0,.034-.033,0,.024c.02-.009.054-.014.02-.039a.455.455,0,0,0,.072-.091c.107-.022.127-.162.263-.148,0,.286.019.568,0,.847a3.033,3.033,0,0,1-.426,1.628.211.211,0,0,1,.167.071.21.21,0,0,0-.167-.07,4.689,4.689,0,0,1-2.252.645c-.53,0-.53-.009-.425-.5,0-.016-.01-.036-.028-.089a.239.239,0,0,1-.323.063.219.219,0,0,1-.157-.023.222.222,0,0,0,.156.023.343.343,0,0,0-.185-.129.83.83,0,0,1-.067-.15.127.127,0,0,1,.1-.066c.1.048.133.349.252.15.162-.27.476-.532.288-.9a2.371,2.371,0,0,0-.677.738c-.053.041-.052.147-.152.131,0-.081,0-.162,0-.242-.022-.43-.166-.9.357-1.162a.107.107,0,0,0,.053-.131c-.032-.071-.1-.042-.161-.051-.077-.013-.183.037-.221-.046s.047-.166.1-.237c.085-.111.22-.182.269-.333-.127-.026-.283.143-.361-.006-.094-.178.123-.187.209-.266.028-.025.071-.05.03-.095-.073-.083-.143-.042-.212.01-.05.043-.093.06-.126.038.033.021.076,0,.125-.039a.222.222,0,0,1-.172-.045v-.254h0c.059-.042.168-.022.163-.143,0-.056,0-.121.094-.114.365.024.411-.271.571-.534-.227.069-.476-.039-.5.277,0,.066-.137.064-.217.071h0c-.057-.054-.166-.135-.1-.19.26-.206.29-.612.646-.726h0v-.347a.214.214,0,0,0-.118.166h0l-.188.116h0a.168.168,0,0,0-.111.129h0l-.267.317c.057-.336-.1-.612.092-.86.024-.031.007-.043-.01-.069-.187-.3-.139-.442.2-.547.112-.035.136-.143.22-.194h0c.407-.122.406-.147-.067-.716.069.2.093.357-.054.479a.124.124,0,0,1,.106.059.124.124,0,0,0-.105-.058h0a.1.1,0,0,1,0,.017.1.1,0,0,1,0,.015.106.106,0,0,0,0-.032.149.149,0,0,0-.111.122h0a.042.042,0,0,0-.019.04c0,.029,0,.054-.025.047.02.006.023-.019.025-.047a.118.118,0,0,0-.052.028l-.084-.067a.108.108,0,0,1-.049-.012.107.107,0,0,0,.048.011c.009-.055.054-.127-.01-.159s-.08.039-.093.09h0l-.07-.057v0q.027-.181.055-.363h0a1.37,1.37,0,0,1,.906-.754c.352-.139.4-.1.4.258,0,.011.016.022.024.033.062-.092.1-.25.226-.2s.116.2.079.321c-.029.1-.059.194-.092.29a.676.676,0,0,0,.016.619,3.649,3.649,0,0,0,1.4,1.052,6.365,6.365,0,0,1-.141-1.621c-.013-.649-.3-.823-.873-.527-.133.069-.163.008-.2-.08-.071-.173.037-.248.178-.282.384-.093.774-.166,1.156-.269.593-.161,1.217-.118,1.817-.251.005.168.089.737,0,.828a.765.765,0,0,0-.13.771,1.77,1.77,0,0,0,1.761,1.006,2.325,2.325,0,0,1-.429-1.588c-.014-.5-.2-.613-.692-.521-.116.022-.373-.358-.5-.5a2.655,2.655,0,0,0,.347-.1,4.828,4.828,0,0,1,1.018-.171c.215-.03.394,0,.323.363.117-.178.178-.332.363-.216.168.106.4.112.387.423-.036.81.2.967.956.7.048-.017.094-.039.142-.055a1.044,1.044,0,0,1,.783-.077,1.856,1.856,0,0,0-.524-.972.713.713,0,0,0-1.121-.05c-.081.069-.139.147-.255.058-.088-.068-.2-.118-.193-.251s.1-.168.2-.2a4.461,4.461,0,0,0,1.419-.814,18.911,18.911,0,0,1,1.681-1.31c.211-.127.4-.273.645,0-.174-.31.053-.337.219-.4.229-.085.23.065.263.231.054.27.132.559.462.614a.772.772,0,0,0,.769-.331,3.21,3.21,0,0,1,.64-.733,1.371,1.371,0,0,1-.968-.383c-.382-.278-.7-.234-.917.171-.151.282-.385.3-.626.342-.163.031-.2-.051-.144-.193a2.746,2.746,0,0,0,.251-.585l-.106-.051.106.051a10.376,10.376,0,0,0,.638-1.893l0,0s0-.008,0-.013a1.006,1.006,0,0,0,.025-.179c-.008.012-.017.03-.027.05-.023-.3-.152-.523.179-.528.05.26.384.635.243.876-.218.37-.16.609.212.8a1.624,1.624,0,0,1,.861.849,2.7,2.7,0,0,0,.016-1.672c-.09-.2-.209-.436-.476-.4a.884.884,0,0,1-.849-.452h0c-.126-.179.134-.319-.068-.376-.048.01-.1-.009-.151,0,.049-.009.1.01.152,0,0-.19.167-.349.107-.552h0a.129.129,0,0,1,.1-.125c.469-.167.547-.468.222-.851a3.4,3.4,0,0,0-.89-.7,1.312,1.312,0,0,1-.1.869c-.128.37-.053.546.3.706.083.037.168.068.253.1h0c0,.46-.064.509-.484.383a1.664,1.664,0,0,0-.176-.034.693.693,0,0,0-.644-.658,2.9,2.9,0,0,1-1.3-.4,6.4,6.4,0,0,0,.649,1.417.685.685,0,0,0,.755.381c.328-.043.492-.215.585-.6h0c.148-.021.249.107.386.121h0l-.011.153a.091.091,0,0,1-.038.031c-.02.122.043.25-.025.369h0a.281.281,0,0,0-.106.132,2.992,2.992,0,0,0-.313.339.641.641,0,0,1-.43.034.828.828,0,0,0-.973.7c-.09.368-.113.776-.615.878a3.85,3.85,0,0,0,1.3-.034,1,1,0,0,0,.782-1.327c-.021-.068.017-.117.02-.175l0,0a3.166,3.166,0,0,0,.325-.4.4.4,0,0,0,.075-.086h0c.128.067.044.183.079.3-.191.437-.609,1.7-.735,1.9h0l-.567.7c-.17-.006-.123-.226-.354-.2.338.4.032.617-.18.865-.105.123-.211.247-.321.367a1.725,1.725,0,0,1-.45.36c-.1.051-.218.086-.219-.079,0-.291-.084-.585.239-.816a.6.6,0,0,0,.035-1.046c-.357-.323-.742-.615-1.126-.931a7.669,7.669,0,0,0-.127,1.046.931.931,0,0,0,.676,1.082.247.247,0,0,1,.191.288,1.349,1.349,0,0,1-.749,1.2,6.193,6.193,0,0,1-2.447.66h0l-.333.01c-.1,0-.175-.025-.133-.138.118-.312.093-.653.19-.985a.44.44,0,0,0,.277.056c-.261-.315-.256-.335.127-.438v0c.123.065.133.2.175.307a.509.509,0,0,0,.59.368,2.276,2.276,0,0,0,1.459-1.03,3.262,3.262,0,0,1-1.353-.472.428.428,0,0,0-.513.053,1.022,1.022,0,0,0-.36.476h0c-.095.067-.08.276-.228.242-.175-.041-.118-.766-.194-.973a1.529,1.529,0,0,0,.171-.081.5.5,0,0,0,.289-.633,2.031,2.031,0,0,0-1.25-1.149.7.7,0,0,0,0,.163,2.074,2.074,0,0,1,.1,1.253.339.339,0,0,0,.107.361.51.51,0,0,0,.56.1c-.025.222-.04.867-.21.873-.192.007-.192-.172-.258-.286a.714.714,0,0,0-.053-.071q0,.235-.006.469c0-.156,0-.313.006-.469-.17-.5-.4-.6-.867-.348a.679.679,0,0,1-.693.021c-.142-.076-.286-.149-.451-.236a2.635,2.635,0,0,0,.393.96,1,1,0,0,0,1.61.176h0c.125-.082.275-.229.4-.065.144.2-.157.17-.2.288.22.038.235.046.214.229a2,2,0,0,1-.285.952h0a4.585,4.585,0,0,1-2.421.376,2.359,2.359,0,0,1,.44-.757.69.69,0,0,0,.144-.713,2.436,2.436,0,0,0-1.063-1.144,1.205,1.205,0,0,1,0,.929.885.885,0,0,0,.21,1.082c.143.114.253.246.176.443a.461.461,0,0,1-.445.265,6.841,6.841,0,0,0-1.359.121.148.148,0,0,1-.193-.144c-.013-.107.073-.274.109-.247.2.152.171-.091.23-.14.109.072.077.252.252.224-.039-.483.369-.767.566-1.214-.339.126-.586.257-.658.586-.014.066.025.16-.056.188a.215.215,0,0,1-.169-.047c-.075-.06-.05-.147-.016-.223s.069-.124.1-.186c-.023-.036-.046-.073-.07-.109l0-.015-.015,0c-.065,0-.083.034-.1.076.013-.042.031-.079.1-.076-.027-.067-.011-.153-.088-.205a.632.632,0,0,0-.059.377h0a1.677,1.677,0,0,1-.15.616c-.153-.319-.506-.634-.115-1.02.005,0-.013-.034-.02-.049-.091.012-.216.188-.258,0-.035-.156-.14-.39.157-.475.127-.036.177-.091,0-.187a.413.413,0,0,1-.192-.409,3.5,3.5,0,0,1,.189-1c.182-.03.371-.088.382.063.015.195.063.408.284.46a1.515,1.515,0,0,0,1.38-.273c.108-.089.135-.158-.008-.252a3.53,3.53,0,0,1-.658-.54.437.437,0,0,0-.6-.081c-.191.12-.5.386-.724.556l-.012-.014-.028.041,0,0h0l0,0c-.117.011-.191-.017-.192-.159a2.2,2.2,0,0,1,.089-.782.4.4,0,0,1,.2-.252,7.819,7.819,0,0,1,1.649-.612.4.4,0,0,1,.351.026c.132.1.206.138.279.1.017.209.1.533.006.609a.391.391,0,0,0-.125.487,1.336,1.336,0,0,0,1.724.685,1.943,1.943,0,0,1-.573-.908c-.067-.329-.217-.576-.607-.538-.048,0-.271-.276-.375-.372a.676.676,0,0,0,.076-.087.242.242,0,0,1,.218-.088,9.483,9.483,0,0,0,2.594-.247c-.011.1-.1.28.129.159a.285.285,0,0,1,.389.092c.081.087.177.16.266.24h0c-.138.18-.308.327-.239.612a1.344,1.344,0,0,0,1.131,1.042c.235.034.318,0,.225-.255a1.538,1.538,0,0,1-.045-.481,6,6,0,0,0-.021-.849c-.071-.43-.255-.523-.619-.293a.589.589,0,0,1-.309.11.1.1,0,0,1-.073.107.1.1,0,0,0,.073-.107c-.151-.179-.469-.194-.494-.5h0a8.346,8.346,0,0,0,1.348-.786.56.56,0,0,1,.437-.077c.025.121.08.262.106.378a.644.644,0,0,0,.773.591,1.748,1.748,0,0,0,1.1-.527c.078-.073.122-.14-.02-.2a4.47,4.47,0,0,1-.867-.555.5.5,0,0,0-.8.166.271.271,0,0,1-.268.119c-.063-.113,0-.2.079-.3a4.055,4.055,0,0,0,.693-1.047h0a2.705,2.705,0,0,0,.348-.74,1.872,1.872,0,0,1,.246-.553c.069-.092.133-.232.276-.078l.1-.294-.1.294c-.141.592-.031.8.513.9a1.658,1.658,0,0,0,1.043-.292c-.326-.192-.355-.225-.447-.48-.193-.534-.468-.65-1.012-.425h0c-.17.007-.245.2-.424.219a2.573,2.573,0,0,1-.038-.275c-.011-.305.223-.615.458-.614h0l.062.042a.363.363,0,0,0,.473-.07,1.721,1.721,0,0,1,.75-.535,3.72,3.72,0,0,0-.8-.376.64.64,0,0,0-.686.089.473.473,0,0,0-.049.615c.012.024,0,.06,0,.09a.1.1,0,0,0,.022.034.1.1,0,0,1-.023-.034c-.062.127-.121.254-.186.379-.045.088-.1.146-.212.078a.62.62,0,0,1-.191-.983h0a.782.782,0,0,0,.29-.263c.072-.1.166-.223.042-.323a.864.864,0,0,1-.293-.8,1.356,1.356,0,0,0-.416.53.56.56,0,0,0,.212.788.666.666,0,0,0,.052.89c.053.068.149.134.084.236a.277.277,0,0,1-.266.118,1.856,1.856,0,0,1-.25-.057l-.009-.01c-.469-.291-.68-.234-.906.255a5.074,5.074,0,0,0-.349,1.057,4.806,4.806,0,0,0,1.1-.11.652.652,0,0,0,.466-.978l0,0c.043-.178.224-.176.334-.186.129-.012.1.171.128.268a1.289,1.289,0,0,1-.005.6,3.349,3.349,0,0,1-.418.9l.08.083-.08-.083a13.633,13.633,0,0,1-1.232,1.295,3.055,3.055,0,0,1-1.636.8c-.216.032-.409,0-.481-.251h0c0-.269.059-.511.292-.613a.971.971,0,0,1-.186-.188c-.011-.015.34-.229.446-.307a.872.872,0,0,1,.121.259c.063.309.194.385.5.321.631-.132.847-.676,1.126-1.153.072-.123-.048-.13-.126-.132a4.138,4.138,0,0,1-.982-.184c-.457-.121-.726.1-.7.574a.335.335,0,0,0,.05.293,4.925,4.925,0,0,1-.519.189,1.964,1.964,0,0,1-.141-.788c.064-.086.168-.094.259-.131a.518.518,0,0,0,.307-.738,1.2,1.2,0,0,0-.224-.322,1.17,1.17,0,0,1-.41-.811,1.136,1.136,0,0,0,.009,2,3.306,3.306,0,0,1,0,.706l-.175-.256h0a.711.711,0,0,0-1.259-.231c-.22.212-.329.511-.567.707-.1.081-.02.124.036.157.739.426,1.188.5,1.674-.243a.488.488,0,0,0,.033-.041.458.458,0,0,1-.033.042c.113-.053.223-.058.289.065.1.186-.188.114-.173.249.35.066.386.142.217.462-.019.036-.041.07-.061.1h0a2.331,2.331,0,0,1-.882.39c-.73.184-1.5.042-2.222.286-.007,0-.024-.024-.038-.04,0-.136.144-.188.19-.3a.533.533,0,0,1-.248-.231.532.532,0,0,0,.249.231.249.249,0,0,0,.148-.208c-.137.012-.282.134-.346-.027-.046-.115.095-.156.175-.213.04-.028.131-.043.071-.12l0,0a.113.113,0,0,0-.158-.029.345.345,0,0,1-.374,0h0l-.007-.073v0c-.016-.248.4-.187.312-.484.142.066.149.188.2.284.039.079.112.075.184.066a.1.1,0,0,0,.1-.1c.005-.075.009-.15-.1-.125l-.061-.06c.077-.169.294-.258.279-.5-.149.035-.364-.112-.387.2-.006.087-.14.105-.234.075-.063-.02-.159-.031-.15-.122.016-.156.135,0,.185-.05a.175.175,0,0,0,.051-.1.532.532,0,0,1,.452-.531c.059-.014.166-.108.115-.137-.268-.154.011-.354-.055-.53-.3.563-.719.974-.85.871-.115.348.094.772-.233,1.094.074,0,.145.013.18.071-.035-.057-.1-.066-.179-.068l-.045.071c-.043.046-.024.144-.129.151l-.027-.332c-.426.51-.475.768-.175,1,.009-.067.018-.122.021-.178,0-.107.081-.1.153-.1a.258.258,0,0,1,.247.192c.022.051.065.137,0,.162-.359.13-.646.441-1.095.358-.267-.049-.332-.157-.278-.382a2.253,2.253,0,0,0,.051-.783,1.35,1.35,0,0,1,.232-.983.907.907,0,0,0,.082-.209c-.115-.018-.251.027-.286-.12-.069-.288-.158-.586.069-.839.092-.1.061-.173.032-.27a.971.971,0,0,1,.524-1.105c.257-.122.311.126.409.212.119.106-.056.206-.163.248a.548.548,0,0,0-.349.633,6.9,6.9,0,0,1,.184,1.314c.289-.355.526-.642.758-.934a.588.588,0,0,0-.05-.934,1.377,1.377,0,0,1-.286-.425.2.2,0,0,1,.11-.314,3.625,3.625,0,0,1,.937-.35v-.213l-.127-.13a1.54,1.54,0,0,0,.038-.343c.01,0,.017,0,.019,0,.108-.222.24-.144.378-.035.05-.21-.176-.2-.228-.329.088-.1.185-.054.28-.028h0l.113.1c.514.473,1,.327,1.186-.357a.881.881,0,0,0,.038-.484.788.788,0,0,1-.585-.061c-.448-.177-.568-.119-.739.314-.041.1-.093.2-.14.3l.088.127-.089-.127c-.074.028-.168.121-.168-.064a2.124,2.124,0,0,0-.036-.557.681.681,0,0,0,.505-.912,2.946,2.946,0,0,0-.812-1.258,1.435,1.435,0,0,1-.251,1.214.793.793,0,0,0-.115.31.572.572,0,0,0,.606.661l.052-.012c-.025.189-.042.533-.07.681-.014.075-.025.184-.14.146-.211-.07-.555,0-.477-.409.006-.031-.028-.07-.045-.1h0a.457.457,0,0,0-.341-.422,1.285,1.285,0,0,1-.817-.624,4.63,4.63,0,0,0,.058,1.366.7.7,0,0,0,.509.55.522.522,0,0,0,.577-.239h0l.028-.009c.284-.087.275-.082.4.153a.605.605,0,0,0,.165.094,1.475,1.475,0,0,0-.1.354H366c-.086.079-.108.231-.259.236a2.968,2.968,0,0,0-1.6.605c-.136.094-.2.054-.213-.1a10.1,10.1,0,0,1-.1-3.061c.053-.242.046-.465.332-.532-.048-.12-.163-.021-.207-.108.035-.076.166-.1.129-.219-.087-.019-.144.124-.24.045-.012-.112.229-.18.1-.263-.179-.121-.095-.256-.077-.375.041-.27.116-.535.177-.8l.039-.067a.032.032,0,0,0,.019-.033l0,0,.057-.087v0a.671.671,0,0,1,.424-.176.264.264,0,0,1,.248.177.183.183,0,0,1-.084.271.3.3,0,0,0,.086,0,.3.3,0,0,1-.086,0c-.367.078-.377.407-.279.645a7.265,7.265,0,0,0,.65,1.134,6.82,6.82,0,0,0,.461-1.156c.123-.519-.019-.7-.534-.745a.664.664,0,0,1-.072-.1c-.043-.089-.154-.155-.061-.29a.249.249,0,0,1,.272-.109,1.775,1.775,0,0,0,.718-.094.329.329,0,0,1,.435.174c.086.177.21.356.006.534h-.006c-.269.3-.161.655.265.848a2.044,2.044,0,0,0,1.289.023c-.476-.181-.537-.621-.82-.878h0a.433.433,0,0,0-.314-.148.5.5,0,0,1-.291-.56c.077-.211.264-.158.428-.079l.014-.023-.014.024.052.126h0a.228.228,0,0,0,.112.189h0a.163.163,0,0,0,.126.124h0a.635.635,0,0,0,.963-.549c-.347.145-.6-.076-.876-.2a.3.3,0,0,0-.236.1.3.3,0,0,1,.237-.1c-.116-.127-.253-.122-.321.02a.287.287,0,0,1-.365.169.3.3,0,0,1-.245-.3.875.875,0,0,0-.175-1.522c-.073.178-.138.359-.219.533-.249.534-.224.65.237,1h0c.122.227.122.367-.2.369a5.548,5.548,0,0,0-.781.086c-.27.039-.367-.072-.328-.319h0c.531-.316.624-.714.255-1.132a.66.66,0,0,1-.385.517c-.2.1-.326.245-.234.49h0a.107.107,0,0,0,0,.018.113.113,0,0,0,.113.112h0l.013.012h.037c.125.146.168.269-.092.347a1.488,1.488,0,0,0-.545.325.158.158,0,0,1-.15-.074,2.077,2.077,0,0,1-.3-1.192c.007-.311.279-.371.484-.525h0c.28-.127,1.005-.175,1.071-.639a1.024,1.024,0,0,0-.482-1.047c.012.351-.408.352-.455.665s-.068.709-.13,1a.41.41,0,0,1-.361-.288,2.677,2.677,0,0,1-.166-1.045.465.465,0,0,1,.3-.453.321.321,0,0,0,.188-.511c-.161-.311-.359-.6-.557-.93-.128.331-.347.575-.488.864-.1.2-.18.418.082.553a.639.639,0,0,1,.332.663,3.612,3.612,0,0,1-.136.777.427.427,0,0,1-.4.365,4.709,4.709,0,0,1-.166-.609.513.513,0,0,0-.193-.711.557.557,0,0,1-.242-.342,1.116,1.116,0,0,0-.465.888.435.435,0,0,0,.339.506c.178.038.608.26.708.278.521.3.562.389.481.966-.013.09-.018.182-.027.273v0q-.129.276-.256.553a.326.326,0,0,0,.209-.114.324.324,0,0,1-.211.116l-.1.012v0a2.639,2.639,0,0,0-.572-.342c-.244-.093-.257-.191-.057-.375a.385.385,0,0,0-.07-.671,1.379,1.379,0,0,1-.538-.484.753.753,0,0,0,.231,1.081c.1.069.194.122.141.261a.246.246,0,0,1-.3.148c-.322-.038-.644-.08-.968-.111a.142.142,0,0,1-.147-.16.649.649,0,0,1,.23-.275.507.507,0,0,0,.2-.642c-.089-.271-.227-.526-.375-.861-.1.128-.166.218-.238.3a.827.827,0,0,0,.026,1.255.259.259,0,0,1,.055.2l-.182.125c-.115-.016-.252.048-.328-.109-.1-.211-.249-.2-.422-.078a.9.9,0,0,1-.643.232c-.267-.043-.188.09-.124.214a.626.626,0,0,0,1.114.031.378.378,0,0,1,.4-.239v0l.122.063.009.061c.045-.009.11-.015.078-.081a.041.041,0,0,0-.02-.021.04.04,0,0,1,.02.021c.032.066-.033.071-.078.081a.532.532,0,0,0-.087.338v0a.254.254,0,0,1-.245.26h0a.344.344,0,0,0-.328.123,2.7,2.7,0,0,1-.726.894,2.348,2.348,0,0,0,1.149-.036.728.728,0,0,0,.464-.526c.045-.225-.119-.348-.3-.446.015-.048.03-.1.046-.144.163-.481.233-.516.73-.4a1.287,1.287,0,0,0,.42.048.626.626,0,0,1,.453.127h0c.044-.007.1-.006.092-.073a.027.027,0,0,0-.007-.012.028.028,0,0,1,.008.012c0,.067-.048.066-.092.073-.076.161-.105.36-.337.386-.391.043-.48.178-.4.6v0a5.328,5.328,0,0,0,.455,1.307,11.594,11.594,0,0,0,.648-1.134c.152-.356.072-.541-.292-.679h0c-.128-.093-.094-.2-.032-.316a.261.261,0,0,1,.283-.118c.266.018.385.218.518.4v.005a.03.03,0,0,0,.01.035h0a.687.687,0,0,0,.112.37v0h0v0h0c.02.149.045.3.06.447a.42.42,0,0,1-.01.236c-.1.16-.108.153.028.279v.077c-.084.019-.148-.1-.242-.038.014.1.082.135.165.154a.13.13,0,0,0,.056-.045.129.129,0,0,1-.057.047.175.175,0,0,1,.011.047l-.27.019a.23.23,0,0,0,.275.156v0a8.087,8.087,0,0,1,.181,1.557c-.042.628-.145,1.251-.208,1.878-.026.257-.118.243-.3.121a2.762,2.762,0,0,0-1.614-.558.149.149,0,0,1-.046,0,2.326,2.326,0,0,1-.18-.314c-.046-.119-.257-.293.066-.352.054-.01.021-.048.011-.067-.1-.188.066-.141.147-.157a.531.531,0,0,1,.318.074h0a.572.572,0,0,0,1.022-.205,2.716,2.716,0,0,0,.075-1.393,1.249,1.249,0,0,1-.785.53.331.331,0,0,0-.191.141h0a.21.21,0,0,0-.124.19h0c-.013.007-.015.016-.007.027h0a.655.655,0,0,0-.1.368c-.042.286-.31.113-.457.206-.118.075-.13-.1-.137-.165-.023-.229-.022-.46-.03-.69a.2.2,0,0,0-.043-.081.2.2,0,0,1,.044.081.428.428,0,0,0,.523-.186.583.583,0,0,0,.028-.658,1.849,1.849,0,0,1-.311-1.278,2.846,2.846,0,0,0-.794,1.264.651.651,0,0,0,.221.758h0c.325.068.3.3.245.537-.017.075.026.185-.053.221-.107.048-.132-.094-.208-.134h0c-.148-.606-.275-.678-.835-.46a.69.69,0,0,1-.572.013c.02.156.029.275.053.391a.833.833,0,0,0,.515.726c.323.107.534-.1.744-.29l.088-.083h0c.081,0,.179-.062.246.065-.1.093-.272.145-.226.344.246-.215.336-.192.4.1a.474.474,0,0,1-.01.359.042.042,0,0,0-.022.014h0a3.367,3.367,0,0,1-1.61-.176,2.51,2.51,0,0,1-1.071-.477c-.057-.048-.133-.088-.119-.193.01-.075.17.013.1-.1a.14.14,0,0,0-.193-.032c-.193.137-.273-.006-.353-.133a2.142,2.142,0,0,1-.27-.673c-.016-.069-.053-.165.016-.2.172-.078.034-.171,0-.193.172-.024.479-.148.571-.03a.542.542,0,0,0,.9-.049,1.019,1.019,0,0,1,.767-.618,1.545,1.545,0,0,0-2.264.684c-.209-.091-.15-.268-.12-.427a3.1,3.1,0,0,1,.217-.671c.112-.047.22-.1.335-.14a.557.557,0,0,0,.405-.408,1.694,1.694,0,0,0-.106-1.082,1.56,1.56,0,0,1-.507.579c-.484.383-.49.432-.2.964a.25.25,0,0,1,.012.082.941.941,0,0,0-.192.517,1.56,1.56,0,0,1-.144.651.446.446,0,0,1-.089-.3.644.644,0,0,0-.792-.623,1.443,1.443,0,0,0-.728.347.486.486,0,0,1,.513.25.731.731,0,0,0,.73.334.411.411,0,0,1,.388.245c.068.107-.073.156-.139.2-.132.081-.23.336-.446.124h0c-.117-.227-.273-.448-.554-.362-.328.1-.634.247-.975,0a2.759,2.759,0,0,0,.707.981c.168.144.358.239.572.074h0a.571.571,0,0,0,.354-.347.43.43,0,0,1,.481-.267,1.034,1.034,0,0,1,.558.595c.025.253-.192.272-.349.347l.074.029-.074-.029-.14.011h0v0a.033.033,0,0,0-.045-.009h0l-.125-.023a.246.246,0,0,1-.034.143.245.245,0,0,0,.033-.142c-.266-.073-.415.052-.5.292h0a.453.453,0,0,0,0,.458c0-.153,0-.305,0-.458h0c0,.152,0,.305,0,.458.028.467.283.873.335,1.368a6.848,6.848,0,0,0,.735-.853.788.788,0,0,0,.12-.747c-.038-.135-.09-.267-.135-.4h0c.269-.291.507-.071.723.068a3.659,3.659,0,0,0,.906.408c.425.131.465.225.272.634-.026.055-.059.106-.087.159h0a.209.209,0,0,0-.14.122h0a.617.617,0,0,0-.11.8,2.9,2.9,0,0,0,1.028.871,1.4,1.4,0,0,1,.081-1.185.482.482,0,0,0-.072-.614c-.2-.181-.393-.092-.586.013h0c-.012-.521.1-.645.615-.652.238,0,.479.023.718.037v0c.212.068.431.121.635.209.506.215.539.423.15.833a1.953,1.953,0,0,0-.187.2.474.474,0,0,0-.06.544,11.273,11.273,0,0,0,.9,1.156,5,5,0,0,1,.166-1.137c.079-.462.032-.567-.369-.815-.1-.065-.219-.161-.122-.257.131-.128.265-.326.524-.134a.974.974,0,0,1,.41,1.03.324.324,0,0,0,.06.329c.17.231.134.84-.062.891-.237.062-.153.169-.083.268a1.307,1.307,0,0,1,.219.957,2.183,2.183,0,0,0,.051.81c.05.213-.031.306-.258.342a1.212,1.212,0,0,1-.982-.313c-.058-.046-.242.043-.159-.158.059-.145.132-.243.305-.245s.057.222.188.253c.232-.241.184-.448-.233-.98v.318c-.2-.1-.232-.355-.415-.476.179-.285-.105-.549-.022-.837-.058.135-.109.178-.181.025-.135-.286-.413-.436-.612-.684-.042.127.12.3-.111.322,0,.152.125.164.227.193a.472.472,0,0,1,.306.31c.045.1-.064.366.232.261.018-.006.053.089.01.128-.114.1-.294.133-.335-.007-.065-.225-.238-.17-.372-.226-.02-.043-.065-.066-.094-.036s.023.057.042.083c.044.273.354.371.406.646.074-.061.064-.171.162-.18.08.044-.009.194.094.193.262,0,.241.165.229.336a.486.486,0,0,1-.264.013c-.08-.024-.184-.114-.239,0s.094.117.152.166.132.079.1.162-.12.089-.2.062c-.054-.017-.1-.07-.171-.032a.4.4,0,0,0,.2.246.014.014,0,0,1,0,0c.047.1.168.154.154.307a5.146,5.146,0,0,0-1.005-.176,4.653,4.653,0,0,1-2.008-.379.105.105,0,0,1-.127-.07.052.052,0,0,0-.032-.045l-.007,0a1.149,1.149,0,0,1-.1-.366c.016-.194.2-.129.3-.174-.007-.157-.269-.021-.2-.21a.177.177,0,0,1,.291-.1c.017.011.034.021.051.031h0a.878.878,0,0,0,1.285.388c.458-.2.459-.2.187-.576-.186-.261-.341-.554-.671-.672l-.071,0,.071,0c-.723-.325-.852.32-1.147.732l.042-.87c.1-.009.164-.126.231-.193a1.144,1.144,0,0,0-.285-1.834.95.95,0,0,1-.377.855.789.789,0,0,0-.256.652c.041.353.351.38.585.5a.207.207,0,0,0,.08.023c-.086.241-.117.893-.275.99-.117-.1-.439-.445-.4-.545h0l.013-.181h0a.3.3,0,0,0-.235-.362.332.332,0,0,1,.043.068.332.332,0,0,0-.043-.068.522.522,0,0,0-.412-.061,3.268,3.268,0,0,0-.585.156c-.2.074-.524-.1-.579.136-.045.189.2.4.325.6a1.177,1.177,0,0,0,.865.608c.2.021.371-.013.4-.264h0c.081-.1.049-.224.1-.329l-.021.01.021-.01.011-.01h0l.437.227-.063-.028,0,0,.126.056h0l0,0c.009.149-.053.232-.248.193.3.246.345.333.314.678h0c-.02.2-.174.191-.311.2a2.666,2.666,0,0,1-.785-.169v0a.06.06,0,0,0,0-.006,6.145,6.145,0,0,1-2.255-2.026,1.74,1.74,0,0,1-.381-1.423c.02-.1.052-.277.09-.26.123.058.32,0,.365.2h0a.7.7,0,0,0,.578,1.026c.269.044.544.044.816.071.175.017.184-.063.136-.2-.1-.276-.179-.559-.293-.828-.221-.527-.47-.588-.959-.254l-.1.053c-.056,0-.114-.014-.151.046-.288-.142-.279-.308-.089-.551a.481.481,0,0,0-.005-.688.789.789,0,0,0-.184-1.305.755.755,0,0,1-.2.616c-.236.192-.17.357.006.525.112.107.236.2.355.3a.763.763,0,0,1-.482.888c-.088.024-.229-.357-.281-.469.067-.2.188-.431.029-.661a.534.534,0,0,0-.592-.21,3.2,3.2,0,0,0-.951.409,1.817,1.817,0,0,1,.714.515c.189.2.683.179.787-.025.045.223.3.882.116.983a.514.514,0,0,0-.319-.226s0,0,0,.007,0,0,0-.007c-.546-.241-.84-.125-1.033.426a.7.7,0,0,1-.458.45,2.175,2.175,0,0,0,.682.3.824.824,0,0,0,.82-.2c.216-.209.129-.489.044-.745.078-.1.176.033.256,0a4.727,4.727,0,0,1,.214.483,5.616,5.616,0,0,0,1.11,2c.166.192.117.283-.082.346-.3-.542-.558-.588-1.074-.194-.242.184-.481.37-.729.545-.1.068-.132.112-.017.193a1.936,1.936,0,0,0,1.333.4c.335-.032.478-.187.547-.542a.553.553,0,0,1,0-.074c.011-.032.024-.063.033-.1.063-.271.173-.342.425-.237a2.053,2.053,0,0,1,.359.221,2.247,2.247,0,0,0,.623.362v0c.1.049.2.1.3.144.22.1.219.212.04.353-.241.19-.46.342-.776.084-.208-.17-.426-.046-.5.228a1.649,1.649,0,0,0-.041.3,5.338,5.338,0,0,1-.077,1.3c-.052.164.067.127.157.12a1.324,1.324,0,0,0,1.233-1.12c.033-.167.051-.328-.141-.419-.06-.028-.1-.061-.067-.14.146-.38.534-.444.839-.1l-.1-.405a10.394,10.394,0,0,0,2.927.233c.2-.005-.15.515-.189.723l-.026-.021a.444.444,0,0,0-.739.244,2.044,2.044,0,0,1-.634,1.078,1.569,1.569,0,0,0,1.21-.069,1.085,1.085,0,0,0,.548-.731c.051-.277-.173-.364-.345-.49.274-.153.311-.821.664-.7.489.169,1.327.485,1.8.694a.426.426,0,0,1,.235.3,2.682,2.682,0,0,1,.084.691c0,.162-.075.21-.2.214a3.673,3.673,0,0,0-.786-.6.434.434,0,0,0-.58.079,3.53,3.53,0,0,1-.652.541c-.151.1-.132.178-.012.274a1.516,1.516,0,0,0,1.079.312c.393-.017.509-.092.569-.483.026-.174.193-.155.347-.115a2.779,2.779,0,0,1,.234,1.335c-.111.017-.095-.147-.226-.1.03.056.073.155.019.181-.184.089-.122.171.01.206.28.075.182.274.16.44-.032.245-.222-.008-.319.1.2.233.384.48.049.751h0c-.075.034-.036.163-.162.176-.128-.287-.067-.613-.163-.9-.127-.021-.047.235-.2.15a.3.3,0,0,1-.127-.347c.014-.07.144-.117.053-.206a7.152,7.152,0,0,1-.464-.724c0,.258-.1.458.187.561.121.043.141.263.037.294-.251.075-.066.156-.025.221.13.2.348.335.451.56.031.066.066.137,0,.193a.2.2,0,0,1-.194.062c-.074-.027-.04-.1-.048-.159a.624.624,0,0,0-.631-.535c.124.189.244.364.354.545a1.079,1.079,0,0,1,.2.469c0,.044-.128.093,0,.127.066.018.112-.013.139-.083.019-.05.02-.121.089-.136.143.061-.016.182.052.248.066-.043.079-.166.187-.124a.183.183,0,0,1,.1.207.979.979,0,0,1-.069.2v0a7.407,7.407,0,0,0-1.389-.123.809.809,0,0,1-.293-.064c-.3-.129-.364-.374-.111-.587a.933.933,0,0,0,.273-1.123,1.187,1.187,0,0,1,.047-1.006,2.833,2.833,0,0,0-.961.9.784.784,0,0,0,.018,1.057c.122.161.225.337.334.507.1.15.056.214-.123.216a5.511,5.511,0,0,1-1.274-.077,2.129,2.129,0,0,1-.944-.307H357.9a1.857,1.857,0,0,1-.266-.946c-.006-.118-.026-.253.153-.21-.014-.134-.288-.1-.169-.265.1-.149.266-.1.387.032a.065.065,0,0,0,.026.016s0,.007,0,.011a.911.911,0,0,0,1.162.193,1.939,1.939,0,0,0,.834-1.38,1.087,1.087,0,0,1-1.389.149.373.373,0,0,0-.5.164,1.235,1.235,0,0,0-.219.5.145.145,0,0,0,0,.048c-.1.127-.223.131-.362.02-.033-.027.023-.631.011-.739.286.078.678-.183.615-.465a2.88,2.88,0,0,1,.143-1.466,2.188,2.188,0,0,0-1.118.807.652.652,0,0,0,.322,1.112l.025.008c-.029.1-.139.708-.148.744-.087.341-.192.126-.3.018h0a1.049,1.049,0,0,0-.372-.543.447.447,0,0,0-.564-.065,2.615,2.615,0,0,1-1.129.42c-.111.016-.206.042-.092.188a2.334,2.334,0,0,0,1.22.866.552.552,0,0,0,.74-.4c.041-.1.062-.217.182-.265h0c.094.05.249.028.28.144s-.125.188-.175.3c.3-.026.3-.025.333.253.012.1.031.2.046.3.072.48.073.494-.379.5a.451.451,0,0,1-.039-.029,6.041,6.041,0,0,1-2.391-.648,1.374,1.374,0,0,1-.762-1.069c-.03-.235-.008-.37.243-.461a.767.767,0,0,0,.59-.633,5.051,5.051,0,0,0-.1-1.5,3.521,3.521,0,0,1-.547.485c-.19.152-.389.3-.566.464-.413.388-.417.725.029,1.066a.762.762,0,0,1,.251.73c0,.2-.109.249-.28.139a3.561,3.561,0,0,1-.643-.6c-.287-.3-.548-.607-.3-1.059,0,0-.023-.022-.044-.042-.122.083-.12.25-.238.359a8.617,8.617,0,0,1-.931-1.2s0,.008,0,.012l0-.018,0,.006a.549.549,0,0,1,.019-.082l-.027.04v0a4.484,4.484,0,0,0-.128-.439,6.1,6.1,0,0,1-.221-1.075c0-.051-.03-.191.067-.136.064.036.1.044.118.038l.363.526.057-.057-.057.057q-.019.04-.034.082a.98.98,0,0,0,.586,1.256,3.205,3.205,0,0,0,1.468.1.732.732,0,0,1-.512-.579c-.141-.955-.535-1.1-1.359-.982l-.03,0h0c-.105-.081-.271-.349-.466-.424.01-.033-.028-.1-.037-.119-.14-.253.011-.264.2-.253.03-.111-.067-.121-.128-.162s-.164.011-.16-.088.11-.1.176-.131a.233.233,0,0,1,.225-.023c.114.448.795.7,1.078.361a5.414,5.414,0,0,0,.857-1.484,1.565,1.565,0,0,1-1.29.363.445.445,0,0,0-.521.354.3.3,0,0,0,0,.035.3.3,0,0,1,0-.035c-.04.085-.08.17-.12.256a1.674,1.674,0,0,1-.2.041c-.115.01-.235.176-.343.018a.371.371,0,0,1-.039-.456h.008c.487-.134.636-.317.515-.681a1.241,1.241,0,0,1-.083-.958,2.8,2.8,0,0,0-.256.143c-.162.122-.329.24-.478.377-.569.521-.527.811.148,1.106-.077.14,0,.267.038.4.024.087.074.191-.041.239-.173.073-.215.265-.41.386.156-.015.278-.025.176.141-.051.086-.089.18-.133.27.048.109-.059.27.061.356-.121-.086-.013-.247-.061-.356a.392.392,0,0,1-.268,0,.508.508,0,0,0-.577.233,1.678,1.678,0,0,0-.161,1.29c.011.075.061.085.135.051a6.22,6.22,0,0,0,.862-.373.5.5,0,0,0,.138-.813h0a.761.761,0,0,1,.035-.5c.043-.1.06-.242.2-.226s.109.149.13.243c.1.457.381,1.362.48,1.819v-.006a.556.556,0,0,0,.093.265c.122.234.238.471.35.71.034.072.111.21-.054.191-.237-.027-.5.016-.661-.271-.259-.475-.561-.54-1-.219a1.415,1.415,0,0,1-.924.371,2.562,2.562,0,0,1,.591.679.788.788,0,0,0,.808.376c.325-.054.394-.343.458-.616.03-.127.017-.313.245-.233.145.05.345.052.234.309a.261.261,0,0,0,.081.279c.086-.424.117-.439.476-.234a6.429,6.429,0,0,1,.87.614,7.379,7.379,0,0,0,2.364,1.58.2.2,0,0,1,.16.2c0,.133-.118.175-.209.24s-.162.013-.231-.055a.662.662,0,0,0-.8-.2,1.819,1.819,0,0,0-.872,1.2.987.987,0,0,1,.675.039,5.815,5.815,0,0,0,.58.182c.426.1.614-.032.658-.465a.724.724,0,0,0,0-.273c-.1-.35.2-.363.379-.471.206-.122.247.09.348.185.007-.334.015-.339.343-.315a4,4,0,0,1,1.139.186c.089.03.18.055.271.077-.081.092-.263.592-.334.577-.674-.136-.917-.072-.911.625a2.1,2.1,0,0,1-.328,1.272c-.03.043-.088.087-.047.155a2.3,2.3,0,0,0,1.372-.5,1.056,1.056,0,0,0,.08-1.448c-.065-.071.171-.544.183-.674a3.327,3.327,0,0,0,.663.09,9.986,9.986,0,0,1,1.62.273c.236.059.471.123.7.188.148.041.151.136.1.26-.059.143-.125.1-.23.043-.473-.268-.795-.092-.822.45a10.164,10.164,0,0,1-.061,1.278.743.743,0,0,0-.034.417,6.009,6.009,0,0,0,.847-.522c.592-.445.649-.607.443-1.319-.043-.152-.1-.344.046-.419.127-.066.172.154.276.239a.412.412,0,0,0,0-.131c-.113-.3.071-.281.252-.224.671.212,1.086.519,1.086,1.169-.062.089-.155-.144-.171,0-.04.38-.133.093-.231.036-.122-.07-.151-.223-.3-.312-.048.169.13.309.014.446.178.054.2.385.323.335.288-.115.271.109.322.229.076.183-.115.167-.229.2a.677.677,0,0,1,.1.9l-.2,0,.04.122.031.07c.012.091-.05.215.105.244.065.012.085.049.068.107s-.078.057-.125.058c-.126,0-.227-.034-.232-.179,0-.1-.008-.161-.129-.1s-.179-.084-.307-.111c.1.283.261.614.47.589.352-.043.232.238.33.346.066.073.039.29-.187.17-.1-.051-.137.011-.191.064.091.122.333.124.291.288-.049.194-.247.02-.385.044.1.236.384.32.388.6-.045.006-.086.008-.124.017-.092.02-.233-.054-.264.076-.024.1.1.163.17.235s.249.119.252.248a5.176,5.176,0,0,1-.046.941c-.006.039-.065.071-.133.105a.6.6,0,0,0-.124-.18,1.242,1.242,0,0,1-.177-.5.857.857,0,0,0-.052-.1l-.033.262c-.122-.01-.154-.107-.185-.17-.2.382.168.6.253.906-.115.057-.234.04-.354-.128a.907.907,0,0,0,.076.313c.138.249.036.3-.205.317a4.489,4.489,0,0,1-2.5-.62c-.134-.044-.186.122-.3.119-.644-.082-1.3-.114-1.928-.259a4.351,4.351,0,0,1-1.878-1.391.53.53,0,0,0,.144-.062c.586-.362.68-.74.289-1.312a1.636,1.636,0,0,1-.433-1.2,5.6,5.6,0,0,0-.679,1.374,1.646,1.646,0,0,0-.091.658.634.634,0,0,0,.753.54c.1.376.058.806-.13.729a2.169,2.169,0,0,1-1.052-.84,10.167,10.167,0,0,1-.67-1.292c.026-.436-.13-.952.564-1.121-.374-.045-.568.084-.653.384-.016.056-.008.132-.073.164a.27.27,0,0,0-.022-.018c-.051-.056-.066-.147-.154-.185a5.655,5.655,0,0,1,.224-1.471c.174-.137.3-.026.419.117a1,1,0,0,0,.623.45,1.74,1.74,0,0,0,1.579-.951c-.354-.119-.707-.24-1.061-.357-.193-.063-.386-.125-.582-.177a.5.5,0,0,0-.708.331,2.456,2.456,0,0,1-.321.543c-.347.158-.35.146-.4-.246a4.4,4.4,0,0,1,.022-.591h0v0c0-.021,0-.042,0-.064l-.006,0a1.572,1.572,0,0,1,.583-1.071.609.609,0,0,0,.191-.528A1.7,1.7,0,0,0,352,399.527a1.033,1.033,0,0,1-.018,1.364.609.609,0,0,0,.2.877c.327.2.494.255.4.614a1.054,1.054,0,0,0-.067.352l-.131.048a.533.533,0,0,0-.185-.238h0c-.012-.051-.025-.1-.072-.115a6.231,6.231,0,0,0-.66-.984h0a.573.573,0,0,0-.363-.311h0c0-.162.006-.324,0-.487a.672.672,0,0,0-.658-.7c-.431-.032-.9.051-1.182-.429a3.8,3.8,0,0,0,.344,1.446c.331.691.728.771,1.313.281h0c.246-.1.356.138.534.209h0a7.746,7.746,0,0,0,.744,1.2.823.823,0,0,0,.1.2h0a1.989,1.989,0,0,1,.032.449c-.235-.22-.658-.531-.821-.68a.437.437,0,0,0-.691-.029,1.77,1.77,0,0,1-1.055.477,1.923,1.923,0,0,0,1.127.719.688.688,0,0,0,.88-.417c.044-.084.377,0,.555.021a2,2,0,0,1-.087.437c.465.085.3.939.475,1.279l-.012,0a.744.744,0,0,1,.033.338c-.089-.168-.328-.418-.4-.581a.457.457,0,0,0-.624-.271,1,1,0,0,1-1.086-.043l-.018.019.017-.019-.033-.042c-.031.028-.018.048.012.064h0a3.33,3.33,0,0,0,.758,1.23.432.432,0,0,0,.433.166,3.792,3.792,0,0,0,.929-.347.553.553,0,0,0,.181.519c.069.058.072.208.08.318s.048.241-.12.3c-.212.076-.153.171,0,.269.084.055.154.134.234.195a5.828,5.828,0,0,0,1.981,1.217c.47.122.926.3,1.395.429a6.079,6.079,0,0,0,2.422.5.236.236,0,0,1,.138.051.918.918,0,0,0,.555.124,3.224,3.224,0,0,1,.724.079,8.819,8.819,0,0,0,1.813.484c.158,0,.1.151.1.24a5.857,5.857,0,0,1-.273,1.8c-.048.165-.094.331.1.418a1.58,1.58,0,0,1,.614.53c.2-.351.4-.693.592-1.033.1-.168.264-.255.391-.09a2.838,2.838,0,0,1,.741,1.474c.011.12.014.241.02.362a5.466,5.466,0,0,1,.737-1.127l-.089-.08c-.22.091-.308.327-.537.5.058-.137.086-.222.128-.3a1.1,1.1,0,0,0,.085-.927,3.9,3.9,0,0,1-.2-1.349c.011-.258.085-.439.381-.491s.587-.16.883-.228a21.555,21.555,0,0,1,2.794-.421,2.494,2.494,0,0,0,.33-.051c.821-.192,1.614-.476,2.415-.733a5.038,5.038,0,0,0,1.416-.534,16.058,16.058,0,0,0,1.489-1.159c.051-.045.145-.074.126-.176-.391.048-.425.011-.372-.375a1.465,1.465,0,0,1,.187-.446h0c.12-.077.334-.068.371-.26a.361.361,0,0,1,.23.014h0c.4.426.636.417,1-.044a3.22,3.22,0,0,0,.493-.83c.018-.049.1-.1.031-.155a.136.136,0,0,0-.168,0,.756.756,0,0,1-.8-.018.491.491,0,0,0-.724.313,1.089,1.089,0,0,0-.051.538h0c0,.056-.006.112-.009.169-.133.049-.289.15-.364-.065q0,.109,0,.217c0-.072,0-.144,0-.216l-.005-.1c-.093-.071-.16-.086-.2-.04.041-.047.108-.033.2.039a9.787,9.787,0,0,0,.259-1.338c.02-.158-.134-.391.109-.244.025.015.42-.594.519-.7a.086.086,0,0,0,.013.025c.16.2.175.526.525.577a1.692,1.692,0,0,0,1.586-.7,1.871,1.871,0,0,1-.609-.18,2.806,2.806,0,0,1-.489-.358.393.393,0,0,0-.528-.007,1.079,1.079,0,0,0-.328.354c-.047.082-.159.173-.173.253-.218-.168-.493.882-.525.593a9.4,9.4,0,0,1,.3-1.267Zm-10.244,2.037a.119.119,0,0,1,0,.019.094.094,0,0,1,0,.014A.106.106,0,0,0,364.652,404.433Zm.315-1.483h0c-.009.025-.01.059-.032.074.022-.015.023-.048.032-.074-.01-.019-.021-.039-.039-.038C364.945,402.91,364.957,402.931,364.967,402.95Zm-.06.081h0Zm-.005-.1a.13.13,0,0,0-.039.052A.127.127,0,0,1,364.9,402.926Zm4.7-7.527a.3.3,0,0,0,.121.031.3.3,0,0,1-.121-.031Zm-3.447-1.272a.075.075,0,0,1-.045.034A.076.076,0,0,0,366.158,394.127Zm-.042-.1c-.041.023-.07.06-.054.1C366.046,394.089,366.076,394.052,366.117,394.029Zm-4.706-5.128a1.425,1.425,0,0,0-.012.332A1.4,1.4,0,0,1,361.411,388.9Zm-2.318,2.218c.069,0,.113-.022.12-.089C359.2,391.1,359.161,391.123,359.092,391.119Zm-2.609,3.847c.034-.056.15,0,.178-.067C356.635,394.964,356.519,394.912,356.483,394.966Zm4.516.139c.038-.086.2-.059.226-.141C361.2,395.047,361.039,395.021,361,395.105Zm.414-.562c-.046.091-.145.151-.179.251.033-.1.132-.16.179-.251h0v0h0c.139-.067.312.162.433-.05h0C361.725,394.707,361.551,394.477,361.413,394.544Zm-9.213,8s0,.005,0,.008l0-.008Zm12.231,6.35c.051.045.158-.057.233-.076h0C364.589,408.84,364.481,408.942,364.431,408.9Zm3.65.055s0-.006-.006-.01l.006.009a.34.34,0,0,0,.022.031A.321.321,0,0,1,368.08,408.951Zm6.675-3.375c-.04-.047-.117-.049-.171-.078C374.639,405.526,374.716,405.529,374.756,405.576Z" transform="translate(-349.266 -380.112)" fill="url(#linear-gradient-5)"/>
        <path id="Path_595" data-name="Path 595" d="M459.726,755.339a1.9,1.9,0,0,0-1.115.475.168.168,0,0,1-.294-.072c-.1-.328-.352-.224-.559-.205a2.042,2.042,0,0,0-.525.141c-.081.031-.241-.051-.237.107a.293.293,0,0,0,.227.261,1.351,1.351,0,0,0,.865-.013.379.379,0,0,1,.446.049.857.857,0,0,0,.923.059.809.809,0,0,0,.445-.8Z" transform="translate(-446.718 -719.538)" fill="url(#linear-gradient-5)"/>
        <path id="Path_596" data-name="Path 596" d="M535.481,512.168l0,0,0,0Z" transform="translate(-517.71 -499.569)" fill="url(#linear-gradient-9)"/>
        <path id="Path_597" data-name="Path 597" d="M535.458,729.037s0,.005,0,.008l0-.007h0v-.009l0,.007Z" transform="translate(-517.693 -695.739)" fill="url(#linear-gradient-10)"/>
        <path id="Path_598" data-name="Path 598" d="M523.563,720.067a.746.746,0,0,0-.883.814c.107-.01.072-.155.178-.181v.2c.129-.205.144-.466.313-.666.114.579-.058,1-.672,1.662l-.055.032c0-.023.01-.047.014-.07l.165-.329-.042-.034c-.03.041-.058.083-.089.122-.073.089-.119.256-.264.191-.12-.053.067-.175-.015-.287a1.277,1.277,0,0,1-.688.645c.7.153.74.175,1.059.539l.044-.041a.173.173,0,0,1,0-.036.165.165,0,0,1,.178-.152c.156-.011.312-.018.467-.028h0l.053.028-.037-.043h0c-.175-.18-.354-.266-.562-.039a.2.2,0,0,1-.276.007,1.049,1.049,0,0,0-.313-.181c-.058-.019-.119-.047-.1-.126.025-.1.1-.088.17-.067a1.521,1.521,0,0,1,.227.071.547.547,0,0,0,.863-.389c.117-.417.188-.848.276-1.274a.139.139,0,0,0-.017-.109C523.415,720.2,523.413,720.2,523.563,720.067Zm-.725,1.978h0c.168-.449.418-.862.551-1.325A1.671,1.671,0,0,1,522.837,722.046Z" transform="translate(-505.089 -687.614)" fill="url(#linear-gradient-5)"/>
        <path id="Path_599" data-name="Path 599" d="M419.822,616.967c-.086.087-.154.117-.247.026h0c-.337-.393-.655-.4-.987-.01a2.774,2.774,0,0,1-.7.752c-.109.06-.118.13.017.187.261.11.516.238.781.338a.8.8,0,0,0,.882-.152.711.711,0,0,0,.13-.794h0a11.04,11.04,0,0,1,.779-.87.865.865,0,0,1-.347,1.033c.411-.18.448.025.467.261.007.09.046.178.051.269.017.322.214.616.144.95.118,0,.169-.163.3-.119a1.864,1.864,0,0,1-.324-.743,10.753,10.753,0,0,1-.074-1.657c-.005-.188.533.47.781.535a1.061,1.061,0,0,0-.172.206.622.622,0,0,0-.109.6,1.252,1.252,0,0,0,.833.824,3.422,3.422,0,0,0,1.161.087,1.44,1.44,0,0,1-.513-1.009,3.657,3.657,0,0,0-.157-.618.485.485,0,0,0-.711-.3,1.065,1.065,0,0,0-.276.162c-.157-.189-.964-1-.959-1.04.2,0,.717.024.8.129a.793.793,0,0,0,.975.281,2.087,2.087,0,0,0,1-1.366.915.915,0,0,1-.922.014,3.524,3.524,0,0,0-.624-.237c-.339-.09-.519.044-.582.39-.035.191.088.454-.137.566a3.159,3.159,0,0,1-.51.223,8.739,8.739,0,0,0,.086-1.16l.033,0c.269.018.55-.282.58-.634a3.014,3.014,0,0,0-.029-.667,1.79,1.79,0,0,1,0-1.161,3.979,3.979,0,0,0-1.071,1.424.892.892,0,0,0-.064.294.745.745,0,0,0,.507.732c-.079.312-.166,1.245-.348,1.185a.327.327,0,0,1-.232-.376.806.806,0,0,0-.092-.5c-.049.2.017.4-.025.607.042-.2-.024-.409.025-.607a.519.519,0,0,0-.576-.462,2.018,2.018,0,0,0-.626.11c-.266.079-.541.205-.753-.224.054,1.047.284,1.445.919,1.7a1.081,1.081,0,0,0,.741-.126,1.08,1.08,0,0,1-.741.126c.357.2.546.181.887-.144.2-.195.4-.07.55.019.193.112,0,.251-.067.348A3.6,3.6,0,0,1,419.822,616.967Z" transform="translate(-411.265 -590.112)" fill="url(#linear-gradient-5)"/>
        <path id="Path_600" data-name="Path 600" d="M531.173,473.349c.131-.438.256-.812.353-1.193a.931.931,0,0,0,0-.685l-.039-.045-.007-.008h0a.2.2,0,0,0-.163-.139.008.008,0,0,0,0,0h0c-.091-.116-.2-.081-.31-.037h-.371c-.309-.18-.334-.289-.129-.569.053-.073.105-.147.158-.221l-.1-.1a.6.6,0,0,0-.052.073c-.126.241-.206.544-.6.378-.06-.026-.119.04-.164.092.06.041.173-.032.187.055s-.08.163-.155.208a4.254,4.254,0,0,1-2.626.637v.214c.211-.011.421-.036.631-.032.576.011.629.061.7.637l-.053,0-.524.007h0l.523-.007c-.176-.135-.352-.189-.524.007h0a.116.116,0,0,0-.081.107h0l-.04.079a.334.334,0,0,0,.017.345,1.74,1.74,0,0,1,.171,1.178,2.263,2.263,0,0,0,.788-.571.7.7,0,0,0,.244-.646l-.021-.016a.532.532,0,0,0-.249-.429.766.766,0,0,1-.249-.568c-.005-.1.007-.169.128-.2a4.519,4.519,0,0,0,1.358-.6c.154-.1.342-.2.477.047h0c.033.218-.14.384-.14.6C530.314,472.6,530.836,472.883,531.173,473.349Zm.146-2.068h0Zm0,0c-.008.077.023.109.068.124-.046-.014-.077-.046-.069-.123Z" transform="translate(-510.184 -461.74)" fill="url(#linear-gradient-5)"/>
        <path id="Path_601" data-name="Path 601" d="M451.569,720.157c.4.57.455.736.407,1.22-.062.638.149.888.8.964.1.012.3-.093.3.074-.006.138-.207.018-.315.054a.2.2,0,0,0-.042.027c.175.1.655.09.725-.052.092-.183-.132-.28-.167-.484-.079.158.058.246-.009.349-.117-.008-.093-.165-.192-.188-.01-.032-.025-.071-.044-.116l.012-.035-.033-.034s0,.009,0,.013c-.023-.052-.05-.108-.078-.167a.077.077,0,0,0,.046.041.114.114,0,0,0-.044-.148.327.327,0,0,0,0,.1c-.115-.235-.261-.5-.333-.629.076-.082-.025-.189-.056-.275a1.232,1.232,0,0,0-.176-.319A.786.786,0,0,0,451.569,720.157Zm.994,1.012.018-.015a7.024,7.024,0,0,0,.472.993c-.013.055-.022.124-.048.133-.085.026-.108-.066-.145-.124-.137-.221-.121-.516-.351-.722-.006.261.18.459.154.727-.132-.193-.368-.037-.487-.21a.764.764,0,0,1-.06-.64c.156.151.128.385.316.478a1.526,1.526,0,0,0-.312-.728.154.154,0,0,1,.115.049A.246.246,0,0,0,452.563,721.169Z" transform="translate(-441.808 -687.704)" fill="url(#linear-gradient-5)"/>
        <path id="Path_602" data-name="Path 602" d="M460.616,737.357l-.007,0v.008Z" transform="translate(-449.986 -703.269)" fill="url(#linear-gradient-15)"/>
        <path id="Path_603" data-name="Path 603" d="M552.7,656.774l-.006,0,0,.007Z" transform="translate(-533.281 -630.375)" fill="url(#linear-gradient-16)"/>
        <path id="Path_604" data-name="Path 604" d="M542.673,436.635c-.482-.866-1.646-1.274-2.23-.643a.916.916,0,0,1,.721.577.551.551,0,0,0,.915.074c.111-.125.367-.049.564.024-.028.048-.037.12-.089.134.263.193.028.407.028.612l.1.1a.56.56,0,0,1,.557-.115h0a1.575,1.575,0,0,1,.245.326.539.539,0,0,0,.784.265,3.306,3.306,0,0,0,.863-1.083c-.317.129-.53.249-.8.114-.37-.184-.523-.126-.767.216-.077.108-.146.195-.292.134h0c-.049-.049-.095-.1-.147-.148-.231-.2-.206-.37.077-.481a.441.441,0,0,1,.177-.008.69.69,0,0,0,.658-.294.631.631,0,0,1,.493-.312,1.236,1.236,0,0,0-.468-.267.684.684,0,0,0-.92.277,1.334,1.334,0,0,0-.081.413c-.031.132-.08.179-.172.038h0c-.078-.348-.01-.731-.249-1.04h0a.388.388,0,0,1,.022-.117c.264-.489.247-.576-.2-.924a1.367,1.367,0,0,1-.5-.567.992.992,0,0,0,.5,1.549l.14.06h0a1.962,1.962,0,0,1,.179,1.1A.1.1,0,0,0,542.673,436.635Zm.21-.042-.109.051h0Z" transform="translate(-522.203 -428.804)" fill="url(#linear-gradient-5)"/>
        <path id="Path_605" data-name="Path 605" d="M458.84,718.946c.114.1.168.28.32.263.215-.024.2-.044.338.15a2.628,2.628,0,0,0,.48.553h0c.052.142.051.532.16.641.1-.1-.129-.206.027-.287a.143.143,0,0,0-.007-.021,2.548,2.548,0,0,0-.1-.277,1.32,1.32,0,0,0,.341.178c0-.015,0-.029,0-.043l.187.343h0a.677.677,0,0,0-.4-.178c.086.069.32.214.488.322.059.206.216.409-.142.54-.064.023.029.1.034.153.01.107.083.053.134.036.33-.112.356-.173.22-.5-.055-.131-.375-.515-.518-.729A1.319,1.319,0,0,0,458.84,718.946Zm1.8,1.556h0l-.03-.026C460.628,720.481,460.642,720.488,460.643,720.5Z" transform="translate(-448.386 -686.596)" fill="url(#linear-gradient-5)"/>
        <path id="Path_606" data-name="Path 606" d="M446.376,745.606c-.142.071-.279.162-.416.1.026-.46.553-.688.474-1.189-.009-.057.128-.146.208-.206a1.753,1.753,0,0,1,.236-.131c-.355-.058-.518.171-.652.447s-.081.682-.44.863c-.053.027.011.063.02.1.106.354.246.435.664.383.07-.009.164,0,.179-.082a.4.4,0,0,0-.088-.285C446.5,745.51,446.435,745.576,446.376,745.606Z" transform="translate(-436.559 -709.433)" fill="url(#linear-gradient-5)"/>
        <path id="Path_607" data-name="Path 607" d="M512.868,575.292c.308-.113.145-.315.156-.486a5.027,5.027,0,0,1-.426.635c-.055.052-.044.093-.006.155.131.212.037.358-.155.467l.07.109a1.655,1.655,0,0,0,.364-.442c.023-.037.086-.083,0-.141C512.731,575.5,512.721,575.346,512.868,575.292Z" transform="translate(-496.869 -556.23)" fill="url(#linear-gradient-20)"/>
        <path id="Path_608" data-name="Path 608" d="M477.864,723.708l-.043.037a4.656,4.656,0,0,0,.591,1.246c.109-.1-.048-.217,0-.34l.178.086h0c.041.061.068.136.149.161l.01-.008c.013-.1,0-.178-.12-.185h0A3.234,3.234,0,0,1,477.864,723.708Z" transform="translate(-465.556 -690.925)" fill="url(#linear-gradient-5)"/>
        <path id="Path_609" data-name="Path 609" d="M482.317,633.1l.2,0c-.092-.295-.344-.436-.558-.612-.223.319-.048.431.223.5C482.23,633,482.271,633.059,482.317,633.1Z" transform="translate(-469.203 -608.403)" fill="url(#linear-gradient-5)"/>
        <path id="Path_610" data-name="Path 610" d="M541.312,759.33c-.037.069-.113.148-.1.207s.123.084.2.1a.463.463,0,0,0,.465-.222,1.231,1.231,0,0,1-.366-.1C541.451,759.279,541.371,759.22,541.312,759.33Z" transform="translate(-522.897 -723.091)" fill="url(#linear-gradient-5)"/>
        <path id="Path_611" data-name="Path 611" d="M529.7,723.987s0,0,0-.005H529.7Z" transform="translate(-512.48 -691.173)" fill="url(#linear-gradient-24)"/>
        <path id="Path_612" data-name="Path 612" d="M527.168,732.948h0v0Z" transform="translate(-510.193 -699.283)" fill="url(#linear-gradient-25)"/>
        <path id="Path_613" data-name="Path 613" d="M519.37,733.677c.429.055.7-.213.744-.7C519.907,733.252,519.741,733.567,519.37,733.677Z" transform="translate(-503.14 -699.311)" fill="url(#linear-gradient-5)"/>
        <path id="Path_614" data-name="Path 614" d="M524.8,724.846l.371-.652.032.019-.054.321c.161-.132.1-.316.118-.483C524.995,724.1,524.792,724.428,524.8,724.846Z" transform="translate(-508.05 -691.236)" fill="url(#linear-gradient-27)"/>
        <path id="Path_615" data-name="Path 615" d="M529.692,723.99h.005l-.005-.005S529.692,723.987,529.692,723.99Z" transform="translate(-512.478 -691.174)" fill="url(#linear-gradient-28)"/>
        <path id="Path_616" data-name="Path 616" d="M533.267,747.574c-.192-.127-.4-.041-.589-.089l-.045.042c.2.387.2.387.4.3-.056-.049-.206-.045-.167-.135C532.938,747.537,533.13,747.681,533.267,747.574Z" transform="translate(-515.138 -712.434)" fill="url(#linear-gradient-5)"/>
        <path id="Path_617" data-name="Path 617" d="M515.479,719.019a.7.7,0,0,0-.719.1l.089.08c.079-.027.144-.1.239-.066l-.031.086h0l-.13.124h0l-.053.053.046.055.059-.064-.011-.009.011.009.125-.119h0l.167-.076C515.283,719.084,515.413,719.1,515.479,719.019Zm-.387.112.013-.037.028.02Z" transform="translate(-498.97 -686.628)" fill="url(#linear-gradient-5)"/>
        <path id="Path_618" data-name="Path 618" d="M475.3,753.271l0,.005h.007c0-.006,0-.011,0-.016l-.006.013Z" transform="translate(-463.271 -717.656)" fill="url(#linear-gradient-31)"/>
        <path id="Path_619" data-name="Path 619" d="M468.266,751.484l0,.007.008,0h0l0,0h-.007Z" transform="translate(-456.909 -716.051)" fill="url(#linear-gradient-32)"/>
        <path id="Path_620" data-name="Path 620" d="M473.477,720.265a.6.6,0,0,1,.214.312c.03.213.136.029.2.051l.043-.037C473.84,720.416,473.747,720.239,473.477,720.265Z" transform="translate(-461.626 -687.809)" fill="url(#linear-gradient-5)"/>
        <path id="Path_621" data-name="Path 621" d="M511.473,751.73c-.051.156-.406.086-.163.342.047.05-.09.083-.133.133l.106.057-.106-.057a.551.551,0,0,1-.4-.086.647.647,0,0,0-.567-.093c.007-.1-.056-.2.013-.295.142,0,.257.117.448.089-.156-.144-.206-.445-.478-.161-.01.009-.055-.015-.082-.024l-.011.011.011-.011c-.022-.008-.059-.029-.063-.024-.021.029,0,.047.028.058-.045.195.092.407-.056.592h0c-.219.143-.4.046-.585-.081a2.243,2.243,0,0,0-1.025-.339c-.178-.022-.247.038-.152.223a1.32,1.32,0,0,0,.918.736.719.719,0,0,0,.856-.452l-.01-.079.011.079c.054-.045.1-.146.179-.028h0a.308.308,0,0,0,.112.319c.251.182.939.031.975-.369h0A.7.7,0,0,0,511.473,751.73Z" transform="translate(-493.051 -716.103)" fill="url(#linear-gradient-5)"/>
        <path id="Path_622" data-name="Path 622" d="M463.521,752.755a.3.3,0,0,0-.067-.131c-.052-.059-.085.008-.115.035a1.5,1.5,0,0,1-.254.2c.115-.006.23-.009.343-.021C463.475,752.839,463.536,752.823,463.521,752.755Z" transform="translate(-452.226 -717.061)" fill="url(#linear-gradient-5)"/>
        <path id="Path_623" data-name="Path 623" d="M479.191,752.315a2.131,2.131,0,0,0,.641-.178A.7.7,0,0,0,479.191,752.315Z" transform="translate(-466.795 -716.624)" fill="url(#linear-gradient-5)"/>
        <path id="Path_624" data-name="Path 624" d="M470.588,753.436c.153-.01.344.193.449-.081C470.887,753.379,470.716,753.278,470.588,753.436Z" transform="translate(-459.013 -717.735)" fill="url(#linear-gradient-5)"/>
        <path id="Path_625" data-name="Path 625" d="M532.641,729.807a.764.764,0,0,0,.231-.611l-.274.577Z" transform="translate(-515.106 -695.89)" fill="url(#linear-gradient-20)"/>
        <path id="Path_626" data-name="Path 626" d="M454.153,752.834c.007.12-.061.239,0,.321l.246-.2A.2.2,0,0,1,454.153,752.834Z" transform="translate(-444.122 -717.273)" fill="url(#linear-gradient-39)"/>
        <path id="Path_627" data-name="Path 627" d="M472.715,732.984l0,0v0Z" transform="translate(-460.933 -699.316)" fill="url(#linear-gradient-40)"/>
        <path id="Path_628" data-name="Path 628" d="M472.721,732.993h.009l0,0Z" transform="translate(-460.942 -699.321)" fill="url(#linear-gradient-41)"/>
        <path id="Path_629" data-name="Path 629" d="M477.395,748.934c0,.008.034.017.048.013.162-.039.008-.216.119-.279.006,0,.005-.018.008-.028h0a.813.813,0,0,1,.783-.139v-.174c-.109.017-.218.042-.328.048-.195.013-.385.029-.5.223h0A.359.359,0,0,0,477.395,748.934Z" transform="translate(-465.163 -713.196)" fill="url(#linear-gradient-5)"/>
        <path id="Path_630" data-name="Path 630" d="M465.76,736.071l0,0s0,0,0,.007h0l0,0s0,0,0-.005Z" transform="translate(-454.642 -702.105)" fill="url(#linear-gradient-43)"/>
        <path id="Path_631" data-name="Path 631" d="M514.2,723.621l-.046-.055a.557.557,0,0,0-.19.245l.065.062Z" transform="translate(-498.255 -690.796)" fill="url(#linear-gradient-20)"/>
        <path id="Path_632" data-name="Path 632" d="M529.269,732.642a.276.276,0,0,0,.1-.252A.249.249,0,0,0,529.269,732.642Z" transform="translate(-512.09 -698.78)" fill="url(#linear-gradient-45)"/>
        <path id="Path_633" data-name="Path 633" d="M530.366,732.291v-.006l-.005,0h0s0,0,0,.007l0,0Z" transform="translate(-513.083 -698.684)" fill="url(#linear-gradient-46)"/>
        <path id="Path_634" data-name="Path 634" d="M471.619,739.138l.023-.024c.018-.086-.044-.139-.092-.2C471.486,739.017,471.549,739.079,471.619,739.138Z" transform="translate(-459.859 -704.679)" fill="url(#linear-gradient-47)"/>
        <path id="Path_635" data-name="Path 635" d="M529.3,505.476l.02-.051-.009-.054a.27.27,0,0,0-.014.051A.322.322,0,0,0,529.3,505.476Z" transform="translate(-512.122 -493.42)" fill="url(#linear-gradient-48)"/>
        <path id="Path_636" data-name="Path 636" d="M527.2,731l-.014-.011c-.074.046-.063.117-.056.187C527.215,731.145,527.2,731.071,527.2,731Z" transform="translate(-510.153 -697.514)" fill="url(#linear-gradient-49)"/>
        <path id="Path_637" data-name="Path 637" d="M530.463,731.16c0-.007-.021-.013-.031-.02l-.012.109C530.463,731.235,530.467,731.2,530.463,731.16Z" transform="translate(-513.135 -697.648)" fill="url(#linear-gradient-50)"/>
        <path id="Path_638" data-name="Path 638" d="M440.977,534.538l-.127-.07A.1.1,0,0,0,440.977,534.538Z" transform="translate(-432.112 -519.741)" fill="url(#linear-gradient-51)"/>
        <path id="Path_639" data-name="Path 639" d="M528.449,729.113h0Z" transform="translate(-511.353 -695.815)" fill="url(#linear-gradient-52)"/>
        <path id="Path_640" data-name="Path 640" d="M527.731,729.295l.013.011c.078-.047.059-.12.052-.19C527.718,729.155,527.725,729.225,527.731,729.295Z" transform="translate(-510.701 -695.818)" fill="url(#linear-gradient-53)"/>
        <path id="Path_641" data-name="Path 641" d="M487.5,736.181c.011-.009.031-.024.029-.027a.553.553,0,0,0-.043-.064l-.009.008Z" transform="translate(-474.294 -702.127)" fill="url(#linear-gradient-54)"/>
        <path id="Path_642" data-name="Path 642" d="M460.633,737.405V737.4l-.005,0Z" transform="translate(-450.002 -703.309)" fill="url(#linear-gradient-55)"/>
        <path id="Path_643" data-name="Path 643" d="M460.734,737.561h0a.07.07,0,0,0-.039-.085c0,.033.009.065.014.1C460.718,737.569,460.732,737.567,460.734,737.561Z" transform="translate(-450.064 -703.379)" fill="url(#linear-gradient-56)"/>
        <path id="Path_644" data-name="Path 644" d="M477.366,738.234l-.042-.053.009.072Z" transform="translate(-465.106 -704.018)" fill="url(#linear-gradient-5)"/>
        <path id="Path_645" data-name="Path 645" d="M477.26,738.046l-.005,0,.007.008Z" transform="translate(-465.043 -703.895)" fill="url(#linear-gradient-58)"/>
        <path id="Path_646" data-name="Path 646" d="M476.863,737.622l.035.015-.012-.04Z" transform="translate(-464.689 -703.489)" fill="url(#linear-gradient-5)"/>
        <path id="Path_647" data-name="Path 647" d="M477.229,738.023l0,0-.007,0Z" transform="translate(-465.018 -703.868)" fill="url(#linear-gradient-58)"/>
        <path id="Path_648" data-name="Path 648" d="M492.1,735.1s0-.015-.01-.019-.012,0-.019,0-.011.015-.01.019C492.069,735.123,492.083,735.124,492.1,735.1Z" transform="translate(-478.433 -701.209)" fill="url(#linear-gradient-61)"/>
        <path id="Path_649" data-name="Path 649" d="M545.042,658.057l0,0,0,0h.008v-.007l-.006,0Z" transform="translate(-526.358 -631.534)" fill="url(#linear-gradient-62)"/>
        <path id="Path_650" data-name="Path 650" d="M552.745,656.815l-.02-.011,0,0Z" transform="translate(-533.31 -630.405)" fill="url(#linear-gradient-63)"/>
        <path id="Path_651" data-name="Path 651" d="M616.735,582.382l-.005.02,0,0Z" transform="translate(-591.211 -563.083)" fill="url(#linear-gradient-6)"/>
        <path id="Path_652" data-name="Path 652" d="M467.886,751.6l.023-.039C467.889,751.561,467.851,751.551,467.886,751.6Z" transform="translate(-456.556 -716.117)" fill="url(#linear-gradient-65)"/>
        <path id="Path_653" data-name="Path 653" d="M463.682,546.142h0l-.021.016.024-.012h0s0,0,0,0Z" transform="translate(-452.746 -530.3)" fill="url(#linear-gradient-66)"/>
        <path id="Path_654" data-name="Path 654" d="M372.411,532.739l-.032-.018a.089.089,0,0,0,.013.021S372.4,532.74,372.411,532.739Z" transform="translate(-370.174 -518.161)" fill="url(#linear-gradient-67)"/>
        <path id="Path_655" data-name="Path 655" d="M372.34,532.682h0l0,0,0,0h0Z" transform="translate(-370.139 -518.123)" fill="url(#linear-gradient-68)"/>
        <path id="Path_656" data-name="Path 656" d="M627.276,531.045c-.024,0-.037.006-.038.031A.087.087,0,0,0,627.276,531.045Z" transform="translate(-600.717 -516.644)" fill="url(#linear-gradient-69)"/>
        <path id="Path_657" data-name="Path 657" d="M466.812,513.373l-.028-.01.023.014h0v0Z" transform="translate(-455.572 -500.649)" fill="url(#linear-gradient-70)"/>
        <path id="Path_658" data-name="Path 658" d="M535.205,512.307a.079.079,0,0,0,.005-.016l-.024.018C535.193,512.308,535.2,512.31,535.205,512.307Z" transform="translate(-517.447 -499.68)" fill="url(#linear-gradient-71)"/>
        <path id="Path_659" data-name="Path 659" d="M535.441,512.2l.007-.005,0,0A.085.085,0,0,1,535.441,512.2Z" transform="translate(-517.678 -499.588)" fill="url(#linear-gradient-72)"/>
        <path id="Path_660" data-name="Path 660" d="M412.58,457.152h0v0l-.006.007.006-.007,0,0h0Z" transform="translate(-406.532 -449.802)" fill="url(#linear-gradient-73)"/>
        <path id="Path_661" data-name="Path 661" d="M472.089,444.88h0l.015-.015-.019.011h0s0,.005,0,.008Z" transform="translate(-460.367 -438.687)" fill="url(#linear-gradient-74)"/>
        <path id="Path_662" data-name="Path 662" d="M504.773,435.01l-.009,0,0,0Z" transform="translate(-489.925 -429.77)" fill="url(#linear-gradient-58)"/>
        <path id="Path_663" data-name="Path 663" d="M491.148,745.875c.013-.071-.021-.1-.088-.1a.991.991,0,0,0-.061.809,5.869,5.869,0,0,0,.022-.633C491.021,745.859,491.056,745.823,491.148,745.875Z" transform="translate(-477.417 -710.89)" fill="url(#linear-gradient-63)"/>
        <path id="Path_664" data-name="Path 664" d="M514.98,734.223h0v0Z" transform="translate(-499.169 -700.434)" fill="url(#linear-gradient-77)"/>
        <path id="Path_665" data-name="Path 665" d="M508.635,734.615a.094.094,0,0,0,.133-.009c.219-.211.488-.38.582-.7.019-.066.085-.135.02-.192-.022-.019-.1.027-.158.046a.941.941,0,0,1-.524.685c-.049.031-.12.064-.075.137A.1.1,0,0,0,508.635,734.615Z" transform="translate(-493.397 -699.976)" fill="url(#linear-gradient-5)"/>
        <path id="Path_666" data-name="Path 666" d="M517.044,731.973l.02-.052-.033-.031a.159.159,0,0,0-.018.052C517.015,731.953,517.033,731.963,517.044,731.973Z" transform="translate(-501.009 -698.328)" fill="url(#linear-gradient-79)"/>
        <path id="Path_667" data-name="Path 667" d="M513.469,742.646l.016-.026-.013.008S513.47,742.64,513.469,742.646Z" transform="translate(-497.802 -708.033)" fill="url(#linear-gradient-80)"/>
        <path id="Path_668" data-name="Path 668" d="M513.638,742.509v0h0l-.005.009.009-.006h0l0,0h-.005Z" transform="translate(-497.95 -707.933)" fill="url(#linear-gradient-81)"/>
      </g>
    </g>
  </g>
</svg>
