<svg xmlns="http://www.w3.org/2000/svg" width="100.006" height="94.065" viewBox="0 0 100.006 94.065">
  <g id="kaLogo" transform="translate(0 0)">
    <path id="Path_701" data-name="Path 701" d="M405.283,261.428a.2.2,0,0,1,.048-.008.316.316,0,0,1,.149.041.955.955,0,0,1,.484.579,3.91,3.91,0,0,0,.174.827,1.277,1.277,0,0,0,.355.364,3.677,3.677,0,0,1,.973.984,1.261,1.261,0,0,1,.034,1.318c-.174.253-.491.483-.418.782a1.725,1.725,0,0,0,.171.322.912.912,0,0,1,.012.638,2.167,2.167,0,0,1-.48.87.833.833,0,0,0-.229.333.7.7,0,0,0,.109.465l.358.715a.857.857,0,0,0,.261.352.877.877,0,0,0,.539.082,10.888,10.888,0,0,1,4.908.671,7.962,7.962,0,0,0,1.261.5c.3.072.7.042.816-.243.1-.251-.085-.53-.3-.7a7.083,7.083,0,0,0-2.442-.742,3.807,3.807,0,0,1-2.168-1.68,1.619,1.619,0,0,1,.088-2.113.485.485,0,0,0,.115-.107c.125-.192-.13-.394-.253-.587-.161-.252-.016-1.32.4-1.258.167.025.624.65.776.785a3.339,3.339,0,0,1,.807.9,2.383,2.383,0,0,1,.089,1.72.906.906,0,0,0-.026.662.791.791,0,0,0,.36.29,10.977,10.977,0,0,0,1.4.595.56.56,0,0,0,.262.044c.148-.023.252-.153.381-.229a.847.847,0,0,1,.882.121c.257.179.46.428.719.6a3.038,3.038,0,0,1,.333.23,1.173,1.173,0,0,1,.2,1.241c-.088.255-.222.495-.289.757a.845.845,0,0,0,.126.768c.356.4,1.02-.335,1.174.33a.8.8,0,0,1-.141.583,1.042,1.042,0,0,1-1.213.519c-.466-.207-.561-.807-.754-1.279-.028-.068-.067-.142-.138-.161a.281.281,0,0,0-.2.061,1.465,1.465,0,0,1-.783.194c-.179-.006-.721-.268-.835-.147-.3.317.543,1.413.754,1.631.285.293.631.528.891.844a2.159,2.159,0,0,1,.416,1.892,6.592,6.592,0,0,1-1.1,1.851.4.4,0,0,0-.089.23.437.437,0,0,0,.157.261c.551.568,1.294,1.689,1,2.512a4.35,4.35,0,0,0-.278.779,3.789,3.789,0,0,1-.063.558c-.117.381-.535.595-.7.958a2.26,2.26,0,0,0-.059,1.019,2.839,2.839,0,0,1-.166,1.054,1.1,1.1,0,0,0-.117.593,3.611,3.611,0,0,0,.212.447,1.249,1.249,0,0,1-.179.947l-.9,1.836a.989.989,0,0,0-.146.553c.027.192.222.372.4.307a.43.43,0,0,0,.193-.171,4.453,4.453,0,0,0,.5-1.3,5.919,5.919,0,0,1,1.277-2.234,6.736,6.736,0,0,0,.871-1.013,1.888,1.888,0,0,0,.145-1.4,5.529,5.529,0,0,1-.044-1.195.457.457,0,0,1,.062-.235c.139-.2.457-.081.634.085.327.306.558.725.952.938.074.04.175.067.233.006a.212.212,0,0,0,.027-.175,25.414,25.414,0,0,0-.707-3.323.937.937,0,0,1-.054-.412.314.314,0,0,1,.273-.275.46.46,0,0,1,.246.1,8.964,8.964,0,0,1,1.465,1.092,3.259,3.259,0,0,1,.937,1.544.452.452,0,0,0,.119.259c.178.146.427-.078.518-.289s.211-.483.441-.471c.194.01.3.221.368.4q.218.6.39,1.22a4.988,4.988,0,0,1,.238,1.67,4.2,4.2,0,0,1-2.273,3.133,11.1,11.1,0,0,1-1.914.829c-.274.1-1.82.455-1.783.727a14.8,14.8,0,0,1,1.661.2c.126.031.272.078.313.2a.348.348,0,0,1-.067.283c-.409.66-1.227.927-1.822,1.427a.246.246,0,0,0-.1.13.211.211,0,0,0,.035.144c.225.393.791.378,1.236.29s.984-.168,1.282.173c.165.189.3.515.541.451.115-.03.184-.144.253-.242a.95.95,0,0,1,.882-.444c.144.024.276.1.417.133a1.709,1.709,0,0,0,1.072-.163,8.045,8.045,0,0,0,1.589-.874.482.482,0,0,0,.2-.214.34.34,0,0,0-.188-.384,1,1,0,0,0-.455-.08,10.582,10.582,0,0,0-2.991.24c-.246.068-.562.13-.709-.078-.164-.231.062-.533.271-.724l3.787-3.453a1.881,1.881,0,0,1,1.021-.59,3.9,3.9,0,0,0,.657-.02,1.577,1.577,0,0,0,.432-.234,3.091,3.091,0,0,1,1.563-.49c.269-.009.6.061.679.318.1.331-.286.579-.537.819a2.093,2.093,0,0,0-.477,1.672,8.839,8.839,0,0,1,.1,1.789.7.7,0,0,0,.008.378c.106.237.433.24.693.24a3.063,3.063,0,0,1,2.72,1.724.564.564,0,0,1,.07.365c-.074.3-.48.313-.783.284a7.281,7.281,0,0,0-4.366.987c-.261.155-.466.413-.736.551-.106.054-.715.2-.417.438a.3.3,0,0,0,.188.043l5.631.009a1.28,1.28,0,0,1,.683.129c.365.228.4.735.4,1.165,0,.711,0,1.422,0,2.133l.015,4.409.007,2.063a.512.512,0,0,0,.03.209c.085.19.348.2.553.166,1.428-.268,2.4-1.572,3.641-2.32a11.081,11.081,0,0,0,1.7-1.009,2.035,2.035,0,0,1,.481-.372,2.714,2.714,0,0,1,.453-.116,1.6,1.6,0,0,0,.945-.67.391.391,0,0,0,.077-.353.413.413,0,0,0-.254-.191,2.883,2.883,0,0,0-1.369-.16.57.57,0,0,0-.414.191c-.133.193-.018.47-.116.682a.517.517,0,0,1-.625.208,1.947,1.947,0,0,1-.6-.392,3.418,3.418,0,0,0-.943-.55,1.528,1.528,0,0,1-.58-.287,1.073,1.073,0,0,1,.012-1.228,4.126,4.126,0,0,1,.714-.981c.062-.063.132-.145.1-.23a.238.238,0,0,0-.1-.108,5.385,5.385,0,0,1-1.81-1.881,3.655,3.655,0,0,1,.04-2.844c.147-.339.346-.717.2-1.055-.068-.151-.2-.267-.268-.417s-.046-.372.111-.425a.4.4,0,0,1,.158-.008,18.152,18.152,0,0,0,3.224-.031.534.534,0,0,1,.37.052.358.358,0,0,1,.057.458,1.044,1.044,0,0,1-.377.33l-1.346.837a.879.879,0,0,1-.517.184c-.173-.016-.341-.134-.508-.083s-.238.244-.282.413a4.45,4.45,0,0,0-.173,1.742,2.007,2.007,0,0,0,.886,1.457.437.437,0,0,0,.459.048.371.371,0,0,0,.063-.462,4.424,4.424,0,0,0-.3-.411,1.912,1.912,0,0,1-.194-1.112,1.661,1.661,0,0,1,.144-.762,1.28,1.28,0,0,1,1.346-.489c.5.081.972.314,1.475.394a3.174,3.174,0,0,1,.614.113,4.474,4.474,0,0,1,.468.249,1.45,1.45,0,0,0,.895.2c.409-.135.015-.52.359-.735a.586.586,0,0,1,.642.1c.183.141.324.332.516.461.5.332,1.208.157,1.722.468.107.065.22.153.343.126a.359.359,0,0,0,.157-.1,12.1,12.1,0,0,0,.891-1.173c.726-.85,1.912-1.116,2.861-1.708.695-.434,1.264-1.046,1.96-1.476.094-.058.243-.1.294,0a.2.2,0,0,1,.013.108,3.26,3.26,0,0,1-.676,1.743c-.1.123-.186.331-.048.4a.25.25,0,0,0,.167,0,2.932,2.932,0,0,0,1.6-.983.383.383,0,0,1,.156-.134c.181-.063.323.173.329.364.026.91-1.079,1.453-1.321,2.331-.091.329-.076.73-.345.939-.165.128-.394.143-.569.256-.412.267-.334.9-.6,1.313s-.821.539-1.135.913a1.841,1.841,0,0,1-.3.345c-.341.245-1.732-.13-1.022.593a10.92,10.92,0,0,1,1.448,1.714,8.461,8.461,0,0,0,1.18-1.019,27.9,27.9,0,0,1,7.982-5.357.306.306,0,0,1,.22-.037c.187.066.082.348-.05.5q-.729.823-1.4,1.7a6.941,6.941,0,0,0-.639.95,3.947,3.947,0,0,0-.334,2.8.471.471,0,0,0,.123.246c.146.129.374.048.55-.036a40.047,40.047,0,0,1,4.248-1.751c.147.215-.013.5-.179.7-.524.635-1.156,1.174-1.7,1.79a4.161,4.161,0,0,0-1.121,2.16,3.043,3.043,0,0,0,.3,1.679c.215.452.986,1.047.269,1.427a8.21,8.21,0,0,0-1.679,1.03,2.434,2.434,0,0,0-.879,1.96,3.018,3.018,0,0,0,.978,1.773c.108.109.23.247.192.4s-.192.207-.329.253a4.52,4.52,0,0,0-1.987,1.033,2.562,2.562,0,0,0-.267,2.852c.111.213.246.475.11.673a.644.644,0,0,1-.454.2,6.508,6.508,0,0,0-.894.211,3.01,3.01,0,0,0-1.56.974c-.633.846-.277,1.765-.5,2.7a.529.529,0,0,1-.118.255c-.162.165-.436.092-.658.026a4,4,0,0,0-3.925,1.031c.286.154.622.19.914.333s.546.47.432.773a.9.9,0,0,1-.562.431c-.109.045-.239.124-.22.241a.237.237,0,0,0,.128.149,2.771,2.771,0,0,0,.626.218.942.942,0,0,1,.546.352.414.414,0,0,1-.111.579c-.123.061-.3.051-.364.171s.057.285.186.362a5.126,5.126,0,0,1,.595.324.511.511,0,0,1,.2.593c-.079.157-.279.256-.288.432a.449.449,0,0,0,.073.226,10.9,10.9,0,0,0,1.119,1.784,2.793,2.793,0,0,0,3.011,1.163,3.453,3.453,0,0,0,2.368-2.2c.028-.085.038-.2-.045-.239-.063-.027-.131.02-.185.063a3.909,3.909,0,0,1-3.316.723,3.06,3.06,0,0,1-2-1.477,3.326,3.326,0,0,1-.318-1.045,3.608,3.608,0,0,1,.243-2.063,3.3,3.3,0,0,1,2.828-1.767,4.749,4.749,0,0,1,3.208,1.2c.056.047.134.1.2.058a.173.173,0,0,0,.054-.147c.038-1.4.078-2.807,0-4.208,0-.064-.015-.141-.074-.169s-.127.013-.179.053l-1.606,1.2c-.17.127-.434.245-.565.078-.107-.136-.01-.331.088-.474l2.108-3.087c.333-.488.667-.977,1.036-1.439a23.842,23.842,0,0,1,3.428-3.284.259.259,0,0,1,.1-.061c.094-.023.184.07.2.166a.53.53,0,0,1-.069.277,14.555,14.555,0,0,0-1.428,7.842.4.4,0,0,1-.061.26c-.119.146-.368.056-.478-.1s-.15-.349-.271-.493c-.163-.193-.453-.269-.562-.5a2.585,2.585,0,0,0-.1-.277c-.052-.084-.181-.135-.249-.063a.221.221,0,0,0-.044.1,11.35,11.35,0,0,0-.08,4.377,4.943,4.943,0,0,1,.069.795,7.306,7.306,0,0,1-.148,1.007c-.215,1.291-.016,2.66-.483,3.883a5.157,5.157,0,0,1-.707,1.235,4.366,4.366,0,0,1-.79.843,3.994,3.994,0,0,1-2.038.757,5.536,5.536,0,0,1-4.787-1.353c-.131-.136-.351-.286-.482-.149a.343.343,0,0,0-.069.21,3.806,3.806,0,0,0,.1,1.728,1.306,1.306,0,0,0,1.34.9,1.282,1.282,0,0,0,.675-.394c.138-.144.361-.32.5-.179a.28.28,0,0,1,.064.12,1.241,1.241,0,0,1-.274,1.043,5.939,5.939,0,0,0-.647.909,3.024,3.024,0,0,0-.208.956l-.315,2.969a6.994,6.994,0,0,0-.056,1.362c.044.491.165,1.041-.32,1.366a.744.744,0,0,0-.251.2c-.132.221.126.488.379.54a1.654,1.654,0,0,0,1.2-.346.6.6,0,0,1,.322-.133.517.517,0,0,1,.249.092,3.636,3.636,0,0,1,1.441,1.622,1.1,1.1,0,0,1,.048,1.007.3.3,0,0,1-.147.132c-.16.056-.312-.1-.381-.26s-.122-.34-.276-.412a.166.166,0,0,0-.119-.014c-.088.028-.108.139-.132.228a.881.881,0,0,1-.867.6,1.409,1.409,0,0,1-.984-.5.914.914,0,0,0-.342-.289.5.5,0,0,0-.506.157,1.481,1.481,0,0,0-.273.485.316.316,0,0,0,.184.49,11.993,11.993,0,0,0,1.609.692c.343.121.948.242.962.7a.873.873,0,0,1-.277.555l-1.758,2.054a1.333,1.333,0,0,0-.29.449c-.1.327.056.694-.049,1.02a1.087,1.087,0,0,1-1.1.588,5.179,5.179,0,0,0-1.333-.015.454.454,0,0,0-.181.081c-.129.107-.132.3-.189.457-.132.368-.55.532-.919.66q-1.613.557-3.17,1.259c-.079.035-.17.092-.164.177,0,.066.065.111.12.147l1.5.984a1.467,1.467,0,0,1,.5.446.5.5,0,0,1-.052.617.742.742,0,0,1-.5.119c-.7,0-1.4-.006-2.094-.009a4.6,4.6,0,0,1-2.059-.1c-.833-.407-1.654-.841-2.481-1.261l-4.961-2.521a1.55,1.55,0,0,0-1.561-.1l-7.888,2.641a3.657,3.657,0,0,1-2.354-.066l-2.766-.787-5.531-1.574a2.347,2.347,0,0,0-1.692.006l-8.907,2.525a2.8,2.8,0,0,1-1.826-.1l-7.786-2.631a1.554,1.554,0,0,0-1.583.051l-6.5,3.338a5.317,5.317,0,0,1-2.719.577l-3.51,0a.98.98,0,0,1-.414-.061.333.333,0,0,1-.207-.333.48.48,0,0,1,.191-.261,11.35,11.35,0,0,1,1.78-1.236c.11-.062.236-.145.237-.271s-.118-.209-.224-.271a23.2,23.2,0,0,0-2.911-1.449,1.331,1.331,0,0,1-.758-.55c-.08-.167-.1-.382-.256-.479-.252-.156-.576.1-.843.079a5.979,5.979,0,0,0-.951-.056c-.348.025-.779-.065-.883-.4a2.231,2.231,0,0,1-.016-.513,1.5,1.5,0,0,0-.466-.833l-1.487-1.668a2.393,2.393,0,0,1-.769-1.42,2.025,2.025,0,0,1,.24-.9,6.976,6.976,0,0,1,.932-1.474.6.6,0,0,0-.608.107c-.166.147-.3.406-.521.359-.13-.028-.2-.161-.257-.282a4.3,4.3,0,0,1-.355-1.528,1.112,1.112,0,0,1,.085-.561c.18-.35.678-.54.676-.934-.255-.1-.491.177-.613.423s-.3.542-.575.506-.371-.368-.392-.638a2.852,2.852,0,0,1,.1-1.132,1.569,1.569,0,0,1,.4-.647c.09-.084.525-.318.395-.508a.131.131,0,0,0-.158-.04c-.214.062-.314.307-.542.306a.361.361,0,0,1-.333-.244.663.663,0,0,1,0-.305,6.2,6.2,0,0,1,.244-1,.532.532,0,0,0,.042-.258.728.728,0,0,0-.123-.236,1.171,1.171,0,0,1,.109-1.233,3.751,3.751,0,0,1,.965-.875,12.175,12.175,0,0,0,2.234-1.986,5.664,5.664,0,0,0,1.3-2.658,15.717,15.717,0,0,0-.053-3.085,10.241,10.241,0,0,1,.036-1.254c.017-.184.291-1.083-.023-.978-.26.087-.581.956-.694,1.193-.4.845-.674,1.74-1.017,2.608-.308.779-.671,1.535-1.055,2.279a5.8,5.8,0,0,1-1.372,1.91,4.574,4.574,0,0,1-2.366.885,1.008,1.008,0,0,0-.663.239c-.159.18-.071.553.169.539.158-.01.268-.174.424-.2a.345.345,0,0,1,.355.317.9.9,0,0,1-.133.5,1.2,1.2,0,0,1-.646.666c-.336.1-.72-.071-1.041.071l.578.486a1.255,1.255,0,0,1,.395.461.43.43,0,0,1-.151.537c-.2.1-.434-.031-.649-.1a5.119,5.119,0,0,0-1.323-.046.782.782,0,0,1-.576-.232.849.849,0,0,1-.142-.321,3.986,3.986,0,0,1-.136-.978.55.55,0,0,0-.035-.231.686.686,0,0,0-.153-.175,2.045,2.045,0,0,1-.46-1.1,1.445,1.445,0,0,1-.041-.433c.054-.491.563-.775.982-1.038a.256.256,0,0,0,.126-.132.27.27,0,0,0-.051-.194,3.78,3.78,0,0,1-.378-2.608,4.873,4.873,0,0,1,1.448-2.292c.31-.317,1.894-1.6,1.547-2.089-.168-.238-.553-.1-.821-.215a.612.612,0,0,1-.137-.911,1.756,1.756,0,0,1,.912-.511c.082-.026.18-.073.179-.158a.225.225,0,0,0-.066-.128,2.058,2.058,0,0,1-.145-1.7c.057-.272.194-.612.472-.6a.484.484,0,0,1,.374.307,2.5,2.5,0,0,0,.222.456.236.236,0,0,0,.225.11c.169-.042.122-.291.052-.45a2.63,2.63,0,0,1,.087-2.262c.114-.213.371-.435.567-.293a.578.578,0,0,1,.159.362,1.569,1.569,0,0,0,.279.571.612.612,0,0,0,.31.248.26.26,0,0,0,.323-.162.435.435,0,0,0-.085-.284,1.99,1.99,0,0,1,.4-2.356c.118-.106.3-.2.424-.095.092.079.082.219.094.34.046.454.481.751.874.984a.538.538,0,0,0,.3.1c.183-.012.3-.2.372-.365a5.986,5.986,0,0,0,.52-2.709,1.626,1.626,0,0,0-.13-.647,1.648,1.648,0,0,0-1.132-.747,2.589,2.589,0,0,0-1.5-.02,1.26,1.26,0,0,0-.885,1.115c0,.3.249.791.06,1.065-.409.595-1.59-.551-1.847-.925a2.147,2.147,0,0,1,.491-2.8,8.018,8.018,0,0,1,1.807-.817,7.1,7.1,0,0,0-1.448-.524,2.407,2.407,0,0,1-1.193-2.515,8.775,8.775,0,0,0,.12-.888c0-.061-.007-.134-.061-.163-.076-.04-.156.043-.208.112-.324.431-1.9,1.142-1.751.074.032-.225.14-.435.169-.661a5.525,5.525,0,0,0-.184-1.174,1.773,1.773,0,0,1,.978-1.655,2.751,2.751,0,0,1,1.987-.147,3.125,3.125,0,0,1,1.449.832,4.722,4.722,0,0,1,.99,3.129c.02.492.016,1.037.514,1.305.2-.868-.16-1.826.18-2.651a1.98,1.98,0,0,1,1.8-1.134,2.339,2.339,0,0,1,1.478.513.572.572,0,0,1,.184.219c.1.241-.124.495-.356.611a1.974,1.974,0,0,0-.675.374,1.107,1.107,0,0,0-.084,1c.518,1.955,1.763,3.724,1.88,5.743a8.828,8.828,0,0,1-1.365,4.661,25.521,25.521,0,0,1-1.374,2.216c-1.916,2.763-4.192,5.326-6.311,7.947a2.526,2.526,0,0,0-.67,1.267,1.546,1.546,0,0,0,1.383,1.553,2.449,2.449,0,0,0,2.036-.877,6.229,6.229,0,0,0,1.1-2.007c.827-2.165,1.424-4.466,2.775-6.35.57-.795,1.261-1.495,1.878-2.254a7.9,7.9,0,0,0,1.1-1.706,14.309,14.309,0,0,0,1.656-6.315c0-.127-.052-.3-.179-.288a.2.2,0,0,0-.111.056,3.9,3.9,0,0,0-.354.506c-.132.159-.4.251-.534.092a.442.442,0,0,1-.076-.252c-.055-.7.048-1.419-.063-2.118-.054-.339-.157-.668-.213-1.007a3.669,3.669,0,0,1,.561-2.6.276.276,0,0,0,.069-.2.187.187,0,0,0-.218-.12.717.717,0,0,0-.247.118,1.468,1.468,0,0,1-.835.208c-.082,0-.18-.029-.2-.107a.219.219,0,0,1,.045-.172,1.821,1.821,0,0,0,.406-1.055c-.041-.435-.424-.743-.718-1.066a3.251,3.251,0,0,1-.65-1.082c-.081-.224-.05-.574-.2-.762-.17-.209-.517-.2-.756-.244a2.038,2.038,0,0,1-1.386-1.8,1.717,1.717,0,0,1,.026-.769.822.822,0,0,1,.5-.551.778.778,0,0,0,.263-.1c.183-.148.063-.442-.077-.632a7.869,7.869,0,0,0-1.329-1.4,4.777,4.777,0,0,1-.984-.925,2.476,2.476,0,0,1-.1-2.312,6.7,6.7,0,0,1,1.293-1.887c.391-.427,1.133-.923.615-1.552-.229-.278-.574-.466-.728-.791a1.01,1.01,0,0,1,.086-.941,1.723,1.723,0,0,1,.746-.622.742.742,0,0,1,.24-.078.872.872,0,0,1,.433.107,1.259,1.259,0,0,1,.6.419c.205.326.08.781.285,1.107.274.438.919.377,1.426.278a7.444,7.444,0,0,1,1.987-.175,3.2,3.2,0,0,1,1.84.695,2.642,2.642,0,0,1,.878,2.251,1.982,1.982,0,0,0-.024.585c.076.386.451.666.512,1.055.022.141.012.311.126.4.208.157.438-.158.661-.294a.869.869,0,0,1,.879.114,2.194,2.194,0,0,1,1.01,2.369,1.846,1.846,0,0,0-.151.679c.046.456.551.7.814,1.076.346.493.248,1.173.484,1.726a3.291,3.291,0,0,1,.449,1.064c.006.134-.093.371-.013.49.112.167.47.166.646.181a7.918,7.918,0,0,1,1.711.262,2.5,2.5,0,0,1,1.391.975c.074.116.178.259.31.223s.148-.2.147-.328l-.012-1.858c-.006-.891-.012-1.783,0-2.674q.013-1.055.058-2.11a.671.671,0,0,1,.773-.837l5.432-.038c.231,0,.762.029.616-.286-.064-.139-.533-.391-.673-.49a6.89,6.89,0,0,0-.823-.5,7.018,7.018,0,0,0-3.531-.766,2.119,2.119,0,0,1-.6-.017.6.6,0,0,1-.446-.36.752.752,0,0,1,.128-.6,2.8,2.8,0,0,1,2.725-1.321c.11.015.241.03.316-.053a.327.327,0,0,0,.06-.2l.136-1.916a2.426,2.426,0,0,0-.421-1.936,3.9,3.9,0,0,1-.475-.439.425.425,0,0,1,.029-.581.567.567,0,0,1,.284-.073,2.287,2.287,0,0,1,1.47.215c.22.148.394.376.649.448a3.355,3.355,0,0,0,.71,0,1.659,1.659,0,0,1,.919.457c.96.8,1.719,1.832,2.736,2.561a8.229,8.229,0,0,1,.942.7,1.44,1.44,0,0,1,.5,1.024.18.18,0,0,1-.049.142.2.2,0,0,1-.136.027c-1.068-.053-2.121-.31-3.19-.3a1.341,1.341,0,0,0-.83.211.232.232,0,0,0-.106.175.255.255,0,0,0,.079.152,4.387,4.387,0,0,0,2.254,1.113c.586.158,1.245-.468,1.7.185.119.168.2.407.409.433.271.035.393-.324.6-.506a1.1,1.1,0,0,1,.941-.11l1,.188a1.06,1.06,0,0,0,.512.011.363.363,0,0,0,.271-.385c-.032-.151-.184-.241-.32-.315a12.542,12.542,0,0,1-1.734-1.14c-.167-.13-.348-.307-.313-.516a.52.52,0,0,1,.276-.329,1.633,1.633,0,0,1,1.17-.194c.241.052.512.153.715.015,0-.11-.112-.183-.21-.233a15.618,15.618,0,0,0-2.01-.762c-1.522-.531-3.435-1.647-3.625-3.411a4.788,4.788,0,0,1,.055-1.2,13.635,13.635,0,0,1,.352-1.67c.058-.206.177-.455.392-.447s.31.26.4.453.349.378.492.219a.378.378,0,0,0,.069-.149,4.647,4.647,0,0,1,2.679-2.915.36.36,0,0,1,.162-.036c.22.019.224.34.164.552a21.347,21.347,0,0,0-.694,3.566.771.771,0,0,0,.647-.37,3.273,3.273,0,0,1,.474-.616.536.536,0,0,1,.707-.031.64.64,0,0,1,.124.46,6.854,6.854,0,0,0-.138,2.014c.187.67.82,1.1,1.28,1.621a8.456,8.456,0,0,1,1.374,2.855,1.1,1.1,0,0,0,.345.561.393.393,0,0,0,.575-.1.6.6,0,0,0-.068-.453,15.125,15.125,0,0,1-.693-2.221l-.374-1.459a5.693,5.693,0,0,1-.242-1.464,2.252,2.252,0,0,0-.074-.966c-.124-.272-.39-.457-.522-.724-.187-.38-.073-.855-.259-1.235a3.494,3.494,0,0,1-.3-.525,1.031,1.031,0,0,1,.13-.716,3.559,3.559,0,0,0,.49-1.209c.036-.49-.218-.958-.14-1.451a3.8,3.8,0,0,1,.793-1.349,5.72,5.72,0,0,0,.59-3.3,1.2,1.2,0,0,0-.086-.507c-.1-.2-.295-.329-.379-.531-.12-.287.024-.63-.082-.923a2.839,2.839,0,0,0-.23-.387.971.971,0,0,1,.094-1.062,2.207,2.207,0,0,0,.268-.32c.183-.335-.042-.786.143-1.12.165-.3.564-.414.424-.821a3.171,3.171,0,0,0-.215-.407,1.3,1.3,0,0,1,.09-1.309,2.188,2.188,0,0,0,.287-.419c.146-.367-.1-.766-.126-1.159a1.326,1.326,0,0,1,.438-1.023,2.448,2.448,0,0,1,1.005-.538,1.247,1.247,0,0,0,.383-.154c.4-.288.27-.972.633-1.307A.33.33,0,0,1,405.283,261.428Zm38.748,80.313.006-.035a6.571,6.571,0,0,1,.355-.958,4.3,4.3,0,0,0,.083-1.782l-.305-3.249a1.155,1.155,0,0,0-.294-.805,3.478,3.478,0,0,0-.453-.249c-.182-.112-.315-.289-.488-.415-.328-.24-.775-.284-1.081-.551-.2-.172-.316-.421-.524-.58s-.509-.217-.721-.391c-.27-.222-.356-.6-.576-.868-.234-.288-.607-.443-.815-.75a2.251,2.251,0,0,1-.253-1c-.027-.214-.134-.483-.35-.471a.418.418,0,0,0-.246.132,3.419,3.419,0,0,0-.941,1.907c-.138.717-.166,2.15.644,2.551.193.1.413-.055.575-.2l.412-.359a.387.387,0,0,1,.288-.132c.158.023.219.218.226.378a2.794,2.794,0,0,1-1.708,2.46,9.244,9.244,0,0,1-3.088.662q-1.875.2-3.731.546a1.142,1.142,0,0,1-.908-.084c-.092-.072-.167-.175-.278-.209s-.266.074-.21.177a.214.214,0,0,0,.132.083c.559.177,1.208.442,1.328,1.015.114.542-.321,1.034-.745,1.391-.157.132-.371.267-.553.172-.276-.145-.114-.556-.108-.868a.989.989,0,0,0-.711-.878,2.9,2.9,0,0,0-1.2-.065c-.283.024-.617.081-.738.338a1.153,1.153,0,0,0-.025.554c.009.187-.046.412-.223.473a.444.444,0,0,1-.393-.108,1.373,1.373,0,0,1-.536-1.156.883.883,0,0,0-.021-.419c-.126-.276-.589-.221-.734.046a18.031,18.031,0,0,1-2.865,3.261,1.384,1.384,0,0,0-.5.966l1.232-1.083a.617.617,0,0,1,.834-.16l4.993,2.2a1.874,1.874,0,0,1,.43.237,2.794,2.794,0,0,1,.632,1.335,2.972,2.972,0,0,0,2.765,1.9,5.69,5.69,0,0,0,2.286-.7,14.178,14.178,0,0,0,2.734-1.578,5.96,5.96,0,0,0,1.123-1.131c.317-.43.381-.9.867-1.16l1.659-.9a.951.951,0,0,1,1.328.167l.706.563c.155.123.372.25.534.138A.516.516,0,0,0,444.032,341.741Zm-57.315-32.495h0q0,3.281,0,6.561c0,1.231.016,2.462.022,3.693a1.478,1.478,0,0,0,.115.73.642.642,0,0,1,.044.268c.01.224.009.449.017.674a.885.885,0,0,0,.029.3,2.775,2.775,0,0,1,.137,1.082.382.382,0,0,0,.057.262.56.56,0,0,1,.115.423c-.029.334.207.612.191.941a.112.112,0,0,0,.036.064.552.552,0,0,1,.114.422,1.088,1.088,0,0,0,.1.457,5.236,5.236,0,0,0,.231.726c.022.039.007.1.016.147a.505.505,0,0,0,.045.167,1.9,1.9,0,0,1,.134.424,2.1,2.1,0,0,1,.181.712.117.117,0,0,0,.031.067c.138.171.1.42.26.583a.161.161,0,0,1,.023.1,2.88,2.88,0,0,0,.246.69,1.283,1.283,0,0,0,.136.391c.15.2.133.458.282.657a1.4,1.4,0,0,1,.13.29,4.939,4.939,0,0,1,.22.469,2.723,2.723,0,0,0,.3.723.214.214,0,0,1,.042.115.6.6,0,0,0,.2.416,1.207,1.207,0,0,1,.3.451,3.817,3.817,0,0,0,.288.629c.108.243.283.456.379.7a5.977,5.977,0,0,0,.668,1.1c.161.241.312.488.487.721a1.46,1.46,0,0,1,.222.353,1.534,1.534,0,0,0,.34.484,1.154,1.154,0,0,1,.19.229,3.086,3.086,0,0,0,.642.937,1.737,1.737,0,0,1,.361.444,1.8,1.8,0,0,0,.287.374,5.4,5.4,0,0,1,.65.786,2.045,2.045,0,0,0,.414.527,14.789,14.789,0,0,1,1.373,1.375,8.137,8.137,0,0,0,1.062,1.081.326.326,0,0,1,.091.085,2.36,2.36,0,0,0,.768.7.629.629,0,0,1,.138.106,6.417,6.417,0,0,0,1.149.951c.417.3.783.655,1.216.937.385.252.749.548,1.141.792a8.676,8.676,0,0,1,.961.738,1.184,1.184,0,0,0,.426.237,1.607,1.607,0,0,1,.544.281c.5.379,1.063.635,1.587.963.156.1.331.142.487.237.324.2.683.333.991.559a.053.053,0,0,0,.023.008,2.151,2.151,0,0,1,.7.309.536.536,0,0,0,.191.046c.267.037.447-.2.7-.214.391-.266.842-.418,1.255-.644.275-.15.545-.31.826-.447.211-.1.382-.263.589-.369a7.767,7.767,0,0,0,1.013-.56,5.718,5.718,0,0,0,.936-.642.2.2,0,0,1,.043-.025c.388-.25.767-.514,1.155-.764.264-.17.518-.354.775-.534.535-.376,1.015-.825,1.553-1.2.36-.252.649-.592,1.01-.848a7.829,7.829,0,0,0,.736-.707c.616-.572,1.192-1.184,1.8-1.764a3.029,3.029,0,0,0,.216-.241c.225-.266.442-.54.676-.8.19-.209.369-.429.566-.631.16-.163.24-.374.388-.543a11.409,11.409,0,0,0,.859-1.1,3.951,3.951,0,0,1,.634-.909.539.539,0,0,0,.1-.169,2.472,2.472,0,0,1,.506-.784,1.346,1.346,0,0,0,.328-.522c.115-.256.207-.522.336-.774.061-.119.156-.208.217-.329.164-.328.3-.666.5-.983a4.66,4.66,0,0,0,.688-1.526.525.525,0,0,1,.08-.153,3.493,3.493,0,0,0,.376-.962,7.208,7.208,0,0,1,.276-.764,2.3,2.3,0,0,1,.25-.692c.013-.017.01-.048.011-.073.02-.276.208-.5.222-.782a.084.084,0,0,1,.023-.044.614.614,0,0,0,.1-.352,3.95,3.95,0,0,1,.254-.763.874.874,0,0,0,.085-.324.529.529,0,0,1,.13-.439c.065-.064.044-.156.045-.238a1.505,1.505,0,0,1,.07-.541,1.466,1.466,0,0,0,.1-.586.579.579,0,0,1,.053-.341.987.987,0,0,0,.119-.576.783.783,0,0,1,.054-.391,1.225,1.225,0,0,0,.117-.629,2.053,2.053,0,0,1,.067-.742,1.879,1.879,0,0,0,.1-.662c0-.715.006-1.43.016-2.146.021-1.614.019-3.227.016-4.841-.006-2.387,0-4.774,0-7.161,0-2.129.012-4.258.007-6.387,0-.557.032-1.114,0-1.671a.832.832,0,0,1,.064-.366.367.367,0,0,0,.04-.242,3.843,3.843,0,0,1-.147-.526.141.141,0,0,0-.074-.1.908.908,0,0,0-.65-.192,4.684,4.684,0,0,1-.946.059c-.932.016-1.865,0-2.8.037-.5.02-1,.009-1.5.008-.75,0-1.5.013-2.25-.011-.9-.029-1.8-.049-2.7-.041-1.182.01-2.364.034-3.546.041-.366,0-.732-.039-1.1-.041-1.024-.006-2.049,0-3.073,0-.766,0-1.533.01-2.3.01-.708,0-1.416-.011-2.124-.01-1.707,0-3.413.041-5.12.027-.642,0-1.283-.031-1.924-.025-.866.008-1.732.034-2.6.041-.541,0-1.083-.036-1.622-.009-.6.031-1.2.018-1.8.023s-1.215-.019-1.823-.02c-.574,0-1.148-.066-1.721-.066-.5,0-.99.083-1.489.056-.138-.007-.28.019-.422,0a1.411,1.411,0,0,0-.689.066c-.084.031-.161.068-.167.162a2.779,2.779,0,0,1-.118.584.288.288,0,0,0,.029.194,1.009,1.009,0,0,1,.077.489c-.043.665.008,1.33,0,2,0,.782-.012,1.564-.012,2.345Q386.714,306.19,386.716,309.246ZM370.492,337.3a10.33,10.33,0,0,0,.7,4.227,1.03,1.03,0,0,0,.409.519.942.942,0,0,0,.974-.214,3.457,3.457,0,0,1,.844-.625,2.081,2.081,0,0,1,1.72.422,4.121,4.121,0,0,1,1.071.811,7.7,7.7,0,0,1,.484.713,8.061,8.061,0,0,0,2.817,2.311,7.215,7.215,0,0,0,3.358,1.185,2.767,2.767,0,0,0,2.788-1.827,4.665,4.665,0,0,1,.183-.751,2.21,2.21,0,0,1,1.308-.977l2.65-1.078,1.289-.525a2.794,2.794,0,0,1,1.156-.391,1.15,1.15,0,0,1,.478.218,24.56,24.56,0,0,0,2.66,1.51.809.809,0,0,0,.724.095,31.279,31.279,0,0,1-4.152-4.829,1.483,1.483,0,0,0-.826-.714c-.357-.07-.711.136-1.074.142-.535.008-.982-.407-1.5-.526a1.477,1.477,0,0,0-1.561.709c-.185.309-.3.717-.642.836a.893.893,0,0,1-.525-.02,2.978,2.978,0,0,1-1.454-.921c-.077-.089-.195-.193-.295-.131s-.056.225-.092.343c-.068.223-.4.206-.591.068s-.333-.352-.559-.406c-.176-.041-.366.026-.539-.025a1.2,1.2,0,0,1-.36-.237c-.367-.278-.725-.135-1.1-.283a1.352,1.352,0,0,1-.621-.982,3.7,3.7,0,0,0-.365-1.442c-.576-.839-1.946-.808-1.96-2.067a2.033,2.033,0,0,1,.573-1.324c.2-.231.458-.489.407-.792a1.25,1.25,0,0,0-.325-.516,1.686,1.686,0,0,1-.357-1c0-.107-.012-.244-.113-.279a.2.2,0,0,0-.132.01c-.252.087-.423.341-.681.4-.19.046-.414-.015-.566.106a.414.414,0,0,0-.083.471,2.213,2.213,0,0,0,.28.428,1.284,1.284,0,0,1,.16,1.281c-.09.177-.233.324-.312.5-.217.495.08,1.121-.191,1.588-.236.406-.815.526-1.019.949-.134.278-.067.616-.182.9-.051.127-.218.247-.307.144a.374.374,0,0,1-.052-.117.314.314,0,0,0-.326-.191c-.284.039-.33.44-.419.649-.073.172-.243.339-.425.292-.293-.075-.326-.591-.381-.824q-.145-.606-.3-1.21a.492.492,0,0,0-.07-.178.169.169,0,0,0-.166-.074.25.25,0,0,0-.114.079q-.956.973-1.908,1.951a1.048,1.048,0,0,0-.394.96C370.49,336.861,370.49,337.08,370.492,337.3Zm61.558-9.767a5.79,5.79,0,0,1,.284-1.191,3.768,3.768,0,0,1,.7-1.216,6.3,6.3,0,0,1,1.114-.923,4.412,4.412,0,0,1,.875-.523,3.666,3.666,0,0,1,1.569-.187,10.537,10.537,0,0,1,2.574.46.4.4,0,0,0,.339,0c.166-.111.058-.391-.121-.479-.3-.149-.614-.126-.87-.37-.225-.214-.331-.527-.556-.744-.279-.269-.7-.355-.976-.624-.162-.157-.267-.366-.427-.525a3.439,3.439,0,0,0-.987-.529,6.471,6.471,0,0,0-1-.507,3.586,3.586,0,0,0-3.647,1.838,4.269,4.269,0,0,0-.114,1.237,8.4,8.4,0,0,1-.155,1.2,35.158,35.158,0,0,1-4.382,11.637c.328.162.709-.088,1.075-.078.193.005.376.084.567.106a1.962,1.962,0,0,0,.836-.149l5.347-1.784a5.766,5.766,0,0,1-1.368-2.172,8.749,8.749,0,0,1-.708-2.088,6.929,6.929,0,0,1-.056-1.365C431.979,328.219,432,327.873,432.051,327.532ZM387.5,334.625a7.015,7.015,0,0,0,1.531-.154.453.453,0,0,0,.242-.106c.135-.141.045-.371-.048-.542a35.69,35.69,0,0,1-4.072-12.346,1.34,1.34,0,0,0-.158-.555,1.391,1.391,0,0,0-1.011-.46,18.08,18.08,0,0,1-4.323-1.266,2.07,2.07,0,0,0-1.126-.264c-.3.049-.557.232-.854.282-.216.036-.476.016-.606.19-.22.3.182.631.242.917.047.224-.091.622.2.73a.865.865,0,0,0,.58-.07,3.719,3.719,0,0,1,1.629-.267,3.128,3.128,0,0,1,1.878,1.023,9.271,9.271,0,0,1,1.233,1.794l.668,1.157a2.239,2.239,0,0,1,.288.649c.1.486-.113,1.054.183,1.454a1.719,1.719,0,0,0,.369.323,3.247,3.247,0,0,1,1.008,1.282.476.476,0,0,1,.045.367c-.094.222-.43.194-.63.059s-.367-.343-.605-.384c-.414-.07-.706.389-.852.783a4.915,4.915,0,0,0-.331,1.352,3.784,3.784,0,0,0,1.994,3.416A5.262,5.262,0,0,0,387.5,334.625Zm56.9-24.007a4.7,4.7,0,0,0-.086-.781,2.611,2.611,0,0,0-.822-1.7c-.409-.27-.972-.793-1.5-.706a1.35,1.35,0,0,0-.784.651.351.351,0,0,0-.089.22.362.362,0,0,0,.106.19,2.785,2.785,0,0,1,.8,2.33c-.063.275-.258.574-.54.558a.68.68,0,0,1-.271-.093,2.914,2.914,0,0,0-1.243-.494.5.5,0,0,0-.4.145.582.582,0,0,0-.1.244,3.764,3.764,0,0,0-.1.736.6.6,0,0,0,.1.424.789.789,0,0,0,.219.147,1.72,1.72,0,0,1,.734.8,2.564,2.564,0,0,0,.434.892,1.261,1.261,0,0,0,1.383.023,3.831,3.831,0,0,0,1.978-2.273A4.022,4.022,0,0,0,444.4,310.618Zm6.6,15.949c.16-.023.366.045.554-.054a.827.827,0,0,1,.355-.107.373.373,0,0,0,.184-.072c.14-.089.286-.169.423-.261a2.232,2.232,0,0,0,.829-.767.766.766,0,0,0,.012-.773,4.382,4.382,0,0,0-.491-.624.279.279,0,0,0-.058-.047,7.832,7.832,0,0,0-.923-.52,3.087,3.087,0,0,0-.329-.162c-.154-.06-.289-.191-.452-.192-.256,0-.536-.1-.76.123a.063.063,0,0,1-.046.017c-.211-.025-.351.128-.52.205a1.358,1.358,0,0,0-.818,1.308,1.283,1.283,0,0,0,.147.887c.142.523.583.7,1.023.869a.856.856,0,0,1,.25.1.346.346,0,0,0,.234.069C450.728,326.566,450.845,326.567,451,326.567ZM384.9,313.7a.611.611,0,0,0-.038-.281.176.176,0,0,0-.063-.086c-.071-.046-.165,0-.23.059-.361.3-.551.753-.883,1.082-.377.374-.713.789-1.095,1.159a.441.441,0,0,0-.113.144.324.324,0,0,0,.1.33c.084.087.193.147.285.227.292.256.379.7.693.925a3.157,3.157,0,0,0,.312.174,3.54,3.54,0,0,0,.384.227.435.435,0,0,0,.426-.022.412.412,0,0,0,.142-.285,1.65,1.65,0,0,0-.013-.326c-.049-.562.06-1.128.031-1.692a5.006,5.006,0,0,1-.035-1.119C384.827,314.047,384.887,313.871,384.9,313.7Zm28.258-37.347c-.014-.141-.038-.281-.038-.421a.385.385,0,0,0-.132-.307,2.05,2.05,0,0,0-.613-.49c-.216-.086-.421-.213-.633-.32a1.762,1.762,0,0,1-.631-.373c-.178-.211-.446-.361-.436-.689a.054.054,0,0,0-.008-.023c-.022-.045-.044-.1-.1-.1-.078.006-.079.075-.079.132,0,.241,0,.482.009.722a.385.385,0,0,0,.061.186,4.121,4.121,0,0,1,.252.747.429.429,0,0,1-.014.295,3.615,3.615,0,0,1-.425.995c-.036.043-.051.11,0,.132.153.074.261.248.452.232a1.177,1.177,0,0,1,.855.271.339.339,0,0,0,.417.007,5.574,5.574,0,0,1,.687-.4A.574.574,0,0,0,413.156,276.355Zm-11.209,5.1a2.268,2.268,0,0,1,0,.282.906.906,0,0,0,.175.584c.092.163.206.179.343.055a.6.6,0,0,0,.239-.339.234.234,0,0,1,.052-.111,2.789,2.789,0,0,1,1.15-.9,1.2,1.2,0,0,0,.541-.414.484.484,0,0,0,.061-.555.535.535,0,0,1-.043-.362.907.907,0,0,0-.059-.56.279.279,0,0,0-.4-.161c-.3.17-.573.381-.876.551a4.187,4.187,0,0,0-.965.961.156.156,0,0,0-.039.063C402.047,280.869,401.871,281.17,401.948,281.458Zm29.367,36.585c0,.042,0,.083,0,.125,0,.2.036.229.236.22a.59.59,0,0,0,.372-.117,3.945,3.945,0,0,1,.37-.248c.272-.175.575-.293.841-.478.173-.12.21-.27.065-.411a2.423,2.423,0,0,1-.516-.748,6.08,6.08,0,0,0-.483-.807c-.116-.175-.132-.394-.271-.556a2.472,2.472,0,0,1-.359-.693c-.061-.143-.175-.263-.232-.225-.1.068-.058.178-.058.275a.228.228,0,0,0,.005.049,1.2,1.2,0,0,1-.029.615.68.68,0,0,0-.007.37,2.069,2.069,0,0,1,.021.841,1.206,1.206,0,0,0-.013.4C431.336,317.114,431.215,317.584,431.314,318.044ZM411.6,278.964a.326.326,0,0,0-.289.23c-.137.308-.126.662-.24.975-.065.179-.134.4-.011.543a.523.523,0,0,0,.261.136l.952.282a2.08,2.08,0,0,1,.343.123,8.531,8.531,0,0,1,.845.673.146.146,0,0,0,.09.033c.074-.006.1-.1.1-.177a2.7,2.7,0,0,0-.6-1.979,3.232,3.232,0,0,0-.705-.495C412.12,279.177,411.832,278.954,411.6,278.964Zm-4.985-4.616c0-.157,0-.265,0-.373,0-.338-.026-.368-.368-.355a1.253,1.253,0,0,0-.174.017c-.084.015-.145.068-.133.153a2.84,2.84,0,0,1-.066.666,2.5,2.5,0,0,1-.369,1.219,4.169,4.169,0,0,1-.723,1,.835.835,0,0,0-.213.362c-.038.1.018.163.108.122.174-.08.38-.062.539-.187a.363.363,0,0,1,.214-.06,1.786,1.786,0,0,0,.791-.156,2.01,2.01,0,0,0,.41-.264,1.5,1.5,0,0,0,.252-.369.61.61,0,0,0,.028-.639A1.962,1.962,0,0,1,406.616,274.348Zm1.012,12.019q0-.4.03-.791a.975.975,0,0,0-.029-.43.316.316,0,0,0-.336-.214c-.243.056-.147.317-.287.439s-.149.468-.189.645a3.4,3.4,0,0,0-.078.952,6.806,6.806,0,0,0,.181,1.071l.168.75a.544.544,0,0,0,.143.308.337.337,0,0,0,.417-.014.56.56,0,0,0,.184-.4,1.856,1.856,0,0,0-.044-.449A10.778,10.778,0,0,1,407.628,286.367Zm1.155,2c-.008.105-.014.211-.016.316a.747.747,0,0,0,.051.336.286.286,0,0,0,.271.174.392.392,0,0,0,.263-.223,2.172,2.172,0,0,0,.217-.507,4.347,4.347,0,0,0,.122-.945,5.237,5.237,0,0,0-.2-2.228.621.621,0,0,0-.251-.339.29.29,0,0,0-.38.112c-.144.2-.045.42,0,.637a4.09,4.09,0,0,1,.094.833C408.963,287.144,408.83,287.751,408.783,288.363Zm-.341-9.627,0,.189a.713.713,0,0,0,.031.269.557.557,0,0,0,.325.285,2.2,2.2,0,0,1,.755.32c.091.088.151.206.247.29a.269.269,0,0,0,.345.039.356.356,0,0,0,.084-.185l.183-.782a.492.492,0,0,0-.366-.725,3.075,3.075,0,0,0-.506-.152c-.379-.068-1.087-.339-1.094.248Zm-2.914.862c0,.2-.01.4,0,.6.01.134.1.169.208.086a1.794,1.794,0,0,0,.281-.28,1.283,1.283,0,0,1,.944-.53.349.349,0,0,0,.334-.364c.009-.257-.006-.515.008-.771.012-.215-.048-.287-.31-.223a.345.345,0,0,0-.092.038c-.243.141-.557.078-.819.184a1.018,1.018,0,0,0-.545.792A3.864,3.864,0,0,0,405.528,279.6Zm5.118,6.165c0,.018,0,.036,0,.054.016.229.036.457.045.686.014.376.013.753-.006,1.128a3.1,3.1,0,0,1-.121.8,1.6,1.6,0,0,0-.074.254.337.337,0,0,0,.051.253.192.192,0,0,0,.235.062.242.242,0,0,0,.1-.216,1.786,1.786,0,0,1-.005-.249,1.331,1.331,0,0,1,.116-.292,1.776,1.776,0,0,0,.078-.473c.021-.184.075-.366.105-.549a3.286,3.286,0,0,0-.255-1.972.312.312,0,0,0-.081-.12.115.115,0,0,0-.135-.013.141.141,0,0,0-.043.063A1.322,1.322,0,0,0,410.646,285.763Zm1.338.444c0,.012,0,.024,0,.035.01.15.024.3.03.45.01.247.009.494,0,.741a2.049,2.049,0,0,1-.08.522,1.069,1.069,0,0,0-.049.167.222.222,0,0,0,.034.166.127.127,0,0,0,.155.041.159.159,0,0,0,.066-.142,1.268,1.268,0,0,1,0-.164.915.915,0,0,1,.076-.192,1.2,1.2,0,0,0,.056-.312c.025-.212.086-.419.1-.632a2.045,2.045,0,0,0-.207-1.02.211.211,0,0,0-.053-.079.075.075,0,0,0-.089-.008.09.09,0,0,0-.028.041A.862.862,0,0,0,411.983,286.207Zm-6.642.576q0,.174.024.348c.025.214.069.425.113.636l.225,1.075c.018.088.057.2.146.2a.147.147,0,0,0,.142-.107.422.422,0,0,0,.006-.189l-.115-.948a8.511,8.511,0,0,1-.092-1.409,7.056,7.056,0,0,1,.139-1.022.329.329,0,0,0-.015-.242c-.2-.3-.465.666-.489.773A3.71,3.71,0,0,0,405.342,286.783Zm-1.386.107c0,.071.006.142.015.213.015.13.042.259.069.388l.138.657c.011.054.035.119.089.125a.09.09,0,0,0,.087-.065.26.26,0,0,0,0-.116l-.07-.579a5.255,5.255,0,0,1-.056-.861,4.318,4.318,0,0,1,.085-.625.2.2,0,0,0-.009-.148c-.121-.185-.285.407-.3.472A2.278,2.278,0,0,0,403.956,286.89Zm-31.636,14.029a6.048,6.048,0,0,0,.681-.19,1.01,1.01,0,0,0,.589-.537.441.441,0,0,0-.008-.489c-.124-.14-.282-.06-.426-.015a.507.507,0,0,0-.167.068,6.561,6.561,0,0,1-1.007.6.485.485,0,0,0-.158.14c-.1.128-.087.216.042.307A.738.738,0,0,0,372.319,300.919Zm73.906-.279h0c-.091,0-.183-.006-.274,0a.633.633,0,0,0-.587.762.35.35,0,0,0,.55.234.638.638,0,0,0,.093-.081l.512-.507a.6.6,0,0,0,.133-.178c.069-.156.039-.215-.128-.229C446.425,300.634,446.325,300.64,446.226,300.64Zm-70.84-1.989c.143-.027.306.024.441-.1a2.572,2.572,0,0,0,.445-.473.831.831,0,0,0,.122-.7c-.056-.177-.169-.2-.316-.091a3.551,3.551,0,0,0-.283.259,3.162,3.162,0,0,1-.818.673.2.2,0,0,0-.141.206.243.243,0,0,0,.188.206A1.081,1.081,0,0,0,375.386,298.652Zm61.015.529a.5.5,0,0,0,.415-.207.212.212,0,0,0,.012-.274.933.933,0,0,0-.631-.443.342.342,0,0,0-.453.347A.6.6,0,0,0,436.4,299.181Zm.784-1.809c0-.245-.1-.376-.312-.41a1.151,1.151,0,0,1-.287-.079.18.18,0,0,0-.2.044.568.568,0,0,0-.08.646.646.646,0,0,0,.642.23.279.279,0,0,0,.114-.091A.712.712,0,0,0,437.185,297.372Zm1.244,1.161a.58.58,0,0,0,.358-.153c.1-.1.109-.171.007-.277a2.4,2.4,0,0,1-.268-.325.247.247,0,0,0-.234-.117.586.586,0,0,0-.381.393A.576.576,0,0,0,438.429,298.533Zm3.378-3.1a.493.493,0,0,0-.491.462.548.548,0,0,0,.511.5.4.4,0,0,0,.366-.452C442.189,295.635,442.035,295.432,441.807,295.435ZM408.791,272.72c0-.054-.03-.081-.077-.079a.219.219,0,0,0-.158.061c-.085.09-.172.178-.258.268-.037.038-.06.086-.023.132a.112.112,0,0,0,.158.017.843.843,0,0,0,.234-.22C408.708,272.839,408.773,272.794,408.791,272.72Zm-3.134-9.147a.222.222,0,0,0-.252.207.194.194,0,0,0,.211.234c.118-.007.249-.055.262-.206S405.794,263.593,405.657,263.573Zm-.875.383a.2.2,0,0,0,.2-.216c.006-.1-.011-.218-.146-.212a.239.239,0,0,0-.232.216C404.589,263.859,404.649,263.934,404.782,263.956Z" transform="translate(-359.116 -261.42)" fill="#072259"/>
    <path id="Path_702" data-name="Path 702" d="M442.855,379.468c0-1.361,0-2.723,0-4.084.006-1.512-.007-3.025.019-4.537a11.961,11.961,0,0,0-.042-1.586,1.857,1.857,0,0,1,.136-.789.305.305,0,0,1,.311-.215,1.474,1.474,0,0,1,.351.021,5.483,5.483,0,0,0,1.355.081c3.177,0,6.353.014,9.53-.014,1.168-.01,2.335.03,3.5,0,1.126-.027,2.251.04,3.376,0,.234-.008.468-.011.7,0a3.346,3.346,0,0,0,.878-.042,1.864,1.864,0,0,1,.7,0,5.714,5.714,0,0,0,1.357.03c.1-.007.2-.011.3-.009q2.381.051,4.763.023,1.26-.014,2.52-.006c2.084.012,4.168.012,6.251.014a13.858,13.858,0,0,0,1.862-.034,1.238,1.238,0,0,1,.5.031.312.312,0,0,1,.246.28,4.27,4.27,0,0,1,.017,1.625,1.324,1.324,0,0,0-.008.277q0,3.857,0,7.714,0,4.449,0,8.9c0,.1.014.2.023.3a3.011,3.011,0,0,1,0,1.077,1.108,1.108,0,0,0-.012.276,12.078,12.078,0,0,1-.149,2.209,6.77,6.77,0,0,0-.068.953,9.539,9.539,0,0,1-.2,1.217,4.186,4.186,0,0,0-.11.72.708.708,0,0,1-.109.408.248.248,0,0,0-.054.138c.024.386-.208.728-.191,1.112a.047.047,0,0,1,0,.025,3.6,3.6,0,0,0-.26.859c-.111.379-.282.736-.384,1.115a2.494,2.494,0,0,1-.171.551.111.111,0,0,0-.016.048,3.439,3.439,0,0,1-.438,1.246,3.127,3.127,0,0,1-.269.622.887.887,0,0,0-.226.543c-.2.356-.277.773-.514,1.115a.717.717,0,0,0-.108.226,4.982,4.982,0,0,1-.493,1.039c-.284.535-.7.985-.983,1.519s-.661,1.009-.994,1.512c-.167.251-.406.449-.564.709-.2.332-.474.609-.7.923a1.56,1.56,0,0,1-.677.543.172.172,0,0,0-.107.1,2.892,2.892,0,0,1-.784,1.053c-.361.352-.708.717-1.078,1.06-.2.188-.418.364-.629.543a2.863,2.863,0,0,0-.5.493,1.209,1.209,0,0,1-.475.322.532.532,0,0,0-.184.128,2.5,2.5,0,0,1-.753.615.183.183,0,0,0-.076.064c-.116.225-.343.313-.534.446q-.442.31-.867.643a7.81,7.81,0,0,1-1.17.778c-.3.156-.582.329-.865.5q-.5.307-1.015.605c-.506.3-1.018.582-1.531.865a2.421,2.421,0,0,1-.44.184,1.177,1.177,0,0,1-.986-.178,12.638,12.638,0,0,0-1.244-.66.383.383,0,0,1-.109-.062,1.8,1.8,0,0,0-.643-.378,3.684,3.684,0,0,1-.71-.428c-.439-.294-.908-.538-1.351-.824a4.121,4.121,0,0,1-.745-.555,1.327,1.327,0,0,0-.272-.223c-.319-.188-.581-.455-.9-.65a.886.886,0,0,1-.231-.229,1.35,1.35,0,0,0-.52-.387,1.239,1.239,0,0,1-.326-.229c-.513-.5-1.054-.961-1.61-1.407a10.519,10.519,0,0,1-.743-.787q-.474-.467-.931-.953c-.149-.159-.275-.339-.41-.51a.932.932,0,0,0-.106-.14,15.153,15.153,0,0,1-1.269-1.462,6.531,6.531,0,0,1-.738-1.017,7.619,7.619,0,0,0-.45-.667c-.213-.279-.387-.589-.6-.868-.3-.389-.511-.826-.767-1.238-.155-.248-.257-.525-.407-.779-.413-.7-.741-1.444-1.088-2.178-.2-.425-.379-.859-.562-1.29a4.112,4.112,0,0,1-.282-.856,2,2,0,0,0-.223-.531.938.938,0,0,1-.1-.257,4.194,4.194,0,0,0-.286-.879,3.394,3.394,0,0,1-.222-.825,10.214,10.214,0,0,0-.268-.994.758.758,0,0,1-.043-.118c-.029-.395-.184-.77-.2-1.161a3.6,3.6,0,0,0-.235-1.051,2,2,0,0,1-.13-.714c0-.21-.006-.42,0-.63a2.491,2.491,0,0,0-.1-.719,4.111,4.111,0,0,1-.082-1.128c0-1.655.011-3.311,0-4.966-.011-1.151-.074-2.3-.066-3.452,0-.235,0-.47,0-.706Zm10,8.913c.874,0,1.747-.014,2.62-.022,1.538-.014,3.075-.008,4.612,0,.436,0,.872.032,1.309,0a1.534,1.534,0,0,0,.511-.114c.182-.08.185-.078.171-.279a2.312,2.312,0,0,1,.02-.7,1.391,1.391,0,0,0,.03-.449c-.033-.4-.068-.8-.067-1.207,0-1.268,0-2.537,0-3.806q0-1.84,0-3.68c0-1.218,0-2.437,0-3.655s.023-2.448,0-3.673c0-.294,0-.588,0-.882a.34.34,0,0,0-.273-.369,1.231,1.231,0,0,0-.643-.059,1.469,1.469,0,0,1-.527.011,6.375,6.375,0,0,0-1.131-.034c-.26.007-.521.006-.781.006-1.655,0-3.309-.013-4.964-.012-.639,0-1.277.043-1.914.027-.681-.017-1.361-.029-2.041-.02-.177,0-.352-.02-.528-.026-.52-.018-1.04-.03-1.561,0a15.75,15.75,0,0,1-1.71.074,4.771,4.771,0,0,0-.752-.006,1.792,1.792,0,0,1-.525-.032,1.191,1.191,0,0,0-.622.016c-.222.076-.249.117-.23.349a2.126,2.126,0,0,1,.013.528,3.864,3.864,0,0,0-.04.8c.033.714.024,1.427.015,2.141-.009.663.016,1.327.014,1.991-.006,1.8-.021,3.6-.028,5.393,0,.428.023.857.017,1.285-.012.907.008,1.814.008,2.721,0,.646.019,1.293-.043,1.939a2.643,2.643,0,0,0,.032.828,1.638,1.638,0,0,1,.02.5c-.023.259.083.373.341.388.05,0,.1,0,.151,0,2.083.008,4.166.019,6.249.02C451.361,388.374,452.109,388.328,452.856,388.381Zm10.278,26.18c0,.117-.009.236,0,.352.024.248.09.282.316.177a.361.361,0,0,0,.084-.055,5.046,5.046,0,0,1,1.116-.722c.613-.312,1.184-.7,1.774-1.053.634-.379,1.221-.829,1.822-1.255.34-.241.63-.553.979-.788a2.52,2.52,0,0,0,.451-.319c.307-.324.67-.586.977-.91a2.994,2.994,0,0,1,.452-.4,2.622,2.622,0,0,0,.582-.554,2.282,2.282,0,0,1,.453-.435,1.638,1.638,0,0,0,.35-.36,6.867,6.867,0,0,1,.617-.7,10.02,10.02,0,0,0,.758-.873,6.815,6.815,0,0,1,.459-.565c.069-.073.129-.154.193-.232.245-.3.449-.626.667-.944.114-.166.236-.326.347-.494.14-.21.251-.44.405-.636a11.729,11.729,0,0,0,1.134-1.954c.2-.38.408-.751.594-1.136.218-.451.424-.907.6-1.374.092-.243.2-.479.294-.72a1.016,1.016,0,0,1,.272-.5.364.364,0,0,0,.133-.335,1.377,1.377,0,0,1,.062-.5,11.527,11.527,0,0,0,.4-1.453,5.1,5.1,0,0,0,.195-.727,6.694,6.694,0,0,1,.268-1.146,2.65,2.65,0,0,0,.093-.593,1.886,1.886,0,0,1,.074-.6,8.037,8.037,0,0,0,.22-1.16c.088-.564.021-1.143.162-1.7a.212.212,0,0,0,0-.05.476.476,0,0,0-.435-.465,1.758,1.758,0,0,0-.551.037,1.038,1.038,0,0,1-.4.031,8.61,8.61,0,0,0-1.007-.039,1.226,1.226,0,0,0-.664.092.237.237,0,0,1-.123.016,2.568,2.568,0,0,1-.971-.069c-.042-.018-.1,0-.149,0-.363-.015-.716.084-1.077.085-1.252.006-2.5-.025-3.755-.065a8.5,8.5,0,0,0-1.66.039.643.643,0,0,1-.489-.06.11.11,0,0,0-.12,0,.665.665,0,0,1-.539.056,1.649,1.649,0,0,0-.752.005,14.737,14.737,0,0,1-1.486.024.494.494,0,0,1-.173-.025c-.216-.078-.45-.049-.668-.116a.25.25,0,0,0-.172.026,2.572,2.572,0,0,1-1.364.063,2.433,2.433,0,0,0-.47-.012.3.3,0,0,0-.273.226,1.162,1.162,0,0,0-.044.474c.049.832-.028,1.663,0,2.494.018.47-.024.942.013,1.41.039.5-.014,1.006.062,1.505a1.035,1.035,0,0,1,0,.176c-.03,1.192-.086,2.383-.041,3.577.034.9.016,1.8,0,2.7-.012.941-.047,1.88-.038,2.822.021,2.185.011,4.37.015,6.554a1.966,1.966,0,0,1-.04.45,1.844,1.844,0,0,0,.015.9,2.55,2.55,0,0,1,.067.473A12.78,12.78,0,0,1,463.134,414.561Zm17.437-35.691c0-1.433,0-2.424,0-3.416,0-.89-.029-1.78,0-2.67.031-.975.011-1.949-.012-2.923-.009-.385-.143-.511-.528-.469a.765.765,0,0,0-.124.021,2.565,2.565,0,0,1-.724.08c-1.773-.007-3.546.015-5.319-.022-.832-.017-1.664-.014-2.5-.016-.471,0-.94-.052-1.411-.032-.5.021-.991.029-1.487.015-.235-.007-.471-.026-.7-.016-.79.035-1.579.039-2.369.039a4.33,4.33,0,0,0-.7,0,2.631,2.631,0,0,1-.828,0,.856.856,0,0,0-.47.049c-.222.092-.276.157-.27.393a2.076,2.076,0,0,1,0,.4,8.3,8.3,0,0,0-.067,1.358,1.481,1.481,0,0,0,.045.4,2.239,2.239,0,0,1,.061.725c-.011.2-.013.4-.01.6a5.727,5.727,0,0,1-.017,1.131.757.757,0,0,0,0,.276,3.564,3.564,0,0,1,.021,1.1,2.608,2.608,0,0,0,0,.3,2.445,2.445,0,0,1-.007.453,7.91,7.91,0,0,0-.055,1.408,6.241,6.241,0,0,0,.04.906,12.535,12.535,0,0,1,.032,1.887,8.107,8.107,0,0,1-.033.853,5.019,5.019,0,0,0-.015,1.18,3.789,3.789,0,0,1,0,.4c0,.378-.015.758.016,1.134a13.653,13.653,0,0,1,.022,1.836,6.2,6.2,0,0,0-.005,1.332.986.986,0,0,1-.04.447c-.057.194.033.322.238.312.647-.029,1.291.068,1.939.025.838-.055,1.68-.012,2.52-.01,1.613.005,3.227,0,4.84.011,1.571.007,3.142-.047,4.714,0,.932.026,1.864-.043,2.8.008.28.015.347-.045.364-.325.039-.645.087-1.29.072-1.938C480.54,383.555,480.59,380.992,480.571,378.87ZM444.09,390.341c0,.136,0,.211,0,.287a2.419,2.419,0,0,0,.113.842,2.944,2.944,0,0,1,.222.954,3.527,3.527,0,0,0,.2,1.008c.114.412.212.826.309,1.241.068.293.138.587.224.875.2.665.492,1.3.674,1.969a2.58,2.58,0,0,0,.171.5c.149.291.28.588.408.888.151.355.354.686.5,1.046a3.362,3.362,0,0,0,.2.487q.6,1.018,1.178,2.048c.189.337.4.661.6.989a1.25,1.25,0,0,1,.177.355.937.937,0,0,0,.2.4,4.258,4.258,0,0,0,.694.759.228.228,0,0,1,.068.074c.165.284.376.536.563.8a6.189,6.189,0,0,0,.585.814c.311.318.583.673.918.967a2.271,2.271,0,0,1,.313.362,2.744,2.744,0,0,0,.632.644,2.522,2.522,0,0,1,.351.323,3.941,3.941,0,0,0,.526.54,3.411,3.411,0,0,1,.447.4,5.951,5.951,0,0,0,.948.863,3.032,3.032,0,0,1,.421.318,2.366,2.366,0,0,0,.377.292,1.069,1.069,0,0,1,.34.329.83.83,0,0,0,.6.454.167.167,0,0,1,.07.027c.268.171.544.332.8.518.157.114.318.217.482.319a3.227,3.227,0,0,1,.4.267c.263.224.572.38.847.586a7.566,7.566,0,0,0,.846.488c.19.108.373.227.572.317a2.382,2.382,0,0,1,.416.232.929.929,0,0,0,.363.17c.153.029.237-.024.244-.172a.916.916,0,0,1,.125-.577c.022-.028.013-.081.014-.123,0-.185,0-.37,0-.555a.24.24,0,0,0-.028-.145.721.721,0,0,1-.127-.525,1.373,1.373,0,0,1,.091-.788.1.1,0,0,0,0-.119.759.759,0,0,1-.1-.557c.048-.865-.006-1.73.015-2.6.016-.646-.006-1.293-.01-1.94-.014-2.017-.007-4.033-.008-6.049q0-3.479,0-6.958c0-.74-.031-1.481.014-2.218.039-.616-.031-1.225-.019-1.838.007-.332-.095-.425-.419-.409a8.511,8.511,0,0,1-.983,0c-.066,0-.148.007-.2-.027a.911.911,0,0,0-.583-.1c-.664.007-1.326.052-1.99.038a.286.286,0,0,0-.146.025.9.9,0,0,1-.54.083c-.546-.033-1.092-.014-1.638-.013-.992,0-1.983-.046-2.974-.014a1.732,1.732,0,0,1-.4-.011,3.719,3.719,0,0,0-1.122-.071,3,3,0,0,1-.579.017c-.645-.059-1.293.023-1.938-.037-.394-.037-.79.02-1.183-.005-.7-.046-1.393.04-2.09.029a.334.334,0,0,0-.146.031.91.91,0,0,1-.419.067c-.143,0-.286,0-.428.01-.2.016-.229.043-.223.247S444.082,390.2,444.09,390.341Z" transform="translate(-413.364 -331.09)" fill="#072259"/>
    <path id="Path_703" data-name="Path 703" d="M474.985,380.386c0-.21,0-.42,0-.63a.678.678,0,0,1,.14-.422,4.411,4.411,0,0,1,.555-.744,1.112,1.112,0,0,1,.635-.271c.125-.013.252-.017.375-.038.154-.026.187-.07.18-.22a1.154,1.154,0,0,0-.037-.223,1.794,1.794,0,0,1,.347-1.489c.2-.239.365-.5.573-.735a1.069,1.069,0,0,1,.267-.228.487.487,0,0,1,.481.016,1.84,1.84,0,0,1,.683.655,4.847,4.847,0,0,1,.511,1,1.235,1.235,0,0,1,0,.769c-.009.033-.024.063-.035.095-.093.277-.055.334.228.338.042,0,.084,0,.126,0a1.448,1.448,0,0,1,1.275.715,2.269,2.269,0,0,1,.267.646.23.23,0,0,1,0,.173,1.6,1.6,0,0,0-.072.67c0,.277,0,.554-.005.832a.464.464,0,0,1-.124.345.364.364,0,0,1-.616-.026,1.345,1.345,0,0,1-.2-.345,1.686,1.686,0,0,0-.6-.725.8.8,0,0,0-.392-.156.948.948,0,0,0-.42.138c-.052.021-.045.09,0,.13a.707.707,0,0,0,.273.173.441.441,0,0,1,.362.521c0,.075-.022.15-.03.224a.588.588,0,0,0,.11.453.451.451,0,0,1,.1.3c0,.243,0,.487,0,.731a.436.436,0,0,1-.343.44c-.149.045-.285-.021-.42-.2s-.166-.171-.268.02c-.125.236-.249.473-.379.707a.25.25,0,0,1-.415.1.792.792,0,0,1-.369-.459c-.043-.171-.148-.318-.193-.491-.026-.1-.115-.114-.2-.04-.062.055-.11.128-.171.184a.284.284,0,0,1-.424,0,.975.975,0,0,1-.132-1.172.617.617,0,0,0,.121-.589.569.569,0,0,1,.437-.727.322.322,0,0,0,.137-.059.216.216,0,0,0,.083-.2c-.017-.1-.1-.11-.175-.109-.21,0-.42.006-.629.017a.337.337,0,0,0-.271.2,1.456,1.456,0,0,1-.3.367.8.8,0,0,0-.264.419.257.257,0,0,1-.253.208.323.323,0,0,1-.332-.13.9.9,0,0,1-.19-.536c0-.109,0-.218,0-.327s0-.2,0-.3Z" transform="translate(-434.003 -335.129)" fill="#072259"/>
    <path id="Path_704" data-name="Path 704" d="M455.69,377.586c-.007.159-.018.319-.02.478s.026.2.2.231a2.163,2.163,0,0,1,.544.087.98.98,0,0,1,.3.177,3.444,3.444,0,0,1,.555.58,1.281,1.281,0,0,1,.244.852,3.412,3.412,0,0,0-.007.6,3.087,3.087,0,0,1-.134.791.244.244,0,0,1-.2.232.3.3,0,0,1-.315-.114,3.5,3.5,0,0,1-.246-.378,1.15,1.15,0,0,0-.831-.655.878.878,0,0,1-.238-.078.248.248,0,0,0-.219,0c-.1.044-.214.08-.235.2s.059.187.143.248a.622.622,0,0,1,.258.516.952.952,0,0,0,.242.583,1.2,1.2,0,0,1,.285,1.053,1.316,1.316,0,0,1-.158.394.359.359,0,0,1-.609.023c-.046-.07-.087-.143-.135-.212-.037-.053-.065-.132-.149-.111-.066.016-.069.087-.081.144-.018.082-.03.165-.051.247a.907.907,0,0,1-.071.215c-.209.38-.665.529-.955.06a.979.979,0,0,1-.143-.318,1.518,1.518,0,0,0-.084-.237c-.018-.046-.037-.1-.092-.111-.076-.012-.091.06-.118.109-.037.066-.07.134-.105.2a.343.343,0,0,1-.6.03,1.467,1.467,0,0,1-.2-1.111.42.42,0,0,1,.155-.253.531.531,0,0,0,.165-.525c-.007-.05-.017-.1-.023-.15-.041-.351.092-.515.448-.557a.637.637,0,0,0,.148-.024.216.216,0,0,0,.136-.2c.01-.1-.06-.13-.14-.146a.6.6,0,0,1-.2-.1.4.4,0,0,0-.388-.039.924.924,0,0,0-.575.49.273.273,0,0,1-.066.106,1.089,1.089,0,0,0-.3.571.386.386,0,0,1-.451.342.293.293,0,0,1-.307-.209,1.216,1.216,0,0,1-.083-.493,3.4,3.4,0,0,0-.036-.853,1.829,1.829,0,0,1,.111-.842.183.183,0,0,1,.047-.087,6.226,6.226,0,0,1,.947-.759,2.842,2.842,0,0,1,.577-.224c.19-.057.235-.112.2-.309a4.2,4.2,0,0,1-.039-.627,1.764,1.764,0,0,1,.405-1.164,6.975,6.975,0,0,1,.628-.784.51.51,0,0,1,.643-.086,1.03,1.03,0,0,1,.272.18,3.756,3.756,0,0,1,.868,1.161A2.1,2.1,0,0,1,455.69,377.586Z" transform="translate(-418.464 -335.123)" fill="#072259"/>
    <path id="Path_705" data-name="Path 705" d="M469.556,399.468c-.059.424-.032.913-.1,1.4a.665.665,0,0,1-.26.467.246.246,0,0,1-.343.014.9.9,0,0,1-.379-.6.861.861,0,0,0-.279-.489,2.237,2.237,0,0,0-.356-.28.581.581,0,0,0-.776.187.105.105,0,0,0,.026.155.543.543,0,0,0,.127.08c.24.092.29.334.411.519a.188.188,0,0,1,.005.172.365.365,0,0,0,.072.4,1.425,1.425,0,0,1,.152,1.275.272.272,0,0,1-.263.231.293.293,0,0,1-.341-.15.636.636,0,0,0-.166-.219c-.1-.083-.191-.058-.226.071a.826.826,0,0,0-.018.2,1.013,1.013,0,0,1-.485.756.341.341,0,0,1-.433-.083,1.867,1.867,0,0,1-.378-.675.882.882,0,0,0-.046-.143.093.093,0,0,0-.164-.031c-.055.052-.1.117-.15.17a.344.344,0,0,1-.561-.042,1.007,1.007,0,0,1-.015-1.233.486.486,0,0,0,.114-.444.672.672,0,0,1,.063-.464.469.469,0,0,1,.315-.266.56.56,0,0,0,.2-.1c.165-.109.17-.147.03-.275a.521.521,0,0,0-.686-.075,1.945,1.945,0,0,1-.233.091.962.962,0,0,0-.343.29c-.122.149-.245.3-.371.444a.837.837,0,0,0-.186.266.219.219,0,0,1-.254.159c-.114-.016-.144-.1-.154-.2a.734.734,0,0,0-.075-.239.461.461,0,0,1-.055-.268,2.608,2.608,0,0,0-.027-.7,1.352,1.352,0,0,1,.1-.781c.091-.188.2-.362.3-.538a1.257,1.257,0,0,1,.711-.512,1.186,1.186,0,0,1,.577-.11c.142.02.206-.068.213-.219a.841.841,0,0,0-.007-.126,2.873,2.873,0,0,1,.134-1.287,2.325,2.325,0,0,1,.743-1.048.4.4,0,0,1,.148-.091.271.271,0,0,0,.188-.181c.072-.158.252-.192.334-.052a7.4,7.4,0,0,0,.676.738,2.056,2.056,0,0,1,.428.866.447.447,0,0,0,.082.208.439.439,0,0,1,.037.5,1.489,1.489,0,0,0-.114.436c-.029.185.07.288.256.265a.44.44,0,0,0,.165-.057.358.358,0,0,1,.383,0,2.3,2.3,0,0,1,.73.519,1.276,1.276,0,0,0,.137.148A.989.989,0,0,1,469.556,399.468Z" transform="translate(-426.221 -347.726)" fill="#072259"/>
    <path id="Path_706" data-name="Path 706" d="M507.423,433c-.014.125-.031.25-.041.376-.017.193.023.25.213.312.1.034.208.065.312.1a1.668,1.668,0,0,1,1.007.852,1.75,1.75,0,0,1,.166.5,2.376,2.376,0,0,1-.263,1.841c-.1.137-.209.136-.289-.013-.1-.185-.2-.37-.283-.561a1.067,1.067,0,0,0-.369-.439,1.2,1.2,0,0,0-.839-.257.244.244,0,0,0-.216.183c-.032.106.056.146.132.184a1.069,1.069,0,0,1,.295.233.479.479,0,0,1,.115.576c-.109.225.03.417.114.591a1.5,1.5,0,0,1,.094.762c-.007.163-.153.274-.222.417-.033.068-.119.047-.175,0a1.707,1.707,0,0,1-.237-.294c-.112-.16-.187-.158-.3,0a.425.425,0,0,0-.073.186,1.167,1.167,0,0,1-.152.37.388.388,0,0,1-.432.232.425.425,0,0,1-.365-.339,1.349,1.349,0,0,0-.219-.448c-.088-.129-.15-.132-.262-.027-.068.063-.125.138-.2.2-.174.142-.355.072-.379-.149a.856.856,0,0,0-.091-.386c-.05-.082,0-.177.016-.268a4.167,4.167,0,0,0,.16-1.009.457.457,0,0,1,.156-.358c.1-.1.209-.195.314-.291.14-.127.116-.3-.07-.332a.814.814,0,0,0-.608.06,1.714,1.714,0,0,0-.673.756,3.672,3.672,0,0,1-.29.442.165.165,0,0,1-.31-.1,1.3,1.3,0,0,1,.013-.226.346.346,0,0,0-.095-.344.362.362,0,0,1-.076-.284c0-.286-.008-.572,0-.857a1.618,1.618,0,0,1,.435-.917,1.177,1.177,0,0,1,.867-.5c.341-.025.464-.194.4-.534a1.956,1.956,0,0,1,.626-1.793c.092-.1.172-.206.265-.3a.507.507,0,0,1,.8-.061,2.5,2.5,0,0,1,.883,1.283A1.732,1.732,0,0,1,507.423,433Z" transform="translate(-452.116 -371.098)" fill="#072259"/>
    <path id="Path_707" data-name="Path 707" d="M513.67,456.1a1.384,1.384,0,0,1,.18-.842.965.965,0,0,1,.543-.465c.32-.132.585-.357.887-.518a.182.182,0,0,0,.075-.26c-.025-.062-.062-.119-.087-.181a.792.792,0,0,1,.026-.7,10.361,10.361,0,0,1,.758-1.094,1.183,1.183,0,0,1,.252-.246.456.456,0,0,1,.621-.023,2.758,2.758,0,0,1,.74.782,4.439,4.439,0,0,1,.277.477,1.008,1.008,0,0,1,.019.918c-.085.184-.054.236.156.3a3.1,3.1,0,0,1,1.242.689.9.9,0,0,1,.283.513,7.848,7.848,0,0,1,.116,1.226,3.034,3.034,0,0,1-.174.86.31.31,0,0,1-.262.245.337.337,0,0,1-.3-.2c-.153-.231-.243-.5-.373-.738a1.011,1.011,0,0,0-.716-.5.443.443,0,0,0-.349.117.238.238,0,0,0,0,.36,2.846,2.846,0,0,1,.292.524,1.3,1.3,0,0,1,.172.574,1.452,1.452,0,0,0,.124.537.67.67,0,0,1-.12.685.16.16,0,0,1-.262.019,2.694,2.694,0,0,0-.334-.223c-.12-.084-.192-.061-.222.075a4.818,4.818,0,0,1-.346.75.2.2,0,0,1-.348.058,2.007,2.007,0,0,1-.234-.3c-.087-.123-.164-.253-.251-.377-.117-.167-.215-.173-.369-.028-.061.058-.115.124-.178.178-.152.127-.275.089-.3-.1a1.242,1.242,0,0,0-.095-.31.763.763,0,0,1,.011-.658,1.726,1.726,0,0,1,.086-.182,1.031,1.031,0,0,0,.154-.649.43.43,0,0,1,.217-.447.685.685,0,0,0,.176-.178c.126-.156.106-.236-.076-.332a.634.634,0,0,0-.746.106,4.5,4.5,0,0,0-.4.387,3.722,3.722,0,0,1-.4.339.174.174,0,0,1-.305-.1A3.842,3.842,0,0,1,513.67,456.1Z" transform="translate(-458.999 -384.512)" fill="#072259"/>
    <path id="Path_708" data-name="Path 708" d="M525.139,436.061a3.089,3.089,0,0,1,.206-1.09,1.192,1.192,0,0,1,.276-.414,1.56,1.56,0,0,1,.8-.444.725.725,0,0,0,.121-.033c.337-.124.339-.127.337-.485,0-.252.012-.5,0-.756a.969.969,0,0,1,.278-.707c.19-.223.408-.423.61-.636a.35.35,0,0,1,.289-.124.7.7,0,0,0,.126,0,.645.645,0,0,1,.646.287,3.964,3.964,0,0,1,.471.649c.1.219.176.45.279.671a1.5,1.5,0,0,1,.01.673,1.153,1.153,0,0,1-.017.125c-.016.121.035.2.157.212a1.643,1.643,0,0,1,1.01.515,1.263,1.263,0,0,1,.421.9c.017.445,0,.887-.015,1.33a1.529,1.529,0,0,1-.02.226.216.216,0,0,1-.372.146,1.094,1.094,0,0,1-.4-.541.876.876,0,0,0-.666-.548,1.371,1.371,0,0,0-.425-.01.293.293,0,0,0-.225.145.12.12,0,0,0,.032.193c.089.063.173.133.264.192a.459.459,0,0,1,.22.519.8.8,0,0,0,.139.665,1.639,1.639,0,0,1,.185.412.379.379,0,0,1-.1.418,1.422,1.422,0,0,0-.205.253c-.082.126-.173.137-.295.042-.073-.057-.134-.128-.2-.187-.162-.135-.294-.111-.371.085a2.557,2.557,0,0,1-.346.582c-.143.193-.327.176-.453-.035-.112-.188-.193-.39-.292-.584-.076-.148-.174-.171-.3-.071a2.221,2.221,0,0,0-.2.193c-.154.154-.29.128-.4-.059a1.014,1.014,0,0,1,.056-1.179.562.562,0,0,0,.109-.375c0-.084,0-.168,0-.252a.528.528,0,0,1,.408-.606c.144-.059.155-.1.055-.213a.449.449,0,0,0-.306-.145.916.916,0,0,0-.9.433c-.054.075-.112.147-.166.222a.542.542,0,0,1-.643.181.283.283,0,0,1-.165-.207A1.584,1.584,0,0,1,525.139,436.061Z" transform="translate(-466.414 -371.385)" fill="#072259"/>
    <path id="Path_709" data-name="Path 709" d="M506.048,409.273c-.236-.184-.379-.453-.612-.622a3.517,3.517,0,0,0-.5-.238.575.575,0,0,1-.3-.382.478.478,0,0,1,.13-.509,3.014,3.014,0,0,1,.738-.52.881.881,0,0,1,1.172.512.516.516,0,0,1-.029.416,1.2,1.2,0,0,0-.106.361c-.031.206.048.3.251.313.025,0,.05,0,.076,0,.256,0,.326-.1.214-.33a.448.448,0,0,1,.009-.452,1.7,1.7,0,0,1,.26-.455.749.749,0,0,1,.58-.254.69.69,0,0,0,.426-.121.791.791,0,0,1,.97.087.91.91,0,0,0,.581.207c.142.008.286,0,.428.005a.62.62,0,0,0,.336-.089,1.5,1.5,0,0,1,.663-.214,1.235,1.235,0,0,0,.581-.147.371.371,0,0,1,.2-.041c.361,0,.721-.04,1.082-.006a1,1,0,0,0,.505-.135.664.664,0,0,1,.512-.042.831.831,0,0,0,.681-.045.722.722,0,0,1,1.116.489c.04.189.053.2.25.2.135,0,.268,0,.4.009a1.682,1.682,0,0,1,1.042.5.562.562,0,0,1,.048.739c-.021.036-.053.065-.076.1-.085.131-.065.19.086.191a.869.869,0,0,1,.47.158.376.376,0,0,1,.021.661,2.674,2.674,0,0,1-.277.174.4.4,0,0,0-.218.342c-.039.481-.079.512-.55.485a1.044,1.044,0,0,0-.418.077.445.445,0,0,1-.343,0,1.092,1.092,0,0,0-.4-.055.773.773,0,0,1-.365-.081c-.248-.142-.293-.228-.254-.511.006-.041.02-.082.025-.123.022-.174-.04-.24-.212-.2s-.344.068-.52.087a2.2,2.2,0,0,1-.651-.036,1.451,1.451,0,0,0-1.07.139.967.967,0,0,1-.454.135,1.888,1.888,0,0,0-.979.351.921.921,0,0,1-.132.074.433.433,0,0,0-.258.317.461.461,0,0,1-.544.365c-.033,0-.077-.005-.1-.026-.135-.155-.318-.128-.491-.14a.37.37,0,0,1-.275-.1.272.272,0,0,0-.18-.079c-.155-.022-.241-.148-.331-.253a.327.327,0,0,1,.052-.395,1.324,1.324,0,0,1,.287-.245c.041-.026.095-.058.061-.117s-.09-.041-.136-.026a2.16,2.16,0,0,0-.709.312,2.555,2.555,0,0,1-.327.232,1.854,1.854,0,0,1-1.181.093,2.235,2.235,0,0,0-.693.027,5.514,5.514,0,0,0-1.037.3.257.257,0,0,1-.316-.087,2.89,2.89,0,0,1-.415-.655.655.655,0,0,1,.154-.7.42.42,0,0,1,.514-.073A.787.787,0,0,0,506.048,409.273Zm8.326-1.127a.607.607,0,0,0-.177-.242.327.327,0,0,1-.115-.188c-.011-.131-.092-.162-.208-.159a.481.481,0,0,0-.332.085.307.307,0,0,1-.212.067,2.233,2.233,0,0,0-.707.141,2.148,2.148,0,0,0-.509.258.74.74,0,0,0,.289-.022,5.549,5.549,0,0,1,.965-.162.77.77,0,0,1,.487.086A.88.88,0,0,0,514.374,408.147Zm-4.162,1.486a.839.839,0,0,0,.37.109.635.635,0,0,0,.505-.233.1.1,0,0,0,.031-.113.082.082,0,0,0-.109-.034A5,5,0,0,0,510.212,409.632Zm-4.053-.331-.023.06c.2.093.392.191.592.277a.1.1,0,0,0,.137-.076.09.09,0,0,0-.062-.119A1.777,1.777,0,0,0,506.159,409.3Zm4.423-.87c-.012-.1-.091-.134-.163-.167s-.147-.053-.179.012c-.043.086.057.1.11.124C510.421,408.43,510.492,408.486,510.582,408.431Z" transform="translate(-453.198 -355.241)" fill="#072259"/>
    <path id="Path_710" data-name="Path 710" d="M505.849,393.6a.74.74,0,0,1,.6.188.873.873,0,0,0,.622.155c.068,0,.146,0,.166-.083s-.052-.118-.1-.16a.513.513,0,0,0-.329-.111.952.952,0,0,1-.787-.378.733.733,0,0,0-.235-.187,2.422,2.422,0,0,1-.6-.572.3.3,0,0,1,.03-.483,1.979,1.979,0,0,1,.907-.47.585.585,0,0,1,.7.665c-.009.083-.04.163-.056.245a.52.52,0,0,0,.264.55.241.241,0,0,0,.376-.211c.009-.167,0-.336,0-.5a.649.649,0,0,1,.375-.608,1.192,1.192,0,0,1,.6-.179.647.647,0,0,0,.242-.063.886.886,0,0,1,.844.055,3.063,3.063,0,0,0,.638.3.907.907,0,0,0,.779-.039,2.494,2.494,0,0,1,.849-.286,9.563,9.563,0,0,1,1.578-.147,2.058,2.058,0,0,0,.725-.2.457.457,0,0,1,.319-.037,1.775,1.775,0,0,0,.8.02c.125-.01.252-.02.377-.017a.539.539,0,0,1,.581.559c.017.21.042.24.243.216a4.71,4.71,0,0,1,.88.03.893.893,0,0,1,.628.337.567.567,0,0,1,.138.584.465.465,0,0,0-.029.122c-.007.091-.081.182-.038.269.052.1.168.036.253.059.326.085.423.227.383.565a.771.771,0,0,1-.345.609,1.221,1.221,0,0,0-.327.442c-.137.238-.217.28-.487.223a.913.913,0,0,0-.35-.007,1.445,1.445,0,0,1-.477,0,.329.329,0,0,0-.264.043c-.085.061-.151.021-.225-.035a.721.721,0,0,1-.256-.675c.02-.384.021-.4-.354-.362a6.254,6.254,0,0,1-.95-.029c-.287-.013-.569.042-.854.016-.177-.017-.281.138-.42.209a.725.725,0,0,1-.4.115,2.048,2.048,0,0,0-.85.267c-.046.016-.083.07-.128.076a.418.418,0,0,0-.362.4c-.038.2-.182.286-.336.381a1.1,1.1,0,0,1-.733.1.243.243,0,0,1-.2-.139.394.394,0,0,0-.311-.227.709.709,0,0,1-.242-.133.329.329,0,0,1-.116-.493.782.782,0,0,1,.488-.368c.433-.1.859-.224,1.287-.339a.393.393,0,0,0,.094-.035.114.114,0,0,0,.062-.126.1.1,0,0,0-.111-.082.962.962,0,0,0-.463.1,2.565,2.565,0,0,1-.862.267.945.945,0,0,0-.352.13c-.319.195-.678.316-.981.54a.466.466,0,0,1-.292.056l-1.361-.006a1.028,1.028,0,0,0-.389.083,6.206,6.206,0,0,1-.74.237.436.436,0,0,1-.536-.223,1.123,1.123,0,0,1-.217-.732c.027-.343.169-.479.516-.47C505.765,393.6,505.807,393.6,505.849,393.6Zm9.985-.786a4.715,4.715,0,0,1,.66,0,.42.42,0,0,0,.222-.027.1.1,0,0,0,.006-.177.364.364,0,0,0-.119-.04,2.273,2.273,0,0,0-.8-.052,3.809,3.809,0,0,1-1.028,0,.221.221,0,0,1-.24-.208.671.671,0,0,1-.006-.176c.011-.13-.063-.185-.175-.2a.78.78,0,0,0-.225-.01,4.876,4.876,0,0,1-.554.02,5.339,5.339,0,0,0-1.2.077c-.056.014-.128.014-.141.085-.01.053.044.086.078.122s.072.08.124.081a1.584,1.584,0,0,0,.6-.014,3.126,3.126,0,0,1,1.12-.13c.19,0,.245.039.276.224a.444.444,0,0,0,.383.374A3.96,3.96,0,0,0,515.834,392.818Zm-5.166-.011c.17,0,.265-.036.259-.091-.011-.1-.116-.106-.181-.15a.322.322,0,0,0-.113-.05c-.091-.019-.206.053-.208.132s.066.127.141.147A.588.588,0,0,0,510.668,392.807Z" transform="translate(-453.498 -345.261)" fill="#072259"/>
    <path id="Path_711" data-name="Path 711" d="M505.713,378.6a.74.74,0,0,1,.582.171.882.882,0,0,0,.668.169c.057-.006.124-.015.145-.081s-.035-.106-.076-.147a.411.411,0,0,0-.246-.116l-.3-.038a.765.765,0,0,1-.505-.256,1.908,1.908,0,0,0-.4-.338,2.618,2.618,0,0,1-.557-.576c-.11-.135-.085-.248.029-.387a1.183,1.183,0,0,1,.431-.3,3.9,3.9,0,0,1,.391-.175.579.579,0,0,1,.633.112.558.558,0,0,1,.165.62.56.56,0,0,0,.063.547.444.444,0,0,0,.192.157.237.237,0,0,0,.356-.214,2.891,2.891,0,0,0-.007-.352c-.035-.558.261-.808.847-.931a3.1,3.1,0,0,0,.439-.1.841.841,0,0,1,.75.059c.151.089.315.158.471.238a1.126,1.126,0,0,0,1.192-.07,1.218,1.218,0,0,1,.522-.159,11.468,11.468,0,0,1,1.273-.162c.117,0,.235-.006.353-.009a1.39,1.39,0,0,0,.587-.12.883.883,0,0,1,.706-.065,1.291,1.291,0,0,0,.573-.023,2.713,2.713,0,0,1,.478-.015.543.543,0,0,1,.512.5c0,.042,0,.084,0,.126.007.111.062.18.177.157a3.772,3.772,0,0,1,.9.02.9.9,0,0,1,.688.368.523.523,0,0,1,.115.54,1.265,1.265,0,0,0-.042.2c-.05.227-.05.227.188.262a.84.84,0,0,1,.359.174.2.2,0,0,1,.08.178.907.907,0,0,1-.353.813,1.2,1.2,0,0,0-.328.441c-.141.24-.223.286-.487.233a.87.87,0,0,0-.324-.011,1.768,1.768,0,0,1-.527,0,.3.3,0,0,0-.173,0c-.073.033-.144.111-.231.051a.552.552,0,0,1-.262-.3,1.1,1.1,0,0,1-.049-.5c.046-.251-.012-.321-.257-.3a10.765,10.765,0,0,1-1.225-.029c-.242,0-.484.029-.728.028a.3.3,0,0,0-.18.081,1.135,1.135,0,0,1-.742.256.682.682,0,0,0-.356.1,3.845,3.845,0,0,1-.524.233.464.464,0,0,0-.308.33.738.738,0,0,1-.694.551c-.083.006-.168.008-.252.007a.358.358,0,0,1-.355-.193.309.309,0,0,0-.232-.174.941.941,0,0,1-.314-.157.3.3,0,0,1-.132-.409.683.683,0,0,1,.448-.413c.22-.05.436-.117.659-.162.252-.051.489-.17.748-.213a.13.13,0,0,0,.121-.161c-.02-.088-.1-.086-.164-.078a1.3,1.3,0,0,0-.483.132,2.011,2.011,0,0,1-.692.221,1.285,1.285,0,0,0-.519.179c-.293.188-.635.286-.913.5a.482.482,0,0,1-.315.065l-1.336-.007a1.112,1.112,0,0,0-.414.085c-.233.089-.477.157-.716.23a.419.419,0,0,1-.539-.208,1.133,1.133,0,0,1-.226-.731c.019-.262.134-.519.513-.471A1.064,1.064,0,0,0,505.713,378.6Zm8.682-1.091c.008.166.144.187.261.22a9.233,9.233,0,0,0,1.846.069.108.108,0,0,0,.124-.1c.006-.09-.069-.1-.135-.116a2.5,2.5,0,0,0-.946-.046,3.816,3.816,0,0,1-1.117-.051,1.432,1.432,0,0,1-.044-.369.151.151,0,0,0-.138-.178.959.959,0,0,0-.2-.018c-.427.005-.854.017-1.281.019a2.323,2.323,0,0,0-.543.091c-.1.025-.12.081-.056.162a.21.21,0,0,0,.14.1,1.33,1.33,0,0,0,.573-.014,3.011,3.011,0,0,1,1.164-.13c.173,0,.215.042.264.207C514.325,377.409,514.293,377.5,514.4,377.505Zm-3.889.289a.81.81,0,0,0,.084,0c.073-.011.175,0,.2-.079s-.079-.11-.14-.147a.663.663,0,0,0-.133-.068.185.185,0,0,0-.217.121c-.028.1.053.13.121.157A.294.294,0,0,0,510.506,377.795Z" transform="translate(-453.413 -335.559)" fill="#072259"/>
    <path id="Path_712" data-name="Path 712" d="M461.04,434.525l-.044.037a1.413,1.413,0,0,1-.47.056c-.386,0-.773-.006-1.159-.006a.589.589,0,0,0-.294.051c-.23.125-.494.152-.732.26a.363.363,0,0,1-.443-.076,1.16,1.16,0,0,1-.282-1.052c.033-.142.125-.272.263-.274.283,0,.585-.082.838.141a.834.834,0,0,0,.687.177c.116-.015.14-.085.067-.175a.413.413,0,0,0-.329-.161.926.926,0,0,1-.782-.384.573.573,0,0,0-.172-.146,2.608,2.608,0,0,1-.592-.577.338.338,0,0,1,.029-.548,1.97,1.97,0,0,1,.837-.443.536.536,0,0,1,.632.374.74.74,0,0,1-.013.494.507.507,0,0,0,.152.527.262.262,0,0,0,.3.083.239.239,0,0,0,.146-.266c0-.126,0-.252-.008-.378a.833.833,0,0,1,.8-.864,1.77,1.77,0,0,0,.389-.09.785.785,0,0,1,.747.056,4.451,4.451,0,0,0,.606.3.8.8,0,0,0,.75-.034,1.577,1.577,0,0,1,.8-.278,1.258,1.258,0,0,0,.247-.049,3.888,3.888,0,0,1,.9-.1,2.164,2.164,0,0,0,1.05-.206.345.345,0,0,1,.292-.035,1.046,1.046,0,0,0,.568.039c.157-.023.318-.017.477-.032.34-.032.562.118.62.565.026.2.035.22.229.206a5.915,5.915,0,0,1,.755.021.9.9,0,0,1,.655.332.589.589,0,0,1,.145.606,2.7,2.7,0,0,0-.068.294c-.021.091,0,.15.106.147a.567.567,0,0,1,.126,0,.432.432,0,0,1,.383.518.951.951,0,0,1-.326.678c-.034,0-.048.017-.046.049a.09.09,0,0,0-.078.1l-.024.043c-.111.061-.144.177-.2.279a.308.308,0,0,1-.389.178c-.323-.067-.65.028-.974-.016-.028,0-.063.021-.091.038a.185.185,0,0,1-.247-.046.6.6,0,0,1-.182-.293,1.362,1.362,0,0,1-.023-.521c.021-.192-.042-.232-.251-.191a.243.243,0,0,0-.212.012c-.158.011-.311-.046-.467-.047-.358,0-.716,0-1.074,0-.1,0-.2,0-.247.118h-.019v.019a.261.261,0,0,0-.214.123l-.044.039c-.133.014-.265.029-.4.041a.5.5,0,0,0-.291.059,2.05,2.05,0,0,1-.538.261.526.526,0,0,0-.347.415.42.42,0,0,1-.1.226,1,1,0,0,1-.933.243.162.162,0,0,1-.125-.078.574.574,0,0,0-.422-.317.586.586,0,0,1-.146-.1.319.319,0,0,1-.13-.435.7.7,0,0,1,.448-.41c.412-.109.821-.229,1.232-.344a.7.7,0,0,0,.072-.021c.065-.028.124-.071.108-.149s-.087-.1-.16-.085a1.184,1.184,0,0,0-.409.117,2.109,2.109,0,0,1-.76.253,1,1,0,0,0-.4.15,1.3,1.3,0,0,1-.368.208A1.02,1.02,0,0,0,461.04,434.525Zm4.4-2.679c-.076,0-.151,0-.227,0a3.161,3.161,0,0,0-.849.083c-.148.044-.161.093-.053.2a.212.212,0,0,0,.147.089,1.368,1.368,0,0,0,.5-.014,2.664,2.664,0,0,1,1.04-.137c.249,0,.271.014.323.253a.4.4,0,0,0,.308.327,1.946,1.946,0,0,0,.494.083c.394.009.788-.051,1.182-.007a.368.368,0,0,0,.125-.011.115.115,0,0,0,.1-.123.109.109,0,0,0-.1-.1,2.314,2.314,0,0,0-.672-.08,4.077,4.077,0,0,1-1.051.015c-.23-.032-.289-.071-.3-.305-.014-.256-.061-.308-.312-.3C465.878,431.837,465.66,431.849,465.442,431.846Zm-2.649.87c.06-.024.179,0,.2-.087s-.1-.11-.164-.155a.178.178,0,0,0-.249-.006.112.112,0,0,0-.036.134C462.59,432.7,462.682,432.713,462.793,432.716Z" transform="translate(-422.71 -371.072)" fill="#072259"/>
    <path id="Path_713" data-name="Path 713" d="M467.38,449.5a.156.156,0,0,0-.164.007c-.073-.032-.147.011-.221-.005a7.1,7.1,0,0,0-1.364-.041.118.118,0,0,0-.107.052.1.1,0,0,0-.118.086.256.256,0,0,0-.213.121l-.044.04a2.463,2.463,0,0,1-.449.043.391.391,0,0,0-.242.054,1.948,1.948,0,0,1-.536.263.531.531,0,0,0-.348.415.438.438,0,0,1-.12.245,1.013,1.013,0,0,1-.89.23c-.058-.011-.127-.034-.149-.086a.6.6,0,0,0-.423-.318.663.663,0,0,1-.146-.1.306.306,0,0,1-.145-.387.665.665,0,0,1,.373-.42,3.64,3.64,0,0,1,.58-.163c.279-.059.534-.2.817-.24a.121.121,0,0,0,.106-.147c-.019-.08-.091-.1-.161-.085a1.241,1.241,0,0,0-.431.131,1.837,1.837,0,0,1-.664.225,1.422,1.422,0,0,0-.515.188c-.108.064-.192.176-.32.193a.842.842,0,0,0-.43.272l-.043.037a1.425,1.425,0,0,1-.47.056q-.516-.009-1.033-.009a.743.743,0,0,0-.373.036c-.237.135-.515.142-.756.269a.363.363,0,0,1-.464-.071,1.13,1.13,0,0,1-.287-1.025.37.37,0,0,1,.418-.315,2.313,2.313,0,0,0,.276.015.5.5,0,0,1,.39.132.86.86,0,0,0,.708.19c.115-.015.14-.083.069-.173a.484.484,0,0,0-.379-.169.74.74,0,0,1-.537-.18c-.281-.313-.65-.526-.915-.858-.223-.28-.23-.465.054-.677a2.412,2.412,0,0,1,.666-.352.562.562,0,0,1,.764.524,1.057,1.057,0,0,1-.052.347.51.51,0,0,0,.18.519.252.252,0,0,0,.279.063.229.229,0,0,0,.142-.243c0-.134,0-.269-.007-.4-.039-.536.4-.8.832-.862a1.4,1.4,0,0,0,.339-.08.77.77,0,0,1,.769.052,3.116,3.116,0,0,0,.607.3.8.8,0,0,0,.728-.026,1.73,1.73,0,0,1,.843-.293,1.287,1.287,0,0,0,.247-.048,3.711,3.711,0,0,1,.85-.1,2.264,2.264,0,0,0,1.076-.206.318.318,0,0,1,.268-.034,1.455,1.455,0,0,0,.719.027c.126-.01.252-.007.377-.02.345-.036.553.2.58.547.018.224.029.236.262.222.253-.016.5.016.755.025a.834.834,0,0,1,.5.208.637.637,0,0,1,.263.751,1.409,1.409,0,0,0-.042.2c-.04.193-.04.193.163.22a.443.443,0,0,1,.433.548,1,1,0,0,1-.324.653c-.033,0-.048.016-.046.049a1.053,1.053,0,0,0-.288.4c-.107.2-.2.221-.423.206a3.119,3.119,0,0,0-1.087.043.165.165,0,0,1-.164-.032.577.577,0,0,1-.206-.277,1.283,1.283,0,0,1-.042-.544C467.71,449.483,467.626,449.431,467.38,449.5Zm-1.887-2.113a4.534,4.534,0,0,0-1.1.087c-.048.014-.108.015-.129.066-.028.067.031.106.07.148a.188.188,0,0,0,.125.079,1.376,1.376,0,0,0,.524-.015,2.615,2.615,0,0,1,1.016-.134c.268,0,.278.006.339.264a.392.392,0,0,0,.292.311,1.867,1.867,0,0,0,.519.087c.386,0,.772-.038,1.158-.007a.485.485,0,0,0,.149-.015.108.108,0,0,0,.091-.106.1.1,0,0,0-.09-.1,2.258,2.258,0,0,0-.671-.085,4.216,4.216,0,0,1-1.051.017c-.247-.034-.3-.068-.314-.319s-.056-.292-.3-.285C465.917,447.378,465.708,447.4,465.492,447.384Zm-2.7.877c.078-.016.194,0,.219-.084.03-.1-.1-.109-.16-.157-.078-.062-.161-.094-.247-.012a.117.117,0,0,0-.043.134C462.6,448.244,462.694,448.255,462.791,448.261Z" transform="translate(-422.727 -381.129)" fill="#072259"/>
    <path id="Path_714" data-name="Path 714" d="M464.83,465.536a.109.109,0,0,0-.022-.109,2.406,2.406,0,0,0,0-.5.113.113,0,0,0,.025-.109c.085-.064.13-.205.245-.2.231.013.482-.062.672.168a.549.549,0,0,0,.531.159c.09-.013.109-.073.07-.147a.321.321,0,0,0-.28-.186.886.886,0,0,1-.561-.24l-.033-.049a.359.359,0,0,0-.22-.251h0c-.04-.094-.127-.142-.2-.2a.114.114,0,0,0-.075-.1.1.1,0,0,0-.073-.108.105.105,0,0,0-.08-.093.173.173,0,0,0-.04-.116.4.4,0,0,1,.08-.524,1.946,1.946,0,0,1,.489-.349.425.425,0,0,1,.658.259.94.94,0,0,1,.008.544.4.4,0,0,0,.082.419.053.053,0,0,0,.037.068c.12.167.151.173.282.055l0,0c.061-.015.072-.054.051-.107a.19.19,0,0,0,0-.2,1.115,1.115,0,0,0,.005-.453.112.112,0,0,0,.019-.109c.025-.052.047-.106.075-.157a.792.792,0,0,1,.544-.409,1.578,1.578,0,0,0,.358-.1.506.506,0,0,1,.566.055,2.9,2.9,0,0,0,.467.294.572.572,0,0,0,.658-.027,1.1,1.1,0,0,1,.636-.268,1.069,1.069,0,0,0,.219-.053,2.645,2.645,0,0,1,.7-.1,1.379,1.379,0,0,0,.8-.181.367.367,0,0,1,.381-.025.37.37,0,0,0,.245.022c.107-.02.215-.033.324-.042.44-.039.519.013.668.426a.517.517,0,0,0,.034.066.128.128,0,0,0,0,.152c-.029.114.046.132.127.122.175-.021.348.013.522.009a.782.782,0,0,1,.575.252c.029.028.063.051.094.077a.179.179,0,0,0,.073.145.137.137,0,0,0,.057.141.765.765,0,0,0,0,.272,1,1,0,0,0-.1.38c-.015.064.015.1.088.121.36.095.388.13.432.5a.237.237,0,0,0-.016.215,2,2,0,0,1-.312.542.153.153,0,0,0-.076.142.584.584,0,0,0-.159.275c-.079.179-.153.192-.35.179a2.193,2.193,0,0,0-.857.042.119.119,0,0,1-.135-.032.543.543,0,0,1-.16-.249,1.36,1.36,0,0,1-.05-.494c.013-.089.065-.2-.05-.267h0c-.054-.1-.12-.073-.189-.019a.1.1,0,0,0-.114.006,9.861,9.861,0,0,0-1.073-.053.676.676,0,0,0-.573.274h-.014v.014a.773.773,0,0,1-.292.055.969.969,0,0,0-.6.285H470v.015c-.078.045-.186.038-.238.131l-.025.038a.35.35,0,0,0-.1.314.118.118,0,0,0-.026.11c-.072.084-.175.14-.227.242l-.047.043c-.073.014-.146.03-.219.042a.434.434,0,0,1-.527-.22c.009-.042-.006-.066-.05-.07a1.507,1.507,0,0,1-.458-.373.58.58,0,0,0,0-.249.456.456,0,0,0,.12-.231l.027-.042a1.053,1.053,0,0,1,.368-.2c.294-.093.583-.2.874-.307a.375.375,0,0,0,.091-.04.121.121,0,0,0,.049-.154.1.1,0,0,0-.125-.06.881.881,0,0,0-.35.134,1.2,1.2,0,0,1-.505.214,1.037,1.037,0,0,0-.452.207c-.116.09-.242.166-.364.248-.032,0-.045.019-.044.049a.52.52,0,0,0-.126.079.579.579,0,0,1-.5.168c-.251-.012-.5-.01-.755-.01a.6.6,0,0,0-.346.039c-.177.118-.39.145-.573.253-.207.122-.363.054-.475-.161A1.089,1.089,0,0,0,464.83,465.536Zm8.115-1.71a3.216,3.216,0,0,1,.55,0c.073,0,.133-.033.139-.116s-.048-.1-.108-.118a1.33,1.33,0,0,0-.569-.067,2.535,2.535,0,0,1-.823.007.2.2,0,0,1-.2-.182,1.305,1.305,0,0,1-.011-.175c-.006-.2-.054-.251-.255-.248-.335.005-.67.016-1.005.025a1.483,1.483,0,0,0-.417.09.082.082,0,0,0-.049.137c.041.063.081.138.166.141a.831.831,0,0,0,.422-.021,1.576,1.576,0,0,1,.76-.128c.252,0,.269.008.312.257a.41.41,0,0,0,.291.341A2.208,2.208,0,0,0,472.945,463.826Zm-3.778-.116c-.006-.071-.207-.212-.268-.185a.143.143,0,0,0-.093.161.155.155,0,0,0,.163.129c.075,0,.153,0,.2-.081A.076.076,0,0,0,469.167,463.709Z" transform="translate(-427.387 -391.199)" fill="#072259"/>
  </g>
</svg>
