<svg xmlns="http://www.w3.org/2000/svg" width="57.07" height="64" viewBox="0 0 57.07 64"><defs><style>.a{fill:none;stroke:#848484;stroke-linecap:round;stroke-linejoin:round;stroke-width:3px;}.b{fill:#848484;}</style></defs><g transform="translate(536.548 -725.252)"><g transform="translate(-536.548 725.252)"><path class="a" d="M-423.648,848.616h-7.79v-6.309h-4.991v6.3h-7.9c-.017-.276-.052-.57-.052-.864,0-3.638-.017-7.275.019-10.912a3.483,3.483,0,0,1,.464-1.181.493.493,0,0,1,.177-.18,5.426,5.426,0,0,0,2.393-5.813,7.456,7.456,0,0,1-.009-1.214h2.963c.024.471.047.909.081,1.578.809-.811,1.5-1.485,2.167-2.177s1.352-1.431,2.058-2.181c.268.237.44.372.593.525q4.692,4.7,9.369,9.413a1.643,1.643,0,0,1,.51.985c.034,3.834.021,7.669.015,11.5A4.064,4.064,0,0,1-423.648,848.616Z" transform="translate(462.498 -805.913)"/><path class="b" d="M-524.486,801.273a6.011,6.011,0,0,1-6.056,5.979,6.047,6.047,0,0,1-6.006-6.141,6.072,6.072,0,0,1,6.123-5.936A6.01,6.01,0,0,1-524.486,801.273Zm-6.02,3.126a3.22,3.22,0,0,0,3.2-3.182,3.214,3.214,0,0,0-3.194-3.183,3.175,3.175,0,0,0-3.178,3.182A3.166,3.166,0,0,0-530.506,804.4Z" transform="translate(536.548 -782.196)"/><path class="b" d="M-288.085,795.182a6.066,6.066,0,0,1,6.048,6.01,6.055,6.055,0,0,1-6.082,6.065A6.016,6.016,0,0,1-294.1,801.2,6.026,6.026,0,0,1-288.085,795.182Zm-.053,2.858a3.194,3.194,0,0,0-3.13,3.238,3.2,3.2,0,0,0,3.244,3.127,3.175,3.175,0,0,0,3.12-3.239A3.172,3.172,0,0,0-288.138,798.04Z" transform="translate(339.105 -782.202)"/><path class="b" d="M-294.1,941.053a6.027,6.027,0,0,1,6.074-5.971,6.067,6.067,0,0,1,5.993,6.069,6.033,6.033,0,0,1-6.138,6A6,6,0,0,1-294.1,941.053Zm6.056,3.26a3.183,3.183,0,0,0,3.145-3.219,3.165,3.165,0,0,0-3.211-3.147,3.189,3.189,0,0,0-3.155,3.213A3.207,3.207,0,0,0-288.044,944.313Z" transform="translate(339.102 -896.135)"/><path class="b" d="M-409.33,1017.111a6.046,6.046,0,0,1-6.061-5.986,6.083,6.083,0,0,1,6.077-6.08,6.071,6.071,0,0,1,6.01,6.05A6.033,6.033,0,0,1-409.33,1017.111Zm3.17-6.025a3.168,3.168,0,0,0-3.188-3.172,3.166,3.166,0,0,0-3.179,3.178,3.2,3.2,0,0,0,3.185,3.186A3.205,3.205,0,0,0-406.16,1011.086Z" transform="translate(437.879 -953.111)"/><path class="b" d="M-409.34,725.252a6.056,6.056,0,0,1,6.033,6.021,6.075,6.075,0,0,1-6,6.06,6.086,6.086,0,0,1-6.083-6.077A6.062,6.062,0,0,1-409.34,725.252Zm-.052,2.848a3.194,3.194,0,0,0-3.137,3.23,3.178,3.178,0,0,0,3.227,3.136,3.184,3.184,0,0,0,3.138-3.225A3.2,3.2,0,0,0-409.392,728.1Z" transform="translate(437.882 -725.252)"/><path class="b" d="M-524.489,941.161a5.982,5.982,0,0,1-6.027,5.993,6.032,6.032,0,0,1-6.031-6.013,6.066,6.066,0,0,1,6.1-6.055A6.011,6.011,0,0,1-524.489,941.161Zm-9.19.014a3.177,3.177,0,0,0,3.221,3.142,3.216,3.216,0,0,0,3.148-3.231,3.209,3.209,0,0,0-3.239-3.136A3.157,3.157,0,0,0-533.679,941.175Z" transform="translate(536.547 -896.138)"/><path class="b" d="M-529.664,863.481l2.66,1.04a25.141,25.141,0,0,0,.007,10.6l-2.649,1.062A26.855,26.855,0,0,1-529.664,863.481Z" transform="translate(531.555 -837.824)"/><path class="b" d="M-250.988,863.463a27.377,27.377,0,0,1,0,12.693l-2.661-1.032a25.079,25.079,0,0,0-.01-10.6Z" transform="translate(306.163 -837.809)"/><path class="b" d="M-472.773,1001.01c-.128.825-.259,1.675-.414,2.675a27.389,27.389,0,0,1-10.978-6.343l2.125-1.724c1.45,1.011,2.851,2.126,4.381,3.017S-474.454,1000.2-472.773,1001.01Z" transform="translate(493.888 -945.434)"/><path class="b" d="M-333.807,995.166l2.235,1.8a27.083,27.083,0,0,1-10.975,6.348l-.44-2.812A25.062,25.062,0,0,0-333.807,995.166Z" transform="translate(378.914 -945.066)"/><path class="b" d="M-342.968,759.16l.43-2.808a27.159,27.159,0,0,1,10.986,6.329l-2.238,1.809A25.079,25.079,0,0,0-342.968,759.16Z" transform="translate(378.899 -750.579)"/><path class="b" d="M-473.183,756.274l.431,2.822a25.139,25.139,0,0,0-9.172,5.329l-2.237-1.8A27.291,27.291,0,0,1-473.183,756.274Z" transform="translate(493.885 -750.516)"/></g></g></svg>