<svg xmlns="http://www.w3.org/2000/svg" width="60.612" height="53.76" viewBox="0 0 60.612 53.76"><defs><style>.a{fill:#848484;}</style></defs><g transform="translate(1029.405 -1421.488)"><g transform="translate(-1029.405 1421.488)"><path class="a" d="M-1023.261,1459.325c0-3.147-.021-6.294.007-9.44.011-1.288-.378-2.055-1.841-2.071a4.025,4.025,0,0,1-4.082-2.885,4.164,4.164,0,0,1,1.767-4.847c2.426-1.823,5-3.45,7.439-5.256,3.179-2.354,6.452-4.574,9.583-7a75.3,75.3,0,0,1,7.926-5.377,6.6,6.6,0,0,1,7.39.361c2.384,1.606,4.731,3.267,7.062,4.948.8.578,1.129.6,1.315-.511a3.044,3.044,0,0,1,3.145-2.548,31.6,31.6,0,0,1,4.388.007c2.434.171,3.495,1.339,3.53,3.76.03,2.061.054,4.124.011,6.184a3.274,3.274,0,0,0,1.64,3.116,30.043,30.043,0,0,1,3.654,2.7,4.013,4.013,0,0,1,1.232,4.709,3.771,3.771,0,0,1-3.74,2.622c-1.694.039-2.089.916-2.08,2.4.035,5.859.021,11.719.012,17.578-.008,5.037-2.343,7.317-7.351,7.451a26.292,26.292,0,0,1-15.293-4.74,2.5,2.5,0,0,0-3.2.088,25.765,25.765,0,0,1-15.793,4.635c-4.283-.226-6.689-2.634-6.72-6.938C-1023.277,1465.293-1023.259,1462.309-1023.261,1459.325Zm3.064-.5h.011c0,2.985-.009,5.97,0,8.954.012,3.224,1.053,4.254,4.289,4.368a22.594,22.594,0,0,0,12.506-3.531c1.516-.9,1.555-1.016.146-2.055a60.448,60.448,0,0,1-8.806-7.456,15.952,15.952,0,0,1-4.232-8.456,10.936,10.936,0,0,1,5.063-11.161,9.491,9.491,0,0,1,10.812,1c1.075.864,1.672.794,2.73-.024a9.617,9.617,0,0,1,15.613,5.92c1.01,5.1-.9,9.245-4.239,12.915a54.456,54.456,0,0,1-8.7,7.327c-.938.676-1.21,1.151-.029,1.837,3.861,2.244,7.9,3.8,12.469,3.693,3.59-.082,4.577-1,4.583-4.539.011-5.969-.01-11.939.012-17.909.012-3.291,1.209-4.577,4.515-4.935.613-.066,1.251-.1,1.46-.794.2-.674-.252-1.151-.731-1.511-1.3-.977-2.616-1.936-3.957-2.857a4.48,4.48,0,0,1-1.96-3.392,49.581,49.581,0,0,1-.193-6.99c.021-.976-.277-1.433-1.283-1.353a7.293,7.293,0,0,1-1.3,0c-1.549-.156-2.381.217-2.371,2.083.011,2.064-1.493,2.839-3.386,1.952a16.174,16.174,0,0,1-2.347-1.451c-2.046-1.429-4.059-2.905-6.1-4.334-2.787-1.947-4.135-1.959-6.93.027-4.776,3.393-9.517,6.836-14.29,10.234-2.784,1.982-5.609,3.906-8.394,5.885-.565.4-1.205.878-.935,1.725.249.781.971.726,1.625.785,2.97.268,4.3,1.643,4.343,4.6C-1020.162,1452.526-1020.2,1455.675-1020.2,1458.822Zm6.977-9.687c.039,3.238,1.6,5.8,3.677,8.1,2.786,3.078,6.223,5.377,9.517,7.844a1.417,1.417,0,0,0,1.913.007c3.177-2.355,6.46-4.583,9.166-7.5,2.014-2.173,3.638-4.545,3.985-7.639a7.84,7.84,0,0,0-3.591-7.8c-2.484-1.39-5.109-1-7.812,1.173-.169.136-.336.274-.507.408-2.2,1.728-2.285,1.728-4.409-.008-.294-.24-.56-.517-.868-.736a6.863,6.863,0,0,0-6.264-1.325C-1011.469,1442.588-1013.124,1445.143-1013.22,1449.135Z" transform="translate(1029.405 -1421.488)"/></g></g></svg>