<svg xmlns="http://www.w3.org/2000/svg" width="57.57" height="50.474" viewBox="0 0 57.57 50.474"><defs><style>.a{fill:#848484;}</style></defs><g transform="translate(-433.514 -316.49)"><g transform="translate(433.514 316.49)"><path class="a" d="M462.277,355.519h-24.5c-.891,0-.892,0-.892.9,0,2.1.021,4.2-.013,6.3-.01.627.166.843.813.834,2.309-.034,4.619-.017,6.929-.009a5.216,5.216,0,0,1,1.063.1,1.671,1.671,0,0,1,.123,3.217,2.689,2.689,0,0,1-.87.11q-4.756,0-9.512,0a1.7,1.7,0,0,1-1.884-1.867c-.006-3.465-.033-6.93.006-10.394a18.694,18.694,0,0,1,4.852-12.452,1.726,1.726,0,0,0,.467-1.238q-.018-8.725,0-17.45a6.782,6.782,0,0,1,2.818-5.764,6.417,6.417,0,0,1,3.876-1.3q16.788-.014,33.576,0a6.768,6.768,0,0,1,6.626,6.934q.022,8.756,0,17.512a1.882,1.882,0,0,0,.509,1.349,18.681,18.681,0,0,1,4.808,12.343c.05,3.443.013,6.887.01,10.331a1.751,1.751,0,0,1-2.016,1.99q-4.693,0-9.386,0a2.582,2.582,0,0,1-.991-.134,1.65,1.65,0,0,1-1.062-1.688,1.6,1.6,0,0,1,1.23-1.5,4.628,4.628,0,0,1,1.061-.1c2.352-.009,4.7-.017,7.055,0,.556.005.779-.143.771-.745q-.048-3.275,0-6.551c.009-.593-.189-.742-.758-.741Q474.624,355.531,462.277,355.519Zm-.043-3.36h24.372c.88,0,.88,0,.668-.877a15.957,15.957,0,0,0-15.4-12.169c-6.319-.016-12.637,0-18.956,0a16.959,16.959,0,0,0-2.071.111,16.032,16.032,0,0,0-13.524,12.061c-.211.874-.211.875.671.875Zm.063-32.309c-5.417,0-10.833.016-16.25-.007a3.551,3.551,0,0,0-3.8,3.8c.079,4.765.024,9.531.024,14.3,0,.147,0,.294,0,.441,0,.345.141.4.427.226a8.317,8.317,0,0,1,1.1-.618.944.944,0,0,0,.625-1.028c-.025-1.6.01-3.191-.013-4.787a4.386,4.386,0,0,1,4.781-4.757c2.976.123,5.961.017,8.942.036a4.076,4.076,0,0,1,4.093,3.475,32.917,32.917,0,0,1,.1,4.148c.008.195-.076.5.2.522.347.022.263-.318.265-.524.012-1.05.009-2.1.007-3.149a4.324,4.324,0,0,1,4.517-4.5c2.957.1,5.922.1,8.879,0a4.337,4.337,0,0,1,4.522,4.563c-.022,1.616.04,3.235-.022,4.849a1.393,1.393,0,0,0,.933,1.612c.207.074.379.366.608.215.177-.117.089-.392.089-.6q0-7.306,0-14.612a3.918,3.918,0,0,0-.107-1.123,3.47,3.47,0,0,0-3.606-2.472Q470.454,319.842,462.3,319.849Zm9.454,10.952c-1.51,0-3.021-.007-4.531,0-.722,0-.984.268-1,.99-.014.9-.007,1.8,0,2.706,0,1.274-.1,1.171,1.2,1.179,3.161.021,6.34-.192,9.433.717.427.125.438-.152.438-.453,0-1.363.007-2.727-.006-4.09-.007-.8-.263-1.047-1.067-1.051C474.73,330.8,473.241,330.8,471.752,330.8Zm-18.411,0c-1.467,0-2.935,0-4.4,0-.85,0-1.1.245-1.106,1.073-.008,1.3.013,2.6-.011,3.9-.009.471.14.583.588.465a20.272,20.272,0,0,1,5.17-.56c1.53,0,3.061-.016,4.591.008.533.008.76-.162.744-.72-.03-1.026,0-2.054-.012-3.081-.009-.848-.244-1.08-1.1-1.083C456.318,330.8,454.829,330.8,453.341,330.8Z" transform="translate(-433.514 -316.49)"/><path class="a" d="M580.14,664.22q-4.91,0-9.821,0c-1.195,0-1.941-.648-1.935-1.662a1.71,1.71,0,0,1,1.93-1.694q9.852,0,19.7,0a1.716,1.716,0,0,1,1.8,1.193,1.689,1.689,0,0,1-.6,1.851,1.909,1.909,0,0,1-1.253.314Q585.05,664.217,580.14,664.22Z" transform="translate(-551.356 -617.38)"/></g></g></svg>