<svg xmlns="http://www.w3.org/2000/svg" width="25" height="25" viewBox="0 0 25 25">
  <g id="Group_356" data-name="Group 356" transform="translate(5650.312 -5437.05)">
    <path id="Path_870" data-name="Path 870" d="M-5517.207,5502.572c0-1.216-.013-2.432.007-3.648.006-.394-.053-.647-.491-.787a1.634,1.634,0,0,1-1.161-1.675c-.021-1.962-.029-3.926,0-5.889a1.817,1.817,0,0,1,1.787-1.791c1.613-.035,3.228-.038,4.841,0a1.874,1.874,0,0,1,1.8,1.991c.022,1.3,0,2.609.009,3.913,0,.551.062,1.1.036,1.653a1.749,1.749,0,0,1-1.283,1.8c-.442.123-.434.415-.434.76q.008,3.615,0,7.23c0,.875-.055.926-.954.927-1.128,0-2.256-.015-3.383.007-.565.011-.8-.2-.789-.78C-5517.19,5505.049-5517.207,5503.81-5517.207,5502.572Z" transform="translate(-114.944 -45.017)" fill="#a79344"/>
    <path id="Path_871" data-name="Path 871" d="M-5645.917,5493.083c0-.791-.009-1.472,0-2.152a1.935,1.935,0,0,1,2.1-2.109q2.156-.015,4.311,0a1.9,1.9,0,0,1,2.038,2.027c.009.706,0,1.411,0,2.2h3.5v1.022c-.412.024-.845.068-1.278.071-1.633.008-3.266,0-4.9,0h-5.83c-.7,0-1.409,0-2.113,0-.872-.008-1.18.289-1.185,1.187-.006,1.391,0,2.781,0,4.171q0,3.416,0,6.832v.747h-.961c-.012-.253-.031-.488-.032-.724,0-2.608,0-5.217,0-7.826,0-1.082-.048-2.164-.043-3.245a2.032,2.032,0,0,1,2.187-2.195C-5647.424,5493.079-5646.723,5493.083-5645.917,5493.083Z" transform="translate(0 -45.067)" fill="#a79344"/>
    <path id="Path_872" data-name="Path 872" d="M-5593.264,5563.934l.694.089v6.589h-5.6v-6.558c.549.02.543-.362.543-.787,0-.911.282-1.173,1.193-1.178q.992-.006,1.986,0c.9,0,1.161.271,1.179,1.2C-5593.261,5563.48-5593.264,5563.678-5593.264,5563.934Zm-.65,0c.16-1.232.151-1.242-1.012-1.242-.506,0-1.012.017-1.517,0-.413-.017-.63.124-.591.565.02.213.022.427.035.68Z" transform="translate(-45.547 -108.615)" fill="#a79344"/>
    <path id="Path_873" data-name="Path 873" d="M-5601.349,5439.988a2.883,2.883,0,0,1-2.873,2.872,2.9,2.9,0,0,1-2.917-2.906,2.9,2.9,0,0,1,2.917-2.9A2.882,2.882,0,0,1-5601.349,5439.988Z" transform="translate(-37.713)" fill="#a79344"/>
    <path id="Path_874" data-name="Path 874" d="M-5505.961,5437.07a2.893,2.893,0,0,1,2.927,2.891,2.9,2.9,0,0,1-2.837,2.916,2.886,2.886,0,0,1-2.954-2.86A2.879,2.879,0,0,1-5505.961,5437.07Z" transform="translate(-123.656 -0.017)" fill="#a79344"/>
    <path id="Path_875" data-name="Path 875" d="M-5612.275,5577.413v6.389a1.721,1.721,0,0,1-1.426-1.666c-.036-1.012-.033-2.027,0-3.039A1.748,1.748,0,0,1-5612.275,5577.413Z" transform="translate(-31.917 -121.908)" fill="#a79344"/>
    <path id="Path_876" data-name="Path 876" d="M-5551.588,5584.407v-6.32a1.6,1.6,0,0,1,1.3,1.581c.036,1.016.043,2.035,0,3.049A1.829,1.829,0,0,1-5551.588,5584.407Z" transform="translate(-86.126 -122.493)" fill="#a79344"/>
  </g>
</svg>
