<svg xmlns="http://www.w3.org/2000/svg" width="21.176" height="21.217" viewBox="0 0 21.176 21.217">
  <g id="birthdays" transform="translate(-5480.254 -924.257)">
    <g id="Group_457" data-name="Group 457" transform="translate(5480.254 924.257)">
      <path id="Path_898" data-name="Path 898" d="M5480.271,958.8c0-.8-.046-1.608.012-2.407a2.164,2.164,0,0,1,2.188-2.028c.251-.006.5,0,.811,0v-5.285h2.986v5.237h3.056v-5.244h3.006v5.251h3.037v-5.24h2.985v5.28c.3,0,.549,0,.8,0a2.178,2.178,0,0,1,2.255,2.078c.051.781.01,1.568.01,2.383-.626.1-1-.311-1.384-.645a3.165,3.165,0,0,0-2.147-.821,3.245,3.245,0,0,0-2.183.876,1.693,1.693,0,0,1-2.652.015,3.137,3.137,0,0,0-4.408,0,1.7,1.7,0,0,1-2.651-.012,3.167,3.167,0,0,0-4.376-.023,11.317,11.317,0,0,1-1.2.756Z" transform="translate(-5480.254 -943.657)" fill="#072259"/>
      <path id="Path_899" data-name="Path 899" d="M5480.327,999.9v-4.448a4.362,4.362,0,0,0,2.635-1.267,1.6,1.6,0,0,1,2.018.172,6.209,6.209,0,0,0,1.688.959,3.11,3.11,0,0,0,3.058-.9,1.6,1.6,0,0,1,2.354-.006c.126.106.252.212.382.312a3.064,3.064,0,0,0,3.4.354,4.488,4.488,0,0,0,.884-.64,1.58,1.58,0,0,1,2.394-.01,3.831,3.831,0,0,0,2.324,1.019V999.9Z" transform="translate(-5480.311 -978.684)" fill="#072259"/>
      <path id="Path_900" data-name="Path 900" d="M5495.623,924.257a3.185,3.185,0,0,1,1.5,2.526,3.065,3.065,0,0,1-.133,1.129,1.341,1.341,0,0,1-1.32.959,1.459,1.459,0,0,1-1.419-.919,1.412,1.412,0,0,1,.32-1.609A2.35,2.35,0,0,0,5495.623,924.257Z" transform="translate(-5491.105 -924.257)" fill="#072259"/>
      <path id="Path_901" data-name="Path 901" d="M5523.343,924.318a3.137,3.137,0,0,1,1.447,2.419,3.211,3.211,0,0,1-.176,1.331,1.254,1.254,0,0,1-1.328.849,1.385,1.385,0,0,1-1.35-.931,1.317,1.317,0,0,1,.29-1.56A2.61,2.61,0,0,0,5523.343,924.318Z" transform="translate(-5512.736 -924.305)" fill="#072259"/>
      <path id="Path_902" data-name="Path 902" d="M5551.061,924.33a3.111,3.111,0,0,1,1.438,2.35,3.406,3.406,0,0,1-.134,1.342,1.3,1.3,0,0,1-1.352.906,1.468,1.468,0,0,1-1.365-.921,1.381,1.381,0,0,1,.327-1.605A2.542,2.542,0,0,0,5551.061,924.33Z" transform="translate(-5534.405 -924.314)" fill="#072259"/>
    </g>
  </g>
</svg>
