<svg xmlns="http://www.w3.org/2000/svg" width="24.439" height="24.518" viewBox="0 0 24.439 24.518">
  <g id="bridal" transform="translate(-5421.368 -1295.459)">
    <path id="Path_909" data-name="Path 909" d="M5432.072,1316.95c.693,1.14,1.353,2.25,2.039,3.345a2.674,2.674,0,0,0,2.348,1.295c.1,0,.233-.033.308.015.234.152.447.336.669.508-.232.152-.459.43-.694.437a3.685,3.685,0,0,1-3.483-1.8c-.473-.775-.93-1.56-1.4-2.334-.145-.237-.321-.455-.571-.806-.3,1.539-.855,2.922.319,4.2.1.108,0,.4-.013.614-.252-.03-.588.033-.741-.106a2.935,2.935,0,0,1-.906-2.544c.053-.644.2-1.281.294-1.922.041-.271.065-.544.1-.816l-.225-.159c-.314.366-.609.751-.948,1.094-1.387,1.4-2.8,2.783-4.174,4.2a.931.931,0,0,1-1.241.214,4.288,4.288,0,0,1-2.32-2.394,1.063,1.063,0,0,1,.092-.9c1.834-1.9,3.707-3.767,5.647-5.72.742.774,1.475,1.443,2.09,2.207a3.03,3.03,0,0,0,2.609,1.224c-.278-.309-.512-.588-.769-.845-1.191-1.2-2.408-2.366-3.572-3.587a2.913,2.913,0,0,1-.71-1.236c-.594-2.365-1.128-4.743-1.681-7.117-.193-.832-.082-.979.757-1a5.034,5.034,0,0,1,4.208,1.611.981.981,0,0,0,.664.249,4.008,4.008,0,0,1,4.216,3.293.735.735,0,0,0,.729.629,3.574,3.574,0,0,1,3.242,4.36,1.12,1.12,0,0,0,.368.807,4.777,4.777,0,0,1,1.61,4.118c-.064.8-.272.945-1.053.754q-3.741-.914-7.481-1.835C5432.3,1316.977,5432.2,1316.969,5432.072,1316.95Z" transform="translate(0 -2.574)" fill="#072259"/>
    <path id="Path_910" data-name="Path 910" d="M5437.886,1304.153l-.407-.675c.026-.076.026-.14.059-.166,1.274-1.042,1.232-2.034-.276-2.9a1.632,1.632,0,0,1-.954-1.785c.059-.767.016-1.646-.8-2.051a1.83,1.83,0,0,0-2.1.633,1.465,1.465,0,0,1-1.849.269c-1.548-.639-2.48-.046-2.506,1.468,0,.125,0,.249,0,.414h-.846a2.329,2.329,0,0,1,2.951-2.972,2.617,2.617,0,0,0,2.32-.374c1.744-1.117,3-.541,3.79,1.643,1.286-1.013,2.509-.616,3.722.156a.974.974,0,0,0,.56.042,1.5,1.5,0,0,0,.356-.15c1.024-.393,2.057-.669,3.022.115a2.717,2.717,0,0,1,.711,2.933,1.158,1.158,0,0,0,.328,1.165,5.167,5.167,0,0,1,.949,1.493,1.679,1.679,0,0,1-.457,2.065c-.785.56-.548,1.246-.526,1.929a.868.868,0,0,0,.31.481c.167.158.39.256.574.4,1.9,1.471,1.7,3.485-.507,4.423-.759.322-1.27.672-1.419,1.51a4.808,4.808,0,0,1-.542,1.068c-.09-.683-.187-1.132-.2-1.584a1.353,1.353,0,0,1,1.159-1.605,3.136,3.136,0,0,0,.368-.13c.645-.291,1.335-.583,1.445-1.382a1.614,1.614,0,0,0-1.087-1.648,1.694,1.694,0,0,1-1.1-2.018,1.53,1.53,0,0,0-.067-.455,1.484,1.484,0,0,0-1.8.937,3.821,3.821,0,0,1-.64.863,6.744,6.744,0,0,1,.921,1.561c.1.365-.194.839-.312,1.263l-.365.037a7.127,7.127,0,0,1-.364-1c-.15-.729-.26-1.466-.365-2.2a1.165,1.165,0,0,1,.044-.628,2.78,2.78,0,0,1,2.619-1.915c1.513-.059,1.977-1.375.909-2.472a2.709,2.709,0,0,1-.794-2.756c.318-1.707-.582-2.134-2.252-1.564a2.422,2.422,0,0,1-2.548-.236,1.385,1.385,0,0,0-2.262.54.951.951,0,0,0,.194.7c.14.2.4.321.591.5C5439.909,1301.467,5439.717,1303.072,5437.886,1304.153Z" transform="translate(-2.302 0)" fill="#072259"/>
    <path id="Path_911" data-name="Path 911" d="M5446.153,1306.8l.542-2.88a1.468,1.468,0,0,1,1.828.6,1.69,1.69,0,0,1-.284,2.246A1.521,1.521,0,0,1,5446.153,1306.8Z" transform="translate(-8.447 -2.838)" fill="#072259"/>
    <path id="Path_912" data-name="Path 912" d="M5436.787,1303.609a2.958,2.958,0,0,1-2.789-1.176,1.637,1.637,0,0,1,2.789,1.176Z" transform="translate(-4.304 -2.207)" fill="#072259"/>
  </g>
</svg>
