<svg xmlns="http://www.w3.org/2000/svg" width="14.841" height="22.531" viewBox="0 0 14.841 22.531">
  <path id="christmas" d="M5660.854,1442.557c2.061,0,4.122,0,6.184,0,.818,0,1.2.323,1.2,1.135,0,2.308.13,4.62-.069,6.924a7.217,7.217,0,0,1-5.656,6.508c-.592.138-.769.377-.756.954.033,1.494.028,2.989,0,4.483-.009.538.191.731.715.7a14.885,14.885,0,0,1,1.629.01c.645.039,1.054.435,1.038.944-.018.54-.4.859-1.081.861-2.151.006-4.3,0-6.454,0-.577,0-.979-.213-1.043-.824-.056-.513.365-.937.994-.979.587-.039,1.178-.03,1.767-.017.421.009.619-.144.615-.592q-.022-2.411,0-4.823c0-.416-.173-.582-.575-.681a7.377,7.377,0,0,1-5.905-7.46c-.031-1.924-.014-3.85,0-5.774,0-1.122.282-1.378,1.428-1.379Q5657.867,1442.555,5660.854,1442.557Z" transform="translate(-5653.436 -1442.556)" fill="#072259"/>
</svg>
