<svg xmlns="http://www.w3.org/2000/svg" width="25.979" height="25.81" viewBox="0 0 25.979 25.81">
  <g id="christenings" transform="translate(-5270.93 -878.066)">
    <g id="Group_458" data-name="Group 458" transform="translate(5270.93 878.066)">
      <path id="Path_903" data-name="Path 903" d="M5294.235,878.066h.17c.265.293.544.573.792.88.579.719,1.143,1.45,1.713,2.176v.3a.8.8,0,0,1-.883-.072,1.392,1.392,0,0,0-1.32.027,13.321,13.321,0,0,0-2.812,1.847.194.194,0,0,0-.071.24,1.1,1.1,0,0,1-1.529,1.344.239.239,0,0,0-.3.048,5.874,5.874,0,0,1-.449.42.372.372,0,0,0-.137.424,3.235,3.235,0,0,1-1.395,3.4,4.648,4.648,0,0,1-.561.3c-.219.107-.08.287-.053.43.031.163.157.078.238.048a3.492,3.492,0,0,0,2.032-1.818,4.081,4.081,0,0,0,.359-2.068.41.41,0,0,1,.288-.465c.967-.434,1.927-.886,2.89-1.332.241-.112.272-.095.28.179a10.564,10.564,0,0,1-.3,2.9,6.947,6.947,0,0,1-1.344,2.809,5.9,5.9,0,0,1-4.19,2.1.315.315,0,0,0-.331.3A20.334,20.334,0,0,1,5285,899a10.8,10.8,0,0,1-5.242,4.88h-.212l-.418-.152a10.545,10.545,0,0,1-3.333-1.73c-.1-.086-.145-.051-.171.06-.062.269-.127.537-.187.806-.033.149-.111.207-.258.151a1.874,1.874,0,0,1-.252-.108,1.623,1.623,0,0,1-.746-.946,1.346,1.346,0,0,0-.683-.86,2.785,2.785,0,0,1-.95-1.095,12.313,12.313,0,0,1-1.181-2.786c-.095-.3-.094-.3.19-.454,2-1.08,4.005-2.169,5.95-3.356a20.325,20.325,0,0,0,2.734-1.858.9.9,0,0,0,.291-.354c-.207.059-.373.107-.541.153a3.634,3.634,0,0,1-1.258.146c-.393-.031-.594-.242-.545-.6.029-.211-.053-.191-.194-.142a4.465,4.465,0,0,1-.928.217.762.762,0,0,1-.918-.465,2.27,2.27,0,0,1-1.685,1.008,3.244,3.244,0,0,0,.693-1.064,8,8,0,0,1-1.314.605,2.649,2.649,0,0,1-1.375.158c-.054-.011-.126-.017-.141-.077s.061-.084.107-.106a5.839,5.839,0,0,0,1.418-.959c.187-.165.363-.341.543-.513a.554.554,0,0,0-.251.013,7.665,7.665,0,0,1-2.034.266,1.732,1.732,0,0,1-1.182-.389v-.085a8.259,8.259,0,0,0,1.045-.173,15.54,15.54,0,0,0,5.617-2.353,12.462,12.462,0,0,1,2.172-1.194,4.972,4.972,0,0,1,1.4-.4,1.1,1.1,0,0,1,1.279.7,1.819,1.819,0,0,1,.056.943,4.443,4.443,0,0,0-.095,1.307,1.425,1.425,0,0,0,.645,1.2.485.485,0,0,0,.655-.039,2.505,2.505,0,0,1,.338-.256c.145-.1.136-.174.008-.291a3.2,3.2,0,0,1-1.084-2.773,3.261,3.261,0,0,1,5.966-1.473c.036.053.063.157.153.1.2-.139.4-.289.595-.442.055-.043.029-.118.021-.181a1.094,1.094,0,0,1,1.54-1.207.265.265,0,0,0,.309-.036,14.028,14.028,0,0,0,1.885-1.8,2.291,2.291,0,0,0,.538-2.227A.577.577,0,0,1,5294.235,878.066Z" transform="translate(-5270.931 -878.066)" fill="#072259"/>
      <path id="Path_904" data-name="Path 904" d="M5332.063,892.177a2.125,2.125,0,0,1,.734.1.6.6,0,0,1,.361.957,2.016,2.016,0,0,1-.628.652,5.3,5.3,0,0,1-3.1,1,1.69,1.69,0,0,1-.582-.108.6.6,0,0,1-.337-.936,2.029,2.029,0,0,1,.607-.642A5.4,5.4,0,0,1,5332.063,892.177Zm-2.557,2.317a5.575,5.575,0,0,0,2.929-1.056,1.175,1.175,0,0,0,.369-.4.27.27,0,0,0-.135-.42,1.168,1.168,0,0,0-.581-.09,5.711,5.711,0,0,0-2.506.784,1.985,1.985,0,0,0-.734.629c-.146.229-.081.4.174.5A1.749,1.749,0,0,0,5329.506,894.493Z" transform="translate(-5317.42 -889.481)" fill="#072259"/>
    </g>
  </g>
</svg>
