<svg xmlns="http://www.w3.org/2000/svg" width="27.03" height="22.527" viewBox="0 0 27.03 22.527">
  <g id="engagement" transform="translate(5415.486 -6158.628)">
    <path id="Path_878" data-name="Path 878" d="M-5399.258,6190.852a7.685,7.685,0,0,1-2.117,4.827,7.825,7.825,0,0,1-4.819,2.564,7.9,7.9,0,0,1-6.421-1.843,7.784,7.784,0,0,1-2.769-4.93,7.874,7.874,0,0,1,1.863-6.531,7.937,7.937,0,0,1,5.028-2.757c.164-.024.331-.037.5-.057.112-.014.165.034.165.146,0,.32,0,.64,0,.96,0,.137-.09.143-.185.149a5.219,5.219,0,0,0-1.2.219,6.692,6.692,0,0,0-4.906,5.38,6.534,6.534,0,0,0,1.475,5.639,6.539,6.539,0,0,0,4.344,2.4,6.7,6.7,0,0,0,6-2.166,6.469,6.469,0,0,0,1.746-3.782,6.718,6.718,0,0,0-2.125-5.872,6.593,6.593,0,0,0-3.792-1.791c-.229-.03-.229-.028-.229-.261v-.793c0-.212.017-.227.233-.2a8.032,8.032,0,0,1,2.173.557,8.059,8.059,0,0,1,4.113,3.752A8.634,8.634,0,0,1-5399.258,6190.852Z" transform="translate(0 -17.177)" fill="#072259"/>
    <path id="Path_879" data-name="Path 879" d="M-5358.978,6183.3a6.785,6.785,0,0,0-4.15,1.4c-.079.059-.124.067-.192-.016a6.518,6.518,0,0,0-.68-.713c-.074-.068-.073-.108.006-.17a7.985,7.985,0,0,1,3.75-1.642,7.97,7.97,0,0,1,5.112.864,8.02,8.02,0,0,1,3.273,3.238,7.744,7.744,0,0,1,.974,3.191,7.948,7.948,0,0,1-1.976,6.05,7.781,7.781,0,0,1-4.424,2.6,7.992,7.992,0,0,1-6.695-1.549c-.1-.074-.1-.118-.007-.2a6.681,6.681,0,0,0,.653-.682c.071-.087.124-.093.216-.024a6.631,6.631,0,0,0,3.074,1.308,6.76,6.76,0,0,0,4.833-1.032,6.747,6.747,0,0,0,2.744-3.516,6.721,6.721,0,0,0,.364-1.986,6.673,6.673,0,0,0-.636-3.154,6.783,6.783,0,0,0-3.767-3.512A6.572,6.572,0,0,0-5358.978,6183.3Z" transform="translate(-37.602 -17.124)" fill="#072259"/>
    <path id="Path_880" data-name="Path 880" d="M-5375.347,6199.079a8.166,8.166,0,0,1,1.542-4.789c.1-.142.1-.142.225-.023a7.831,7.831,0,0,1,.646.689.167.167,0,0,1,.01.239,6.548,6.548,0,0,0-1.067,2.63,6.82,6.82,0,0,0,1.027,4.991c.12.187.124.187-.02.353a6.322,6.322,0,0,1-.619.655c-.076.068-.119.075-.183-.014a8.1,8.1,0,0,1-1.484-3.7C-5375.317,6199.751-5375.334,6199.392-5375.347,6199.079Z" transform="translate(-29.346 -25.992)" fill="#072259"/>
    <path id="Path_881" data-name="Path 881" d="M-5388.688,6167.338h1.25c.178,0,.186.011.118.167q-.613,1.445-1.228,2.889c-.031.071-.062.126-.157.128s-.132-.057-.165-.135q-.593-1.43-1.188-2.86c-.074-.181-.069-.189.135-.189Z" transform="translate(-18.558 -6.367)" fill="#072259"/>
    <path id="Path_882" data-name="Path 882" d="M-5388.754,6160.622H-5390c-.153,0-.16-.009-.107-.146.223-.568.448-1.134.669-1.7a.184.184,0,0,1,.2-.142c.357.006.714,0,1.069,0a.162.162,0,0,1,.181.129c.2.569.4,1.134.594,1.7.053.15.046.159-.108.159Z" transform="translate(-18.531 0)" fill="#072259"/>
    <path id="Path_883" data-name="Path 883" d="M-5381.065,6167.336h.694c.04,0,.092-.014.11.034s-.026.066-.05.093q-.6.7-1.2,1.406-.794.93-1.588,1.856c-.036.041-.065.141-.144.082a.157.157,0,0,1-.048-.208q.673-1.567,1.337-3.141a.177.177,0,0,1,.189-.125C-5381.528,6167.339-5381.3,6167.336-5381.065,6167.336Z" transform="translate(-23.527 -6.366)" fill="#072259"/>
    <path id="Path_884" data-name="Path 884" d="M-5396.8,6167.336c.221,0,.443,0,.666,0a.165.165,0,0,1,.18.114q.65,1.571,1.3,3.14a.481.481,0,0,1,.023.065.148.148,0,0,1-.073.154c-.062.042-.087-.035-.115-.068q-1.295-1.548-2.589-3.1c-.054-.063-.107-.126-.159-.191-.019-.025-.053-.047-.032-.084s.056-.027.087-.028Z" transform="translate(-13.072 -6.365)" fill="#072259"/>
    <path id="Path_885" data-name="Path 885" d="M-5379.36,6160.625c-.217,0-.435,0-.653,0a.156.156,0,0,1-.173-.119q-.3-.873-.615-1.743c-.036-.1-.011-.135.094-.132.158.005.314,0,.473,0a.21.21,0,0,1,.18.083q.713.9,1.43,1.792c.021.026.06.054.036.095s-.059.021-.091.021Z" transform="translate(-25.347 -0.003)" fill="#072259"/>
    <path id="Path_886" data-name="Path 886" d="M-5396.772,6160.625h-.681c-.03,0-.07.011-.087-.022s.019-.059.038-.082q.807-.9,1.611-1.8a.233.233,0,0,1,.194-.085c.129,0,.26,0,.389,0,.086,0,.121.022.084.114q-.352.891-.7,1.784a.141.141,0,0,1-.152.094C-5396.309,6160.624-5396.541,6160.625-5396.772,6160.625Z" transform="translate(-13.116 -0.003)" fill="#072259"/>
    <path id="Path_887" data-name="Path 887" d="M-5385.716,6181.518c0-.255,0-.51,0-.764,0-.151.078-.25.2-.257a.23.23,0,0,1,.231.244q.006.778,0,1.555a.216.216,0,0,1-.231.237c-.125-.007-.2-.1-.2-.254,0-.129,0-.258,0-.388S-5385.717,6181.642-5385.716,6181.518Z" transform="translate(-21.764 -15.988)" fill="#072259"/>
  </g>
</svg>
