<svg xmlns="http://www.w3.org/2000/svg" width="18.593" height="24.82" viewBox="0 0 18.593 24.82">
  <g id="preWedding" transform="translate(-5171.702 -304.537)">
    <g id="Group_451" data-name="Group 451" transform="translate(5171.702 304.537)">
      <path id="Path_893" data-name="Path 893" d="M5175.085,304.537a3.884,3.884,0,0,1,1.758,2.295,16.415,16.415,0,0,1,1.043,6.033,2.857,2.857,0,0,1-1.642,2.665.662.662,0,0,0-.412.713c.009,3.911,0,7.821.013,11.732a1.332,1.332,0,0,1-.76,1.382h-.552a1.31,1.31,0,0,1-.781-1.366c.018-3.928,0-7.856.017-11.785a.628.628,0,0,0-.391-.671,2.882,2.882,0,0,1-1.674-2.652,15.112,15.112,0,0,1,1.3-6.685,3.212,3.212,0,0,1,1.526-1.661Z" transform="translate(-5171.703 -304.537)" fill="#072259"/>
      <path id="Path_894" data-name="Path 894" d="M5306.227,304.537c.52.14.647.511.647,1q-.01,11.27,0,22.539a1.274,1.274,0,0,1-.758,1.276h-.551a1.233,1.233,0,0,1-.781-1.308q.03-3.749,0-7.5a1.227,1.227,0,0,0-.305-.751,6.526,6.526,0,0,1-1.723-4.36,22.221,22.221,0,0,1,1.422-9.122,3.465,3.465,0,0,1,1.392-1.782Z" transform="translate(-5288.281 -304.537)" fill="#072259"/>
      <path id="Path_895" data-name="Path 895" d="M5242.127,304.537c.277,1.417.572,2.832.826,4.253.234,1.315.491,2.631.613,3.959a2.757,2.757,0,0,1-1.609,2.777.677.677,0,0,0-.423.711c.011,3.908,0,7.817.014,11.725a1.366,1.366,0,0,1-.745,1.395h-.552a1.274,1.274,0,0,1-.786-1.356c.02-3.91.006-7.819.017-11.729a.7.7,0,0,0-.435-.755,3.047,3.047,0,0,1-1.611-3.273c.479-2.572.993-5.138,1.492-7.707h.442q-.261,3.208-.522,6.417c-.032.378-.015.747.453.787.437.038.524-.3.546-.662q.2-3.271.4-6.542h.441c.039.474.083.948.115,1.423.112,1.754.205,3.51.351,5.262.015.19.32.355.491.532a6.181,6.181,0,0,0,.469-.564c.048-.075,0-.214-.005-.324-.115-1.239-.226-2.479-.353-3.717-.087-.872-.2-1.741-.294-2.612Z" transform="translate(-5230.139 -304.537)" fill="#072259"/>
    </g>
  </g>
</svg>
