<svg xmlns="http://www.w3.org/2000/svg" width="27.965" height="25.586" viewBox="0 0 27.965 25.586">
  <g id="weddingAnniversary" transform="translate(-5712.083 -1031.732)">
    <g id="Group_459" data-name="Group 459" transform="translate(5712.083 1031.732)">
      <path id="Path_905" data-name="Path 905" d="M5721.512,1049.052a12.931,12.931,0,0,1-2.2,3.982,8.043,8.043,0,0,1-1.642,1.61,9.565,9.565,0,0,0-3.062,3.794,21.247,21.247,0,0,0-1.378,3.68c-.081.287-.091.411.3.39a5.022,5.022,0,0,1,2.593.633,8.889,8.889,0,0,0,4.25,1c.991-.013,1.981,0,2.975,0,.028.062-.016.093-.068.1a17.073,17.073,0,0,1-4.031.641,7.962,7.962,0,0,1-4.247-1.109,3.7,3.7,0,0,0-2.29-.291c-.106.006-.21.029-.316.039-.27.027-.349-.091-.3-.356a19.978,19.978,0,0,1,1.261-4.382,10.915,10.915,0,0,1,3.661-4.7,11.914,11.914,0,0,0,3.985-5.26.91.91,0,0,0,.023-.684,2.239,2.239,0,0,1,.955-2.491,1.862,1.862,0,0,1,2.417.048.593.593,0,0,0,.319.142,3.442,3.442,0,0,1,2.432,1.422,5.365,5.365,0,0,1,.261,6.111,2.756,2.756,0,0,1-.6.627.713.713,0,0,0-.309.717c.046.461.1.922.131,1.384a1.722,1.722,0,0,0,1.434,1.59c.543.159.54.157.349.69a10.962,10.962,0,0,1-1.8,2.89c-.134.176-.3.131-.468.089a6.079,6.079,0,0,1-2.591-1.327c-.64-.558-1.27-1.124-1.874-1.72-.2-.2-.188-.3.1-.343,1.963-.333,2.334-1.9,2.215-3.379a.383.383,0,0,0-.206-.313,5.037,5.037,0,0,1-2.271-5.142C5721.515,1049.105,5721.512,1049.079,5721.512,1049.052Z" transform="translate(-5712.083 -1039.301)" fill="#072259"/>
      <path id="Path_906" data-name="Path 906" d="M5748.993,1036.169a5.072,5.072,0,0,1,.335-2.16,3.178,3.178,0,0,1,5.747-.78,6.07,6.07,0,0,1,.572,6.258,1.3,1.3,0,0,0-.113.76,4.411,4.411,0,0,0,.813,2.127c.14.182.095.27-.1.351q-1.539.647-3.072,1.307c-.205.089-.327.013-.492-.111a2.691,2.691,0,0,1-.894-2.155,1.074,1.074,0,0,0-.523-.859,5.613,5.613,0,0,1-2.273-4.278A3.9,3.9,0,0,1,5748.993,1036.169Z" transform="translate(-5732.782 -1031.732)" fill="#072259"/>
      <path id="Path_907" data-name="Path 907" d="M5757.25,1065.09c-.3-1.1.28-2.152,1.063-3.205,1.231-1.658,2.371-3.384,3.531-5.093a.765.765,0,0,1,.824-.382c.76.1,1.526.158,2.29.236.131.013.3.007.361.123.068.133-.087.233-.163.335q-3.74,4.92-7.481,9.837a1.514,1.514,0,0,1-.1.125c-.069.075-.116.221-.231.185-.142-.044-.094-.2-.094-.314C5757.247,1066.408,5757.25,1065.878,5757.25,1065.09Z" transform="translate(-5737.372 -1045.568)" fill="#072259"/>
      <path id="Path_908" data-name="Path 908" d="M5755.344,1061.564c.018-.1.038-.209.052-.313.111-.834.122-.854.87-.432a1.346,1.346,0,0,0,1.167.128c.389-.129.794-.208,1.192-.306.236-.058.334,0,.218.253q-.256.56-.492,1.129c-.1.233-.234.3-.461.177-.069-.039-.15-.058-.215-.1a2.175,2.175,0,0,0-1.932-.257C5755.523,1061.9,5755.291,1061.927,5755.344,1061.564Z" transform="translate(-5736.345 -1047.895)" fill="#072259"/>
    </g>
  </g>
</svg>
