<svg xmlns="http://www.w3.org/2000/svg" width="8.405" height="18.092" viewBox="0 0 8.405 18.092">
  <path id="fbKA" d="M-286.831,56.643V65.39a.227.227,0,0,0,.228.228h3.248a.228.228,0,0,0,.228-.228V56.5h2.355a.228.228,0,0,0,.227-.208l.227-2.679a.228.228,0,0,0-.227-.247h-2.581v-1.9a.807.807,0,0,1,.807-.807h1.814a.227.227,0,0,0,.228-.227V47.753a.227.227,0,0,0-.228-.228h-3.067a3.258,3.258,0,0,0-3.258,3.258v2.582h-1.624a.228.228,0,0,0-.228.228v2.679a.228.228,0,0,0,.228.228h1.624v.143Z" transform="translate(288.683 -47.525)" fill="#a79344" fill-rule="evenodd"/>
</svg>
