<svg xmlns="http://www.w3.org/2000/svg" width="17.874" height="17.879" viewBox="0 0 17.874 17.879">
  <g id="instaKA" transform="translate(-117.22 -14.448)">
    <g id="Group_90" data-name="Group 90" transform="translate(117.22 14.448)">
      <path id="Path_301" data-name="Path 301" d="M135.091,23.411c0,1.3.006,2.6,0,3.907a4.95,4.95,0,0,1-4.98,5q-3.953.016-7.907,0a4.947,4.947,0,0,1-4.977-5q-.012-3.93,0-7.86a4.947,4.947,0,0,1,4.979-5q3.953-.016,7.907,0a4.949,4.949,0,0,1,4.978,5C135.1,20.775,135.091,22.093,135.091,23.411Zm-8.931-4.977a4.953,4.953,0,1,0,4.951,4.967A4.929,4.929,0,0,0,126.16,18.434Zm6.948-1a.994.994,0,1,0-1.018.993A1.017,1.017,0,0,0,133.108,17.432Z" transform="translate(-117.22 -14.448)" fill="#a79344"/>
      <path id="Path_302" data-name="Path 302" d="M137.4,31.665a2.978,2.978,0,1,1-2.975-2.991A2.975,2.975,0,0,1,137.4,31.665Z" transform="translate(-125.482 -22.712)" fill="#a79344"/>
    </g>
  </g>
</svg>
