<svg xmlns="http://www.w3.org/2000/svg" width="19.283" height="15.949" viewBox="0 0 19.283 15.949">
  <path id="twitterKA" d="M-359.387,52.694a7.886,7.886,0,0,1-1.948.559c.314-.053.776-.623.961-.854a3.608,3.608,0,0,0,.649-1.186c.017-.034.03-.077,0-.1a.111.111,0,0,0-.1.009,9.919,9.919,0,0,1-2.313.889.154.154,0,0,1-.16-.043,1.873,1.873,0,0,0-.2-.208,4.084,4.084,0,0,0-1.121-.69,3.888,3.888,0,0,0-1.719-.278,4.105,4.105,0,0,0-1.631.463,4.206,4.206,0,0,0-1.315,1.079,4.064,4.064,0,0,0-.786,1.58,4.294,4.294,0,0,0-.041,1.668c.012.093,0,.106-.08.093a12.34,12.34,0,0,1-7.95-4.064c-.093-.106-.143-.106-.219.009a4.061,4.061,0,0,0,.687,4.783c.156.149.316.3.489.432a4.033,4.033,0,0,1-1.534-.432c-.093-.059-.14-.025-.148.08a2.378,2.378,0,0,0,.025.458,4.088,4.088,0,0,0,2.512,3.263,2.377,2.377,0,0,0,.51.157,4.548,4.548,0,0,1-1.505.046c-.109-.021-.152.034-.109.14a4.237,4.237,0,0,0,3.162,2.658c.143.025.286.025.43.059-.009.013-.018.013-.025.026a5.009,5.009,0,0,1-2.159,1.149,7.706,7.706,0,0,1-3.279.421c-.176-.026-.213-.024-.261,0s-.006.072.05.118c.224.149.451.28.683.407a10.822,10.822,0,0,0,2.192.881A11.642,11.642,0,0,0-364.316,63.6a11.971,11.971,0,0,0,3.136-8.713c0-.125.148-.195.235-.261a7.635,7.635,0,0,0,1.535-1.611.472.472,0,0,0,.1-.309v-.017c0-.051.006-.035-.073,0Z" transform="translate(378.597 -50.783)" fill="#a79344"/>
</svg>
