<svg xmlns="http://www.w3.org/2000/svg" width="18.497" height="18.068" viewBox="0 0 18.497 18.068">
  <g id="aboutUs" transform="translate(-1071.869 -291.354)">
    <path id="Path_670" data-name="Path 670" d="M946.158,194.475a6.382,6.382,0,0,1,3.1-2.445c.285-.142.586-.254.881-.373a1.356,1.356,0,0,0,.49-2.108,5.794,5.794,0,0,1-1.333-5.39,3.433,3.433,0,0,1,3.95-2.428,3.664,3.664,0,0,1,3.075,4.164,6.644,6.644,0,0,1-1.637,3.708,1.364,1.364,0,0,0,.526,2.076,10.7,10.7,0,0,1,3.125,1.694,2.349,2.349,0,0,1,.926,1.538,1.7,1.7,0,0,1-.908,1.847,7.255,7.255,0,0,1-2.787.752,24.31,24.31,0,0,1-4.044.134,14.5,14.5,0,0,1-3.353-.428,3.219,3.219,0,0,1-2.007-1.267Z" transform="translate(125.71 111.753)" fill="#a79344"/>
    <path id="Path_671" data-name="Path 671" d="M1078.709,157.266a6.086,6.086,0,0,1-1.386,3.588.864.864,0,0,0,.365,1.48,11.5,11.5,0,0,1,2.805,1.445,2.25,2.25,0,0,1,1.1,2.105,1.385,1.385,0,0,1-.6,1.119,4.59,4.59,0,0,1-1.813.683c-.616.107-1.24.166-1.86.244a.407.407,0,0,1-.483-.235,5.407,5.407,0,0,0-2.248-2.213,11.564,11.564,0,0,0-1.95-.949c-.3-.114-.273-.233-.108-.451a7.667,7.667,0,0,0,1.608-3.7,5.155,5.155,0,0,0-1.514-4.744.369.369,0,0,1-.079-.518,3.053,3.053,0,0,1,1.8-1.539,3.238,3.238,0,0,1,3.891,1.418A4.626,4.626,0,0,1,1078.709,157.266Z" transform="translate(8.764 137.95)" fill="#a79344"/>
  </g>
</svg>
