<svg xmlns="http://www.w3.org/2000/svg" width="15.316" height="14.563" viewBox="0 0 15.316 14.563">
  <g id="eventBooking" transform="translate(-622.64 -399.769)">
    <g id="Group_127" data-name="Group 127" transform="translate(622.64 399.769)">
      <path id="Path_673" data-name="Path 673" d="M630.3,414.332q-3.018,0-6.037,0a1.439,1.439,0,0,1-1.62-1.631q-.006-4.964,0-9.929a1.48,1.48,0,0,1,1.587-1.649c1.534-.027,1.221-.105,1.256,1.174,0,.033,0,.066,0,.1,0,.785.291,1,1.069.8.239-.059.209-.219.209-.382,0-.831.01-1.663-.005-2.494-.007-.4.133-.6.551-.545a2.566,2.566,0,0,0,.3,0c.65,0,.65,0,.659.677.009.653.009.654.68.656.981,0,1.963.012,2.944,0,.407-.006.576.155.558.56-.017.382-.011.765,0,1.147.02.557.456.35.748.382s.526-.016.519-.409c-.014-.831.01-1.663-.008-2.494-.009-.388.132-.558.522-.517a1.522,1.522,0,0,0,.349,0c.456-.058.613.132.6.59-.023.742,0,.743.725.745.183,0,.367-.006.548.008a1.474,1.474,0,0,1,1.5,1.591c.011,1.962,0,3.925,0,5.887q0,2,0,3.991c0,1.224-.51,1.739-1.717,1.74Q633.269,414.333,630.3,414.332Zm1.326-7.609v-.1c0-1.276,0-1.276-1.286-1.276-1.37,0-1.37,0-1.37,1.391,0,1.328,0,1.328,1.336,1.328C631.626,408.066,631.626,408.066,631.626,406.723Zm-4.113-.033v-.05c0-1.293,0-1.293-1.284-1.293-1.381,0-1.381,0-1.381,1.4,0,1.318,0,1.318,1.314,1.318C627.514,408.066,627.514,408.066,627.514,406.69Zm8.233.015c0-.05,0-.1,0-.15-.017-1.415.171-1.195-1.223-1.206-1.441-.012-1.441,0-1.441,1.433,0,1.283,0,1.283,1.294,1.283C635.747,408.066,635.747,408.066,635.747,406.705Zm-10.9,4.163c0,1.321,0,1.321,1.318,1.321,1.347,0,1.347,0,1.347-1.327,0-1.343,0-1.343-1.327-1.343S624.849,409.519,624.849,410.868Zm5.461-1.347c-.316,0-.632.006-.947,0-.271-.006-.4.111-.392.386q.01.947,0,1.895c0,.275.124.39.393.388.615,0,1.23-.006,1.845,0,.292,0,.428-.117.419-.416-.01-.315,0-.632,0-.947C631.626,409.519,631.626,409.519,630.31,409.521Z" transform="translate(-622.64 -399.769)" fill="#a79344"/>
    </g>
  </g>
</svg>
