<svg xmlns="http://www.w3.org/2000/svg" width="13.488" height="13.635" viewBox="0 0 13.488 13.635">
  <g id="Group_132" data-name="Group 132" transform="translate(-1072.135 -118.154)">
    <g id="homeKa" transform="translate(923.119 -149.951)">
      <path id="Path_669" data-name="Path 669" d="M161.322,270.931a.468.468,0,0,1,.187.374l0,7.949a.485.485,0,0,1-.486.486h-4.555v-4.8a.485.485,0,0,0-.485-.485h-2.458a.485.485,0,0,0-.485.485v4.8h-4.552a.469.469,0,0,1-.469-.469v-7.966a.468.468,0,0,1,.187-.374l6.274-4.731a.468.468,0,0,1,.564,0Z" transform="translate(0.993 2)" fill="#a79344"/>
    </g>
  </g>
</svg>
