<svg xmlns="http://www.w3.org/2000/svg" width="17.571" height="13.212" viewBox="0 0 17.571 13.212">
  <g id="printMenu" transform="translate(-642.434 -98.329)">
    <g id="Group_128" data-name="Group 128" transform="translate(642.434 98.329)">
      <path id="Path_674" data-name="Path 674" d="M660,241.858a1.054,1.054,0,0,1-.871.342q-7.916-.01-15.833,0a1.019,1.019,0,0,1-.867-.342v-.941a.884.884,0,0,1,.871-.4c1.559,0,3.119,0,4.678,0q5.536,0,11.071,0a.949.949,0,0,1,.95.4Z" transform="translate(-642.434 -228.988)" fill="#a79344"/>
      <path id="Path_675" data-name="Path 675" d="M657.125,108.873H649.9c-.892,0-1.074-.2-1.015-1.1a8.308,8.308,0,0,1,5.706-7.448,4.885,4.885,0,0,1,.829-.217c.309-.045.429-.153.42-.5a1.267,1.267,0,0,1,1.034-1.253,1.333,1.333,0,0,1,1.471.708.955.955,0,0,1,.13.565c-.05.331.117.4.4.472a8.208,8.208,0,0,1,6.333,6.188,6.722,6.722,0,0,1,.221,1.7c.008.644-.2.87-.852.873-.833,0-1.665,0-2.5,0Zm-6.38-2.064c-.017.454.171.715.49.751.29.033.522-.175.6-.541.014-.064.019-.129.03-.193a4.976,4.976,0,0,1,2.4-3.573,8,8,0,0,1,1.7-.777c.451-.145.635-.394.541-.714-.106-.365-.415-.489-.891-.339a8.549,8.549,0,0,0-2.334,1.148A6.041,6.041,0,0,0,650.745,106.809Z" transform="translate(-648.375 -98.329)" fill="#a79344"/>
    </g>
  </g>
</svg>
