<svg xmlns="http://www.w3.org/2000/svg" width="14.24" height="13.063" viewBox="0 0 14.24 13.063">
  <g id="roomsGallery" transform="translate(-1071.702 -162.438)">
    <g id="hEDvZa" transform="translate(1071.702 162.438)">
      <g id="Group_125" data-name="Group 125" transform="translate(0)">
        <path id="Path_670" data-name="Path 670" d="M75.323,700.436c.52-.009,1.039,0,1.558.027a14.13,14.13,0,0,1,2.542.331,5.326,5.326,0,0,1,1.487.577,2.938,2.938,0,0,1,1.4,1.926,5.949,5.949,0,0,1,.147,1.272c0,.086-.02.118-.1.122-.182.009-.363,0-.544,0-.34.011-.68,0-1.021,0s-.663.016-.995-.005c-.127-.008-.256.015-.383.008-.346-.021-.692,0-1.038,0s-.686-.016-1.029,0c-.119.007-.238-.015-.357-.008-.34.02-.68,0-1.021,0s-.675.017-1.012-.005c-.13-.009-.262.015-.391.007-.326-.019-.652,0-.978,0-.343,0-.686-.015-1.029,0-.119.007-.239-.015-.357-.008-.346.021-.692,0-1.037,0s-.663.017-1,0c-.127-.008-.256.014-.382.007-.329-.017-.658.012-.987-.006-.164-.009-.329.005-.493.01-.057,0-.091-.018-.09-.094a4.778,4.778,0,0,1,.347-1.892,2.869,2.869,0,0,1,.84-1.083,4.239,4.239,0,0,1,1.413-.708,8.816,8.816,0,0,1,1.58-.331q.872-.106,1.748-.14C74.54,700.436,74.931,700.439,75.323,700.436Z" transform="translate(-68.218 -695.864)" fill="#a79344"/>
        <path id="Path_671" data-name="Path 671" d="M76.629,687.395h3.11c.812,0,1.624,0,2.436,0a.9.9,0,0,1,.723.274,1.061,1.061,0,0,1,.279.74q0,2.183,0,4.365c0,.034.013.08-.02.1s-.055-.023-.079-.044a3.935,3.935,0,0,0-1.261-.8.139.139,0,0,1-.094-.157c0-.358-.006-.716.005-1.074a.768.768,0,0,0-.5-.826,2.821,2.821,0,0,0-.955-.226,8.62,8.62,0,0,0-1.148-.039,5.455,5.455,0,0,0-1.461.171,1.367,1.367,0,0,0-.508.266.68.68,0,0,0-.232.538c0,.176,0,.352,0,.527,0,.118-.01.132-.11.131-.136,0-.272-.009-.408-.012-.051,0-.07-.026-.071-.083,0-.172-.015-.345-.008-.517a.708.708,0,0,0-.384-.7,2.333,2.333,0,0,0-.9-.269,8.838,8.838,0,0,0-1.4-.056,4.863,4.863,0,0,0-1.45.194,1.232,1.232,0,0,0-.467.272.631.631,0,0,0-.2.476c0,.407,0,.814,0,1.221a.159.159,0,0,1-.108.177,3.881,3.881,0,0,0-1.269.8c-.015.015-.031.037-.051.028s-.024-.048-.024-.077q0-.347,0-.693,0-1.831,0-3.662a.978.978,0,0,1,.7-1.025,3.086,3.086,0,0,1,.637-.025q1.64,0,3.28,0h1.942Z" transform="translate(-69.503 -687.39)" fill="#a79344"/>
        <path id="Path_672" data-name="Path 672" d="M75.34,714.38h6.985c.128,0,.129,0,.129.144v3.33c0,.132,0,.133-.121.133-.6,0-1.193,0-1.789,0-.084,0-.107-.032-.106-.124,0-.4,0-.807,0-1.211,0-.447-.143-.616-.536-.618-.832,0-1.664,0-2.5,0H70.769a.75.75,0,0,0-.211.029c-.208.061-.318.231-.322.52,0,.4,0,.794,0,1.191,0,.25,0,.214-.189.214-.571,0-1.142,0-1.712,0-.112,0-.116,0-.116-.13q0-1.675,0-3.349c0-.1.029-.127.114-.127q2.671,0,5.341,0Z" transform="translate(-68.215 -704.926)" fill="#a79344"/>
      </g>
    </g>
    <rect id="Rectangle_42" data-name="Rectangle 42" width="13" height="3" transform="translate(1072.118 172)" fill="#a79344"/>
  </g>
</svg>
