<svg xmlns="http://www.w3.org/2000/svg" width="17.248" height="12.747" viewBox="0 0 17.248 12.747">
  <g id="emailKA" transform="translate(-445.094 -657.409)">
    <g id="Group_162" data-name="Group 162" transform="translate(445.094 657.409)">
      <path id="Path_697" data-name="Path 697" d="M462.342,685.728a2.666,2.666,0,0,1-.639,1.349,2.434,2.434,0,0,1-1.808.842c-1.177.019-2.355.008-3.533.008h-8.7a2.54,2.54,0,0,1-2.563-2.547q-.006-3.2,0-6.394c0-.058-.029-.137.032-.17s.113.031.164.062q3.908,2.38,7.814,4.763a1.088,1.088,0,0,0,1.232,0q3.574-2.185,7.153-4.361l.847-.517Z" transform="translate(-445.094 -675.183)" fill="#a79344"/>
      <path id="Path_698" data-name="Path 698" d="M454.216,657.411q3.061,0,6.122,0a2.579,2.579,0,0,1,2.4,1.858c.038.136-.016.189-.118.251q-1.867,1.137-3.731,2.279-2.231,1.364-4.46,2.731a.355.355,0,0,1-.436,0q-4.084-2.507-8.178-5a.225.225,0,0,1-.12-.31,2.559,2.559,0,0,1,2.417-1.81c2.035-.008,4.07,0,6.106,0Z" transform="translate(-445.575 -657.409)" fill="#a79344"/>
    </g>
  </g>
</svg>
