<svg xmlns="http://www.w3.org/2000/svg" width="32" height="32" viewBox="0 0 32 32">
  <g id="fbKA" transform="translate(-415 -4662)">
    <rect id="Rectangle_160" data-name="Rectangle 160" width="32" height="32" transform="translate(415 4662)" fill="#a79344"/>
    <path id="Path_917" data-name="Path 917" d="M-287.032,55.652v7.8a.2.2,0,0,0,.2.2h2.9a.2.2,0,0,0,.2-.2V55.525h2.1a.2.2,0,0,0,.2-.186l.2-2.388a.2.2,0,0,0-.2-.22h-2.3V51.038a.719.719,0,0,1,.719-.719h1.617a.2.2,0,0,0,.2-.2V47.728a.2.2,0,0,0-.2-.2h-2.734a2.9,2.9,0,0,0-2.9,2.9v2.3h-1.448a.2.2,0,0,0-.2.2v2.388a.2.2,0,0,0,.2.2h1.448v.127Z" transform="translate(715.937 4622.411)" fill="#fff" fill-rule="evenodd"/>
  </g>
</svg>
