<svg xmlns="http://www.w3.org/2000/svg" width="32" height="32" viewBox="0 0 32 32">
  <g id="instaKA" transform="translate(-415 -4662)">
    <rect id="Rectangle_160" data-name="Rectangle 160" width="32" height="32" transform="translate(415 4662)" fill="#a79344"/>
    <g id="M3NSsT" transform="translate(401.034 4671.032)">
      <g id="Group_90" data-name="Group 90" transform="translate(22 -1)">
        <path id="Path_301" data-name="Path 301" d="M133.15,22.438c0,1.161.005,2.322,0,3.482a4.412,4.412,0,0,1-4.439,4.457q-3.524.015-7.048,0a4.41,4.41,0,0,1-4.437-4.459q-.011-3.5,0-7.007a4.409,4.409,0,0,1,4.439-4.457q3.524-.014,7.048,0a4.412,4.412,0,0,1,4.438,4.459C133.155,20.088,133.15,21.263,133.15,22.438ZM125.189,18a4.415,4.415,0,1,0,4.413,4.428A4.393,4.393,0,0,0,125.189,18Zm6.193-.893a.886.886,0,1,0-.908.885A.906.906,0,0,0,131.382,17.108Z" transform="translate(-117.22 -14.448)" fill="#fff"/>
        <path id="Path_302" data-name="Path 302" d="M136.751,31.34a2.654,2.654,0,1,1-2.652-2.666A2.652,2.652,0,0,1,136.751,31.34Z" transform="translate(-126.129 -23.36)" fill="#fff"/>
      </g>
    </g>
  </g>
</svg>
