<svg xmlns="http://www.w3.org/2000/svg" width="17.894" height="17.893" viewBox="0 0 17.894 17.893">
  <path id="phoneKA" d="M150.82,146.879a2.1,2.1,0,0,1,2.1-2.108h2.822a2.1,2.1,0,0,1,2.088,1.86,10.228,10.228,0,0,0,.382,1.841,2.1,2.1,0,0,1-.519,2.1l-1.144,1.144a13.19,13.19,0,0,0,5.213,5.214l1.144-1.144a2.1,2.1,0,0,1,2.1-.519,10.252,10.252,0,0,0,1.842.382,2.1,2.1,0,0,1,1.859,2.088v2.822a2.1,2.1,0,0,1-2.3,2.093,17.248,17.248,0,0,1-15.584-15.584c-.006-.065-.009-.129-.009-.193Zm6.089,2.215" transform="translate(-150.82 -144.771)" fill="#a79344"/>
</svg>
