<svg xmlns="http://www.w3.org/2000/svg" width="32" height="32" viewBox="0 0 32 32">
  <g id="twitterKA" transform="translate(-415 -4662)">
    <rect id="Rectangle_160" data-name="Rectangle 160" width="32" height="32" transform="translate(415 4662)" fill="#a79344"/>
    <path id="Path_918" data-name="Path 918" d="M-362.72,52.362a6.517,6.517,0,0,1-1.61.462c.259-.044.642-.515.794-.706a2.981,2.981,0,0,0,.536-.98c.014-.028.025-.063,0-.085a.092.092,0,0,0-.085.007A8.2,8.2,0,0,1-365,51.8a.127.127,0,0,1-.132-.035,1.549,1.549,0,0,0-.167-.172,3.375,3.375,0,0,0-.926-.57,3.213,3.213,0,0,0-1.421-.23,3.393,3.393,0,0,0-1.348.382,3.475,3.475,0,0,0-1.087.892,3.358,3.358,0,0,0-.65,1.306,3.549,3.549,0,0,0-.034,1.379c.01.077,0,.088-.066.077a10.2,10.2,0,0,1-6.571-3.358c-.077-.088-.118-.088-.181.007a3.356,3.356,0,0,0,.568,3.953c.129.123.262.245.4.357a3.333,3.333,0,0,1-1.267-.357c-.077-.049-.116-.021-.122.066a1.964,1.964,0,0,0,.021.378,3.379,3.379,0,0,0,2.076,2.7,1.964,1.964,0,0,0,.421.13,3.759,3.759,0,0,1-1.244.038c-.09-.017-.125.028-.09.116a3.5,3.5,0,0,0,2.613,2.2c.118.021.236.021.356.049-.008.011-.015.011-.021.021a4.14,4.14,0,0,1-1.785.95,6.369,6.369,0,0,1-2.71.348c-.146-.022-.176-.02-.216,0s-.005.06.042.1c.185.123.373.231.565.336a8.943,8.943,0,0,0,1.811.728,9.621,9.621,0,0,0,9.368-2.2,9.893,9.893,0,0,0,2.592-7.2c0-.1.122-.161.194-.216a6.309,6.309,0,0,0,1.268-1.331.39.39,0,0,0,.079-.255v-.014c0-.042,0-.029-.06,0Z" transform="translate(801.629 4620.627)" fill="#fff"/>
  </g>
</svg>
