<svg xmlns="http://www.w3.org/2000/svg" width="141" height="11" viewBox="0 0 141 11">
  <g id="vectorKA" transform="translate(-149.629 -79.136)">
    <path id="Path_768" data-name="Path 768" d="M153.285,82.363a.893.893,0,0,0-.516.417.8.8,0,0,0-.061.632,1.223,1.223,0,0,0,1.029.813,1.6,1.6,0,0,0,1.689-1.758,1.832,1.832,0,0,0-.223-.646,2.177,2.177,0,0,0-.431-.554,2.384,2.384,0,0,0-1.28-.607,2.273,2.273,0,0,0-.72,0,2.523,2.523,0,0,0-.351.08c-.115.044-.235.078-.346.129a3.252,3.252,0,0,0-1.154.856,2.877,2.877,0,0,0-.593,2.623,5.625,5.625,0,0,0,1.474,2.482,7.533,7.533,0,0,0,2.543,1.577,13.066,13.066,0,0,0,3.005.741,26.524,26.524,0,0,0,6.293.013,47.2,47.2,0,0,0,6.238-1.1c1.025-.252,2.047-.522,3.058-.829s2.015-.633,3.028-.963c2.023-.658,4.052-1.31,6.1-1.931s4.1-1.195,6.182-1.721l1.567-.369.784-.18.79-.162c.527-.105,1.052-.221,1.581-.319l1.592-.276c.529-.1,1.067-.16,1.6-.237s1.067-.159,1.607-.2l1.616-.157c.54-.039,1.083-.057,1.625-.087a33.868,33.868,0,0,1,6.521.3,18.047,18.047,0,0,1,3.229.7,9.219,9.219,0,0,1,3.041,1.522,4.2,4.2,0,0,1,1.15,1.4c.033.072.071.141.1.216l.075.228a2.693,2.693,0,0,1,.1.474,2.523,2.523,0,0,1-.086.982,2.332,2.332,0,0,1-.489.9,2.222,2.222,0,0,1-.918.633,1.83,1.83,0,0,1-1.246,0,2.048,2.048,0,0,1-.913-.683,3.652,3.652,0,0,1-.27-.419c-.063-.141-.126-.282-.183-.427a3.417,3.417,0,0,1-.181-.914,3.9,3.9,0,0,1,.345-1.748,6.611,6.611,0,0,1,2.188-2.6,10.086,10.086,0,0,1,3.031-1.5,12.3,12.3,0,0,1,1.653-.387,14.272,14.272,0,0,1,1.688-.157,12.163,12.163,0,0,1,3.37.412,10.755,10.755,0,0,1,3.1,1.35,7.433,7.433,0,0,1,2.394,2.4,4.4,4.4,0,0,1,.587,1.66,3.457,3.457,0,0,1-.01.92,3.269,3.269,0,0,1-.282.891,1.228,1.228,0,0,1-.111.213l-.129.209a2.454,2.454,0,0,1-.164.206,1.331,1.331,0,0,1-.191.195,1.835,1.835,0,0,1-1.11.484,1.977,1.977,0,0,1-1.169-.293,2.2,2.2,0,0,1-.751-.762,2.556,2.556,0,0,1-.222-.461A2.619,2.619,0,0,1,225.1,85.1a3.57,3.57,0,0,1,.946-1.582,6.09,6.09,0,0,1,1.41-1.037l.379-.2c.126-.065.258-.117.386-.176.256-.121.52-.216.784-.312A18.43,18.43,0,0,1,232.22,81l1.625-.217c.27-.044.543-.054.816-.073l.816-.053.817-.053.816,0c.544,0,1.088-.017,1.631.007l1.625.08c.271.01.542.032.811.061l.808.078c1.081.084,2.144.262,3.215.4,2.128.353,4.24.765,6.324,1.277s4.149,1.074,6.191,1.694,4.079,1.261,6.1,1.921c1.011.325,2.027.667,3.025.967s2.029.556,3.062.772a43.032,43.032,0,0,0,6.273.857,33.69,33.69,0,0,0,6.317-.167,18.867,18.867,0,0,0,3.067-.629,9.356,9.356,0,0,0,2.763-1.277,4.668,4.668,0,0,0,1.054-1,3.539,3.539,0,0,0,.588-1.269l.046-.348a1.651,1.651,0,0,0,.019-.174l0-.177c0-.117,0-.235-.01-.352a3.191,3.191,0,0,0-.057-.343,2.963,2.963,0,0,0-.625-1.249,3.176,3.176,0,0,0-1.155-.854,2.74,2.74,0,0,0-.7-.209,2.272,2.272,0,0,0-.72,0,2.38,2.38,0,0,0-1.279.607,2.122,2.122,0,0,0-.431.554,1.811,1.811,0,0,0-.225.646,1.6,1.6,0,0,0,1.691,1.758,1.223,1.223,0,0,0,1.028-.813.792.792,0,0,0-.061-.632.889.889,0,0,0-.516-.417.123.123,0,0,1-.085-.157.133.133,0,0,1,.163-.08,1.155,1.155,0,0,1,.688.527,1.062,1.062,0,0,1,.1.839,1.539,1.539,0,0,1-1.273,1.056,1.725,1.725,0,0,1-.879-.111,2.049,2.049,0,0,1-.72-.471,1.925,1.925,0,0,1-.562-1.541,2.178,2.178,0,0,1,.251-.793,2.575,2.575,0,0,1,.5-.672,2.854,2.854,0,0,1,1.525-.758,3.058,3.058,0,0,1,1.708.221,3.7,3.7,0,0,1,1.369.974,3.5,3.5,0,0,1,.765,1.457,3.132,3.132,0,0,1,.076.405c.013.135.014.27.02.405l.008.2a1.868,1.868,0,0,1-.016.2l-.047.406a4.082,4.082,0,0,1-.659,1.5,5.271,5.271,0,0,1-1.174,1.161,10,10,0,0,1-2.943,1.433,19.583,19.583,0,0,1-3.181.713,33.932,33.932,0,0,1-6.484.249,44.147,44.147,0,0,1-6.425-.805c-1.058-.21-2.106-.471-3.145-.756-1.043-.3-2.047-.627-3.065-.943-2.029-.637-4.06-1.258-6.1-1.845a100.914,100.914,0,0,0-12.384-2.831c-1.048-.129-2.094-.3-3.145-.374l-.788-.072c-.263-.026-.527-.048-.789-.055l-1.578-.069c-.527-.02-1.051,0-1.576,0l-.788.008-.784.055-.783.055c-.261.019-.524.03-.78.073l-1.549.217a17.526,17.526,0,0,0-2.978.746A6.692,6.692,0,0,0,227,84.362a2.37,2.37,0,0,0-.628,1.024,1.435,1.435,0,0,0-.029.532,1.4,1.4,0,0,0,.054.252,1.554,1.554,0,0,0,.112.228.8.8,0,0,0,.676.434.474.474,0,0,0,.309-.148.38.38,0,0,0,.08-.084,1.1,1.1,0,0,0,.078-.1l.071-.118a.522.522,0,0,0,.067-.128,2.457,2.457,0,0,0-.253-2.348,6.166,6.166,0,0,0-1.985-1.966,9.387,9.387,0,0,0-2.707-1.17,10.726,10.726,0,0,0-2.969-.361,13.142,13.142,0,0,0-1.5.137,11.162,11.162,0,0,0-1.46.338,8.76,8.76,0,0,0-2.626,1.293,5.37,5.37,0,0,0-1.78,2.083,2.73,2.73,0,0,0-.249,1.21,2.183,2.183,0,0,0,.111.572l.117.277c.053.073.092.166.148.227a.724.724,0,0,0,.316.256.431.431,0,0,0,.321,0,1.043,1.043,0,0,0,.595-.694,1.351,1.351,0,0,0,.045-.52,1.55,1.55,0,0,0-.058-.269l-.042-.135c-.016-.044-.042-.087-.062-.131a2.951,2.951,0,0,0-.811-.971,7.967,7.967,0,0,0-2.6-1.29,17.14,17.14,0,0,0-3.014-.661,32.45,32.45,0,0,0-6.268-.323c-.527.026-1.053.041-1.578.076l-1.577.142c-.527.037-1.048.123-1.572.188s-1.049.127-1.57.223L193.2,82.7c-.52.092-1.038.2-1.557.3l-.779.155-.775.174-1.549.351q-3.089.746-6.147,1.637c-2.037.6-4.066,1.222-6.1,1.858-1.014.317-2.03.642-3.065.937s-2.072.564-3.119.809a48.079,48.079,0,0,1-6.378,1.055,26.988,26.988,0,0,1-6.5-.092,13.873,13.873,0,0,1-3.171-.844,8.218,8.218,0,0,1-2.746-1.779,6.191,6.191,0,0,1-1.577-2.783,3.41,3.41,0,0,1,.759-3.089,3.8,3.8,0,0,1,1.369-.974,3.06,3.06,0,0,1,1.708-.221,2.855,2.855,0,0,1,1.525.758,2.548,2.548,0,0,1,.5.672,2.156,2.156,0,0,1,.253.793,1.93,1.93,0,0,1-.563,1.541,2.048,2.048,0,0,1-.72.471,1.722,1.722,0,0,1-.878.111,1.541,1.541,0,0,1-1.274-1.056,1.061,1.061,0,0,1,.1-.839,1.155,1.155,0,0,1,.688-.527.133.133,0,0,1,.164.082A.123.123,0,0,1,153.285,82.363Z" transform="translate(0 0)" fill="#a79344"/>
    <circle id="Ellipse_7" data-name="Ellipse 7" cx="0.633" cy="0.633" r="0.633" transform="translate(286.195 82.069)" fill="#a79344"/>
    <circle id="Ellipse_8" data-name="Ellipse 8" cx="0.633" cy="0.633" r="0.633" transform="translate(152.72 82.087)" fill="#a79344"/>
  </g>
</svg>
