<svg xmlns="http://www.w3.org/2000/svg" width="33" height="33" viewBox="0 0 33 33">
  <g id="gardenKA" transform="translate(-0.19 -0.436)">
    <g id="Group_273" data-name="Group 273" transform="translate(0 0)">
      <rect id="Rectangle_74" data-name="Rectangle 74" width="33" height="33" transform="translate(0.19 0.436)" fill="#072259"/>
      <g id="g5XVlB.tif" transform="translate(-5462.628 -485.623)">
        <g id="Group_452" data-name="Group 452" transform="translate(5473.489 493.462)">
          <path id="Path_896" data-name="Path 896" d="M5476.264,643.638a1.086,1.086,0,0,1-.416-.669c-.378-1.279-.766-2.555-1.136-3.836a.8.8,0,0,0-.671-.655.616.616,0,0,1-.547-.756.6.6,0,0,1,.683-.585c1.923-.006,3.847,0,5.77,0,1.479,0,2.959.005,4.438,0a.81.81,0,0,1,.762.356v.648a.727.727,0,0,1-.515.349.748.748,0,0,0-.678.634c-.369,1.274-.755,2.544-1.132,3.815a1.141,1.141,0,0,1-.422.707Z" transform="translate(-5473.489 -625.446)" fill="#fff"/>
          <path id="Path_897" data-name="Path 897" d="M5487.075,502.849a1.518,1.518,0,0,1,.656-1.614,13.212,13.212,0,0,0,1.031-1.027.6.6,0,0,0,.063-.9.6.6,0,0,0-.9.033c-.412.388-.812.789-1.2,1.2-.19.2-.332.216-.528.007-.369-.393-.754-.771-1.139-1.148-.334-.328-.7-.359-.956-.092a.627.627,0,0,0,.089.934q.688.712,1.4,1.4a.748.748,0,0,1,.255.606c-.015.377,0,.755,0,1.133,0,.5-.041.541-.538.414a5.083,5.083,0,0,1-3.708-3.241,5.2,5.2,0,1,1,6.165,3.2c-.091.024-.184.041-.275.065-.283.073-.44,0-.412-.33C5487.09,503.282,5487.075,503.065,5487.075,502.849Z" transform="translate(-5480.614 -493.462)" fill="#fff"/>
        </g>
      </g>
    </g>
  </g>
</svg>
