<svg xmlns="http://www.w3.org/2000/svg" width="33" height="33" viewBox="0 0 33 33">
  <g id="pubKA" transform="translate(-0.19 -0.436)">
    <g id="Group_273" data-name="Group 273" transform="translate(0 0)">
      <rect id="Rectangle_74" data-name="Rectangle 74" width="33" height="33" transform="translate(0.19 0.436)" fill="#072259"/>
      <g id="Group_276" data-name="Group 276" transform="translate(9.682 9.167)">
        <g id="Group_270" data-name="Group 270">
          <g id="Group_269" data-name="Group 269">
            <path id="Path_765" data-name="Path 765" d="M1040.486-412.52h-11.641a.288.288,0,0,0-.049-.029.852.852,0,0,1-.638-.883q0-5.9.005-11.807a2.737,2.737,0,0,1,.137-.849,2.519,2.519,0,0,1,2.457-1.74c2.157,0,5.432,0,7.588,0,.145,0,.289,0,.433.006a2.567,2.567,0,0,1,2.311,1.879,5.242,5.242,0,0,1,.087,1.277c0,.077,0,.155,0,.246.332,0,.64-.014.948,0a2.456,2.456,0,0,1,2.179,1.412,5.449,5.449,0,0,1,.277.859v5.651a.634.634,0,0,0-.03.1,2.557,2.557,0,0,1-1.883,2.1,4.59,4.59,0,0,1-1.143.082c-.113,0-.225,0-.351,0,0,.309,0,.6,0,.885a.766.766,0,0,1-.322.628A2.54,2.54,0,0,1,1040.486-412.52Zm-1.01-11.9c0-.3.007-.576,0-.853a.836.836,0,0,0-.873-.848c-2.251,0-5.62,0-7.872,0l-.06,0a.819.819,0,0,0-.792.7,9.715,9.715,0,0,0-.007,1h.165c.782,0,1.564,0,2.346,0a.81.81,0,0,1,.862.772c.03.446.015.9.017,1.344,0,.732-.011,1.465.011,2.2.018.6,1.346,1.19,1.881.907.342-.181.929-.7.928-1.073q0-1.614,0-3.228a.847.847,0,0,1,.922-.919c.508,0,1.016,0,1.524,0Zm1.707,8.5c.13,0,.249,0,.367,0a5.9,5.9,0,0,0,.612-.012.844.844,0,0,0,.717-.89q0-2.487,0-4.975c0-.045,0-.09,0-.134a.78.78,0,0,0-.581-.734,9.319,9.319,0,0,0-1.111-.072Z" transform="translate(-1028.157 427.829)" fill="#fff"/>
          </g>
        </g>
      </g>
    </g>
  </g>
</svg>
