<svg xmlns="http://www.w3.org/2000/svg" width="33" height="33" viewBox="0 0 33 33">
  <g id="restaurantKA" transform="translate(-0.19 -0.436)">
    <g id="Group_273" data-name="Group 273" transform="translate(0 0)">
      <rect id="Rectangle_74" data-name="Rectangle 74" width="33" height="33" transform="translate(0.19 0.436)" fill="#072259"/>
      <g id="Z4rNKw" transform="translate(-5161.784 -296.344)">
        <g id="Group_451" data-name="Group 451" transform="translate(5171.702 304.537)">
          <path id="Path_893" data-name="Path 893" d="M5174.084,304.537a2.735,2.735,0,0,1,1.238,1.617,11.571,11.571,0,0,1,.735,4.25,2.013,2.013,0,0,1-1.156,1.877.467.467,0,0,0-.291.5c.006,2.755,0,5.509.009,8.264a.938.938,0,0,1-.536.973h-.389a.923.923,0,0,1-.55-.962c.012-2.767,0-5.534.011-8.3a.442.442,0,0,0-.275-.473,2.03,2.03,0,0,1-1.179-1.868,10.648,10.648,0,0,1,.918-4.709,2.264,2.264,0,0,1,1.075-1.17Z" transform="translate(-5171.702 -304.537)" fill="#fff"/>
          <path id="Path_894" data-name="Path 894" d="M5305.195,304.537c.366.1.456.36.456.708q-.007,7.938,0,15.877a.9.9,0,0,1-.534.9h-.388a.869.869,0,0,1-.55-.921q.021-2.64,0-5.281a.865.865,0,0,0-.215-.529,4.6,4.6,0,0,1-1.213-3.071,15.648,15.648,0,0,1,1-6.425,2.44,2.44,0,0,1,.98-1.256Z" transform="translate(-5292.554 -304.537)" fill="#fff"/>
          <path id="Path_895" data-name="Path 895" d="M5240.725,304.537c.2,1,.4,1.995.582,3,.165.926.346,1.854.432,2.789a1.942,1.942,0,0,1-1.134,1.956.477.477,0,0,0-.3.5c.008,2.753,0,5.506.01,8.259a.963.963,0,0,1-.524.982h-.389a.9.9,0,0,1-.554-.955c.014-2.754,0-5.508.012-8.262a.5.5,0,0,0-.307-.531,2.147,2.147,0,0,1-1.135-2.306c.338-1.812.7-3.619,1.051-5.429h.312q-.185,2.26-.368,4.52c-.022.266-.011.526.319.555.308.027.369-.209.385-.466q.139-2.3.285-4.608h.311c.027.334.059.668.081,1,.079,1.236.145,2.473.247,3.707.011.134.226.25.346.375a4.393,4.393,0,0,0,.33-.4c.034-.052,0-.151,0-.228-.081-.873-.159-1.746-.248-2.618-.062-.614-.138-1.227-.207-1.84Z" transform="translate(-5232.28 -304.537)" fill="#fff"/>
        </g>
      </g>
    </g>
  </g>
</svg>
