<svg xmlns="http://www.w3.org/2000/svg" width="33" height="33" viewBox="0 0 33 33">
  <g id="roomsKA" transform="translate(0 -0.436)">
    <g id="Group_274" data-name="Group 274" transform="translate(0 0)">
      <g id="Group_273" data-name="Group 273" transform="translate(0)">
        <rect id="Rectangle_74" data-name="Rectangle 74" width="33" height="33" transform="translate(0 0.436)" fill="#072259"/>
        <g id="Group_272" data-name="Group 272" transform="translate(8.637 9.304)">
          <g id="Group_150" data-name="Group 150" transform="translate(0 0)">
            <g id="hEDvZa">
              <g id="Group_125" data-name="Group 125">
                <path id="Path_670" data-name="Path 670" d="M76.282,700.437c.59-.01,1.179,0,1.768.03a16.033,16.033,0,0,1,2.885.376,6.043,6.043,0,0,1,1.688.654,3.335,3.335,0,0,1,1.59,2.185,6.752,6.752,0,0,1,.166,1.444c0,.1-.023.134-.114.139-.206.01-.412-.006-.618,0-.386.013-.772,0-1.158,0s-.753.018-1.129-.006c-.145-.009-.291.017-.434.009-.393-.024-.785,0-1.178,0s-.779-.018-1.168,0c-.135.008-.271-.017-.405-.009-.386.023-.772,0-1.158.005s-.766.019-1.149-.006c-.148-.01-.3.017-.444.008-.37-.022-.74,0-1.11,0-.389,0-.779-.018-1.168,0-.135.008-.271-.017-.405-.009-.393.024-.785,0-1.177,0-.376,0-.753.02-1.13-.005-.144-.009-.29.016-.434.008-.373-.019-.747.013-1.12-.007-.186-.01-.373.006-.56.011-.065,0-.1-.021-.1-.107a5.423,5.423,0,0,1,.394-2.148,3.256,3.256,0,0,1,.953-1.23,4.811,4.811,0,0,1,1.6-.8,10.011,10.011,0,0,1,1.794-.376q.99-.121,1.984-.159C75.393,700.437,75.837,700.44,76.282,700.437Z" transform="translate(-68.218 -695.248)" fill="#fff"/>
                <path id="Path_671" data-name="Path 671" d="M77.515,687.4h3.529c.922,0,1.844,0,2.765,0a1.016,1.016,0,0,1,.82.311,1.2,1.2,0,0,1,.317.839q0,2.477,0,4.955c0,.038.015.091-.022.111s-.063-.026-.089-.05a4.469,4.469,0,0,0-1.431-.9.157.157,0,0,1-.106-.178c0-.406-.007-.813.006-1.219a.871.871,0,0,0-.57-.937,3.2,3.2,0,0,0-1.084-.256,9.774,9.774,0,0,0-1.3-.044,6.192,6.192,0,0,0-1.659.194,1.551,1.551,0,0,0-.576.3.771.771,0,0,0-.263.611c0,.2,0,.4,0,.6,0,.134-.011.15-.125.149-.155,0-.309-.011-.463-.014-.058,0-.079-.03-.08-.095,0-.2-.017-.391-.009-.586a.8.8,0,0,0-.436-.789,2.647,2.647,0,0,0-1.023-.305,10.036,10.036,0,0,0-1.592-.064,5.517,5.517,0,0,0-1.645.22,1.4,1.4,0,0,0-.53.309.717.717,0,0,0-.225.54c0,.462,0,.924,0,1.385a.18.18,0,0,1-.123.2,4.406,4.406,0,0,0-1.441.908c-.017.017-.035.042-.058.031s-.028-.055-.028-.087q0-.393,0-.787,0-2.078,0-4.157a1.11,1.11,0,0,1,.793-1.164,3.516,3.516,0,0,1,.723-.028q1.861,0,3.723,0h2.2Z" transform="translate(-69.426 -687.39)" fill="#fff"/>
                <path id="Path_672" data-name="Path 672" d="M76.3,714.381H84.23c.146,0,.146,0,.146.163v3.779c0,.15,0,.151-.137.151-.677,0-1.354,0-2.031,0-.1,0-.121-.036-.121-.141,0-.458,0-.916,0-1.374,0-.508-.162-.7-.608-.7-.944-.005-1.889,0-2.833,0H71.114a.852.852,0,0,0-.239.033c-.237.069-.361.262-.365.59-.006.451,0,.9,0,1.352,0,.284,0,.242-.215.243-.648,0-1.3,0-1.943,0-.127,0-.132-.005-.132-.148q0-1.9,0-3.8c0-.113.033-.144.129-.144q3.031,0,6.062,0Z" transform="translate(-68.215 -703.65)" fill="#fff"/>
              </g>
            </g>
            <rect id="Rectangle_42" data-name="Rectangle 42" width="14.996" height="3.499" transform="translate(0.208 10.577)" fill="#fff"/>
          </g>
        </g>
      </g>
    </g>
  </g>
</svg>
